<svg width="24" height="25" viewBox="0 0 24 25" fill="none" xmlns="http://www.w3.org/2000/svg">
<path d="M9 3.125C9.74168 3.125 10.4667 3.3541 11.0834 3.78332C11.7001 4.21255 12.1807 4.82262 12.4645 5.53639C12.7484 6.25017 12.8226 7.03558 12.6779 7.79332C12.5333 8.55106 12.1761 9.24709 11.6517 9.79339C11.1272 10.3397 10.459 10.7117 9.73159 10.8624C9.00416 11.0132 8.25016 10.9358 7.56494 10.6402C6.87971 10.3445 6.29404 9.84383 5.88199 9.20145C5.46993 8.55907 5.25 7.80383 5.25 7.03125C5.25 5.99525 5.64509 5.00168 6.34835 4.26911C7.05161 3.53655 8.00544 3.125 9 3.125ZM9 1.5625C7.96165 1.5625 6.94661 1.88324 6.08326 2.48415C5.2199 3.08506 4.54699 3.93917 4.14963 4.93845C3.75227 5.93773 3.6483 7.03732 3.85088 8.09815C4.05345 9.15898 4.55346 10.1334 5.28769 10.8982C6.02191 11.6631 6.95738 12.1839 7.97578 12.3949C8.99418 12.6059 10.0498 12.4976 11.0091 12.0837C11.9684 11.6698 12.7883 10.9689 13.3652 10.0695C13.9421 9.17019 14.25 8.11287 14.25 7.03125C14.25 5.58085 13.6969 4.18985 12.7123 3.16426C11.7277 2.13867 10.3924 1.5625 9 1.5625ZM16.5 23.4375H15V19.5312C15 18.4952 14.6049 17.5017 13.9017 16.7691C13.1984 16.0366 12.2446 15.625 11.25 15.625H6.75C5.75544 15.625 4.80161 16.0366 4.09835 16.7691C3.39509 17.5017 3 18.4952 3 19.5312V23.4375H1.5V19.5312C1.5 18.0808 2.05312 16.6898 3.03769 15.6643C4.02226 14.6387 5.35761 14.0625 6.75 14.0625H11.25C12.6424 14.0625 13.9777 14.6387 14.9623 15.6643C15.9469 16.6898 16.5 18.0808 16.5 19.5312V23.4375ZM16.5 3.125H24V4.6875H16.5V3.125ZM16.5 7.03125H24V8.59375H16.5V7.03125ZM16.5 10.9375H21.75V12.5H16.5V10.9375Z" fill="#002D5C"/>
</svg>
