<svg width="220" height="58" viewBox="0 0 220 58" fill="none" xmlns="http://www.w3.org/2000/svg">
<path fill-rule="evenodd" clip-rule="evenodd" d="M72.5483 51.2243C74.765 51.1716 74.5275 52.6229 72.5483 51.2243V51.2243Z" fill="white"/>
<path d="M40.645 50.723L43.0727 49.298C42.7824 49.0077 42.8088 48.6647 43.0199 48.3216C44.1018 47.6619 45.2102 47.0022 46.2921 46.3425L46.5823 45.3925L42.6505 42.4106C41.3838 43.519 40.1172 44.6537 38.877 45.762C39.0353 47.0022 39.1672 48.2425 39.3256 49.5091C39.5631 49.9049 39.7742 50.3271 40.0116 50.723C41.4366 50.723 42.8352 50.7494 44.2602 50.7494C44.2602 50.723 44.2602 50.6966 44.2866 50.6702L42.7296 50.6966L40.645 50.723Z" fill="black"/>
<path d="M54.8155 50.5382L56.2141 49.0341C55.8975 48.9286 55.6072 48.823 55.2905 48.7438C55.3433 48.005 55.3697 47.2661 55.4225 46.5272L52.3614 43.7301C51.86 43.2815 51.3851 42.7801 50.9365 42.2787C49.9337 41.144 47.3213 38.6899 43.1519 38.4788C43.1255 38.6899 43.1255 38.8746 43.0991 39.0857C44.1283 39.2177 45.131 39.4815 46.081 39.851L51.3059 45.0759L49.1684 47.0814C49.274 47.7675 49.3004 48.48 49.3004 49.1924C49.5115 49.5619 49.749 49.9577 49.9601 50.3271L51.9656 50.5646L50.1184 50.591C50.1712 50.6702 50.1976 50.7494 50.2504 50.8285C52.5725 50.8285 54.8683 50.8285 57.1905 50.8021C57.5863 50.6966 57.8502 50.591 58.0349 50.4855L55.66 50.5119L54.8155 50.5382Z" fill="black"/>
<path d="M2.22363 34.4678C2.98889 36.4469 6.31382 37.4233 10.879 36.7372C10.5623 36.4997 10.1665 35.6025 9.98179 35.3914C6.78881 36.0511 3.8861 35.8663 2.22363 34.4678Z" fill="#27AAE1"/>
<path d="M46.2393 49.8785L49.1948 47.0814C48.8518 44.5217 47.7698 42.0412 45.8171 39.7718C46.5296 41.6982 47.1365 43.6509 47.5324 45.63C47.1365 45.8675 46.7407 46.105 46.3185 46.3425L45.9227 47.6091L43.0991 49.2716C43.2047 49.3772 43.3366 49.4563 43.5213 49.5619C43.838 49.6411 44.181 49.7202 44.4977 49.8258C44.4449 50.116 44.3658 50.3799 44.313 50.6702L45.5005 50.6438L50.1712 50.591C50.1184 50.5119 50.0656 50.4063 50.0129 50.3271L46.2393 49.8785Z" fill="black"/>
<path d="M62.3362 50.0897L59.539 49.7466L60.5417 47.873L58.4307 45.5509C57.9293 44.9967 57.4807 44.4162 57.0849 43.7828C56.9265 43.8092 56.7946 43.8356 56.6363 43.8356C56.6363 43.5981 56.6627 43.3342 56.689 43.0967C56.5043 42.7801 56.3724 42.437 56.2141 42.1204C55.7391 42.9912 55.6071 44.0467 55.4488 45.1286C55.4224 45.5772 55.396 46.0522 55.3696 46.5008L57.0585 48.0578L56.1613 49.0341C56.6099 49.1661 57.0585 49.3244 57.5071 49.4563C58.1404 49.8258 58.4307 50.1688 58.0085 50.4855L59.1168 50.4591L64.8958 50.3799L62.7056 50.116C62.5736 50.116 62.4417 50.116 62.3362 50.116C62.3625 50.1424 62.3625 50.116 62.3362 50.0897Z" fill="black"/>
<path d="M37.9533 26.9735C32.2798 22.9889 22.6481 20.6931 16.3149 26.6568C10.0081 32.5942 6.12901 36.6844 0.508301 32.8581C2.56659 36.5261 11.6706 37.0802 13.2275 32.1984C13.6497 33.2803 12.3303 34.7317 10.6678 35.6553C11.4331 37.6872 13.0955 39.4024 15.2066 40.9065C16.6579 41.9357 18.901 41.2496 19.2704 39.6399C19.0065 39.4552 18.3732 38.9274 18.1885 38.6899C18.3732 36.0247 22.1203 35.6816 20.0093 33.2803C21.0648 33.8081 21.4078 34.8636 21.3023 36.0775L17.8454 45.3925L24.4161 44.7328L25.498 47.53L26.7911 43.2815L21.8301 42.4107L25.3133 40.4052L28.216 43.2287L26.3952 48.4272L22.7009 50.9605L28.6646 50.8813L38.1908 50.7494L29.1132 49.905L33.5992 40.0885C30.0368 35.4442 32.0159 32.0928 37.9005 31.1165C32.1743 33.3595 31.9632 35.6289 34.6812 40.0357L33.6784 42.1204L40.9616 41.1704L42.6504 42.4371C42.7032 42.3843 42.756 42.3579 42.8088 42.3051C42.9143 41.2232 42.9935 40.1677 43.099 39.0857C41.806 38.901 40.4338 38.901 39.1144 38.9538C40.5921 38.558 41.938 38.426 43.1518 38.4788C43.1782 38.2941 43.1782 38.083 43.2046 37.8983C44.6296 34.547 45.4212 32.9109 46.4767 31.697C43.9962 30.6415 41.2519 29.2693 37.9533 26.9735ZM12.7261 36.5789C12.8053 36.7636 12.9372 36.8427 13.0691 36.9219C14.2566 37.4233 14.3094 37.8719 13.9136 38.3733C13.9136 38.3733 14.0983 38.8219 14.3886 39.1121C13.4914 38.5316 12.6205 37.5024 12.7261 36.5789Z" fill="#27AAE1"/>
<path d="M57.1376 43.8092C57.0056 43.5981 56.8737 43.3606 56.7417 43.1231C56.7154 43.3606 56.7154 43.6245 56.689 43.862C56.8209 43.862 56.9792 43.8356 57.1376 43.8092Z" fill="black"/>
<path d="M50.1182 50.3008C50.1709 50.3799 50.2237 50.4855 50.2765 50.5646L52.1237 50.5382L50.1182 50.3008Z" fill="black"/>
<path d="M57.6916 49.4035C57.243 49.2716 56.7945 49.1133 56.3459 48.9813L54.9473 50.4855L55.7917 50.4591L58.1666 50.4063C58.6152 50.1424 58.325 49.773 57.6916 49.4035Z" fill="black"/>
<path d="M62.521 50.0369C62.653 50.0369 62.7849 50.0369 62.8905 50.0369L62.4683 49.9841C62.4947 50.0105 62.521 50.0369 62.521 50.0369Z" fill="black"/>
<path d="M88.1967 40.8801C87.8537 40.194 87.4842 39.5079 87.1412 38.8482C87.2467 38.0302 87.3259 37.2122 87.4314 36.3941C86.8245 35.5761 86.1912 34.758 85.5843 33.94C86.244 32.3831 85.8218 32.1456 84.001 32.04C81.9955 31.2748 79.9635 30.5095 77.958 29.7443C73.604 26.5513 68.8277 26.1555 63.55 26.261C61.3598 26.3138 59.7501 26.261 58.4307 26.2874C58.0612 26.2874 57.7446 26.3138 57.4015 26.3138C54.9474 26.4721 53.2322 27.0527 49.617 29.2693C48.1656 30.1665 47.242 30.7998 46.4768 31.697C45.4212 32.9109 44.6296 34.5469 43.2046 37.8983C43.1782 38.083 43.1782 38.2941 43.1519 38.4788C47.3212 38.6899 49.9337 41.1176 50.9364 42.2787C51.385 42.7801 51.86 43.2815 52.3614 43.7301L55.4224 46.5272C55.4488 46.0786 55.4752 45.6036 55.5016 45.155C55.6335 44.0731 55.7919 43.0176 56.2668 42.1468C56.5043 41.6982 56.821 41.3023 57.2696 41.0121C56.9529 41.7246 56.7946 42.437 56.7154 43.1231C56.8474 43.3606 56.9793 43.5717 57.1113 43.8092C58.1932 43.6509 59.2751 43.4926 60.3306 43.3342C60.3834 43.6509 60.4362 43.9676 60.4626 44.2842C59.9876 47.7147 60.2515 47.1342 62.3098 50.0897L62.732 50.1424C62.9431 50.1424 63.1278 50.1424 63.3389 50.1424C64.1833 50.1688 65.0014 50.1688 65.8458 50.1952C65.8458 49.4563 65.8194 48.7175 65.8194 47.9786C65.5555 47.9786 65.2916 47.9786 65.0278 47.9786C65.7402 47.53 66.4527 47.1078 67.1652 46.6592C67.2708 46.6064 67.3763 46.5272 67.4555 46.4745C67.7458 46.3161 68.0096 46.1314 68.2999 45.9731C68.9596 45.5772 69.5929 45.1814 70.2527 44.7856C71.3082 45.3925 72.3373 45.9995 73.3929 46.6064C74.1317 47.0286 74.8442 47.4508 75.5831 47.873C75.3192 47.873 75.0553 47.873 74.7914 47.873C74.7914 48.7438 74.8178 49.6147 74.8178 50.4855C77.958 50.3799 81.0982 50.2744 84.2121 50.1424C83.8954 49.6674 83.5788 49.2188 83.2621 48.7438C82.4704 48.7438 81.7052 48.7438 80.9135 48.7438C79.9635 48.2425 79.3566 47.6883 79.1983 47.0022C78.5914 45.8411 78.1691 44.68 77.958 43.519C78.2219 42.0676 78.4858 40.6162 79.0927 39.2968C79.3302 41.3023 78.7761 41.3023 80.8871 41.5134C81.4149 42.0412 82.0746 42.3843 82.7343 42.8065C84.0801 43.6773 84.1329 43.0967 83.526 42.437C83.1301 42.0148 83.4732 40.7218 85.0829 42.4634C85.9801 43.4398 86.719 43.5981 87.8009 42.6218C89.3842 42.2259 88.9356 42.3051 88.1967 40.8801Z" fill="#52D305"/>
<path d="M46.292 46.3689C46.6878 46.1314 47.0836 45.8939 47.5058 45.6564C47.11 43.6773 46.5295 41.7509 45.7906 39.7982C47.7697 42.094 48.8253 44.5481 49.1683 47.1078L51.3058 45.1023L46.0809 39.8774C45.1309 39.4815 44.1281 39.244 43.099 39.1121C42.9934 40.194 42.9143 41.2496 42.8087 42.3315C42.7559 42.3843 42.7032 42.4106 42.6504 42.4634L46.5823 45.4453L46.292 46.3689Z" fill="black"/>
<path d="M43.6268 49.5883C43.4421 49.5091 43.3101 49.4036 43.2046 49.298L40.8032 50.7494L42.8615 50.723L44.4184 50.6966C44.4712 50.4063 44.5504 50.1424 44.6031 49.8521C44.2865 49.773 43.9434 49.6938 43.6268 49.5883Z" fill="black"/>
<path d="M32.7596 13.3349L29.5142 13.3776L29.6596 24.4332L32.905 24.3905L32.7596 13.3349Z" fill="#27AAE1"/>
<path d="M31.3842 11.1098L30.7773 11.1177L30.9818 26.6589L31.5886 26.6509L31.3842 11.1098Z" fill="#27AAE1"/>
<path d="M37.9051 11.0127L34.6597 11.0554L34.8051 22.111L38.0505 22.0683L37.9051 11.0127Z" fill="#27AAE1"/>
<path d="M36.5297 8.7876L35.9229 8.79559L36.1273 24.3367L36.7341 24.3288L36.5297 8.7876Z" fill="#27AAE1"/>
<path d="M42.4964 6.60595L39.251 6.64864L39.3964 17.7042L42.6418 17.6615L42.4964 6.60595Z" fill="#27AAE1"/>
<path d="M41.1479 4.40692L40.541 4.4149L40.7454 19.9561L41.3523 19.9481L41.1479 4.40692Z" fill="#27AAE1"/>
<path d="M47.22 2.35764L43.9746 2.40033L44.12 13.4559L47.3655 13.4132L47.22 2.35764Z" fill="#27AAE1"/>
<path d="M45.8715 0.132192L45.2646 0.140175L45.4691 15.6813L46.0759 15.6734L45.8715 0.132192Z" fill="#27AAE1"/>
<path d="M62.6144 23.9201L65.8599 23.8774L65.7144 12.8218L62.469 12.8645L62.6144 23.9201Z" fill="#52D305"/>
<path d="M64.3427 10.5819L63.7358 10.5899L63.9403 26.1311L64.5471 26.1231L64.3427 10.5819Z" fill="#52D305"/>
<path d="M57.4108 21.7396L60.6562 21.6969L60.5108 10.6413L57.2654 10.684L57.4108 21.7396Z" fill="#52D305"/>
<path d="M59.1445 8.41807L58.5376 8.42605L58.742 23.9672L59.3489 23.9592L59.1445 8.41807Z" fill="#52D305"/>
<path d="M52.6994 17.456L55.9448 17.4133L55.7994 6.35768L52.554 6.40037L52.6994 17.456Z" fill="#52D305"/>
<path d="M54.4477 4.14315L53.8408 4.15113L54.0452 19.6923L54.6521 19.6843L54.4477 4.14315Z" fill="#52D305"/>
<path d="M47.8586 13.3324L51.104 13.2898L50.9586 2.23416L47.7131 2.27685L47.8586 13.3324Z" fill="#52D305"/>
<path d="M49.6186 0.000142628L49.0117 0.00812531L49.2161 15.5493L49.823 15.5413L49.6186 0.000142628Z" fill="#52D305"/>
<path d="M46.4766 31.8289V31.8553L46.7141 50.9868L70.3316 50.8285L46.4766 31.8289Z" fill="#52D305"/>
<path d="M22.4634 51.1716L46.7142 50.9868L46.4767 31.8553L22.4634 51.1716Z" fill="#27AAE1"/>
<path d="M86.3228 36.4997L85.3201 35.4705L84.9771 36.4733L86.3228 36.4997Z" fill="white"/>
<path d="M120.091 13.8648V35.4026H115.771V21.3938L110.001 35.4026H106.73L100.929 21.3938V35.4026H96.6091V13.8648H101.515L108.365 29.8793L115.215 13.8648H120.091ZM137.568 31.2987H128.99L127.571 35.4026H123.035L130.78 13.834H135.809L143.554 35.4026H138.988L137.568 31.2987ZM136.396 27.8428L133.279 18.8327L130.163 27.8428H136.396ZM157.558 35.4026L152.806 27.0097H150.769V35.4026H146.449V13.8648H154.534C156.2 13.8648 157.619 14.1631 158.792 14.7597C159.964 15.3357 160.839 16.1276 161.415 17.1356C162.011 18.123 162.309 19.2339 162.309 20.4681C162.309 21.8875 161.898 23.1732 161.075 24.3252C160.252 25.4566 159.028 26.2382 157.403 26.6702L162.556 35.4026H157.558ZM150.769 23.7697H154.379C155.552 23.7697 156.426 23.492 157.002 22.9366C157.578 22.3606 157.866 21.5687 157.866 20.5607C157.866 19.5733 157.578 18.8122 157.002 18.2773C156.426 17.7219 155.552 17.4442 154.379 17.4442H150.769V23.7697ZM178.374 35.4026L170.537 25.8063V35.4026H166.217V13.8648H170.537V23.5229L178.374 13.8648H183.589L174.702 24.5411L183.836 35.4026H178.374ZM190.997 17.3516V22.7515H198.248V26.1765H190.997V31.885H199.174V35.4026H186.677V13.834H199.174V17.3516H190.997ZM217.756 13.8648V17.3516H212.017V35.4026H207.697V17.3516H201.958V13.8648H217.756Z" fill="#27AAE1"/>
<path d="M100.997 52.1679L99.1608 48.9252H98.374V52.1679H96.7049V43.8465H99.8284C100.472 43.8465 101.021 43.9618 101.474 44.1922C101.927 44.4148 102.264 44.7208 102.487 45.1102C102.717 45.4917 102.833 45.9209 102.833 46.3978C102.833 46.9462 102.674 47.4429 102.356 47.888C102.038 48.3251 101.565 48.6271 100.937 48.794L102.928 52.1679H100.997ZM98.374 47.6734H99.7688C100.222 47.6734 100.56 47.5661 100.782 47.3515C101.005 47.129 101.116 46.823 101.116 46.4335C101.116 46.052 101.005 45.758 100.782 45.5513C100.56 45.3367 100.222 45.2294 99.7688 45.2294H98.374V47.6734ZM112.926 43.8465V52.1679H111.257V43.8465H112.926ZM127.284 46.3501C127.093 46.0004 126.831 45.7341 126.497 45.5513C126.163 45.3685 125.774 45.2771 125.328 45.2771C124.836 45.2771 124.399 45.3884 124.017 45.6109C123.636 45.8335 123.338 46.1514 123.123 46.5647C122.908 46.978 122.801 47.4548 122.801 47.9953C122.801 48.5516 122.908 49.0365 123.123 49.4497C123.345 49.863 123.651 50.1809 124.041 50.4035C124.43 50.626 124.883 50.7373 125.4 50.7373C126.036 50.7373 126.556 50.5704 126.962 50.2366C127.367 49.8948 127.633 49.4219 127.76 48.8179H124.899V47.5423H129.406V48.9967C129.294 49.5769 129.056 50.1134 128.69 50.6062C128.325 51.0989 127.852 51.4963 127.272 51.7983C126.699 52.0924 126.056 52.2394 125.34 52.2394C124.538 52.2394 123.81 52.0606 123.159 51.703C122.515 51.3374 122.006 50.8327 121.633 50.1889C121.267 49.5451 121.084 48.8139 121.084 47.9953C121.084 47.1767 121.267 46.4455 121.633 45.8017C122.006 45.15 122.515 44.6453 123.159 44.2876C123.81 43.922 124.534 43.7392 125.328 43.7392C126.266 43.7392 127.081 43.9697 127.772 44.4307C128.464 44.8837 128.941 45.5235 129.203 46.3501H127.284ZM144.458 43.8465V52.1679H142.789V48.6271H139.224V52.1679H137.555V43.8465H139.224V47.2681H142.789V43.8465H144.458ZM158.678 43.8465V45.1937H156.461V52.1679H154.792V45.1937H152.574V43.8465H158.678ZM169.684 52.2514C169.104 52.2514 168.579 52.152 168.11 51.9533C167.649 51.7546 167.283 51.4685 167.013 51.0949C166.743 50.7214 166.604 50.2803 166.596 49.7716H168.384C168.408 50.1134 168.527 50.3836 168.742 50.5823C168.964 50.781 169.266 50.8804 169.648 50.8804C170.037 50.8804 170.343 50.789 170.566 50.6062C170.788 50.4154 170.9 50.169 170.9 49.867C170.9 49.6206 170.824 49.418 170.673 49.259C170.522 49.1 170.331 48.9768 170.101 48.8894C169.878 48.794 169.568 48.6907 169.171 48.5795C168.631 48.4205 168.19 48.2655 167.848 48.1145C167.514 47.9555 167.224 47.7211 166.977 47.4111C166.739 47.0932 166.62 46.672 166.62 46.1474C166.62 45.6546 166.743 45.2255 166.989 44.8599C167.236 44.4943 167.581 44.2161 168.027 44.0253C168.472 43.8266 168.98 43.7273 169.553 43.7273C170.411 43.7273 171.106 43.9379 171.639 44.3591C172.179 44.7724 172.477 45.3526 172.533 46.0997H170.697C170.681 45.8136 170.558 45.5791 170.327 45.3963C170.105 45.2056 169.807 45.1102 169.433 45.1102C169.107 45.1102 168.845 45.1937 168.647 45.3606C168.456 45.5275 168.36 45.7699 168.36 46.0878C168.36 46.3103 168.432 46.4971 168.575 46.6481C168.726 46.7912 168.909 46.9104 169.123 47.0058C169.346 47.0932 169.656 47.1965 170.053 47.3157C170.594 47.4747 171.035 47.6337 171.377 47.7926C171.718 47.9516 172.012 48.19 172.259 48.5079C172.505 48.8258 172.628 49.2431 172.628 49.7597C172.628 50.2048 172.513 50.6181 172.283 50.9996C172.052 51.3811 171.714 51.6871 171.269 51.9176C170.824 52.1401 170.296 52.2514 169.684 52.2514ZM182.659 43.8465V52.1679H180.99V43.8465H182.659ZM194.132 43.8465C195.006 43.8465 195.773 44.0174 196.433 44.3591C197.1 44.7009 197.613 45.1897 197.97 45.8255C198.336 46.4534 198.519 47.1846 198.519 48.0191C198.519 48.8537 198.336 49.5849 197.97 50.2127C197.613 50.8327 197.1 51.3135 196.433 51.6553C195.773 51.997 195.006 52.1679 194.132 52.1679H191.223V43.8465H194.132ZM194.072 50.7492C194.946 50.7492 195.622 50.5108 196.099 50.0339C196.576 49.557 196.814 48.8854 196.814 48.0191C196.814 47.1528 196.576 46.4772 196.099 45.9924C195.622 45.4997 194.946 45.2533 194.072 45.2533H192.892V50.7492H194.072ZM208.352 45.1937V47.28H211.153V48.6033H208.352V50.8088H211.511V52.1679H206.683V43.8346H211.511V45.1937H208.352Z" fill="#52D305"/>
</svg>
