<svg width="24" height="23" viewBox="0 0 24 23" fill="none" xmlns="http://www.w3.org/2000/svg">
<path d="M1.61536 2.11951H14.2101V9.8338H15.7845V2.11951C15.7845 1.70197 15.6186 1.30153 15.3233 1.00628C15.0281 0.711034 14.6277 0.545166 14.2101 0.545166H1.61536C1.19782 0.545166 0.797377 0.711034 0.50213 1.00628C0.206883 1.30153 0.0410156 1.70197 0.0410156 2.11951V21.0116C0.0410156 21.4292 0.206883 21.8296 0.50213 22.1249C0.797377 22.4201 1.19782 22.586 1.61536 22.586H14.2101C14.6277 22.586 15.0281 22.4201 15.3233 22.1249C15.6186 21.8296 15.7845 21.4292 15.7845 21.0116H1.61536V2.11951Z" fill="#002D5C"/>
<path d="M18.385 10.1777C18.2295 10.0506 18.0295 9.98425 17.825 9.99179C17.6204 9.99933 17.4264 10.0802 17.2816 10.2184C17.1369 10.3565 17.0521 10.5416 17.0442 10.7368C17.0363 10.932 17.1059 11.1228 17.239 11.2712L19.9862 13.8382H8.20096C7.9854 13.8382 7.77866 13.9199 7.62624 14.0654C7.47382 14.2108 7.38818 14.4081 7.38818 14.6138C7.38818 14.8195 7.47382 15.0167 7.62624 15.1622C7.77866 15.3076 7.9854 15.3893 8.20096 15.3893H19.9862L17.239 18.0727C17.1539 18.1422 17.0848 18.2278 17.036 18.324C16.9873 18.4202 16.9598 18.525 16.9555 18.6318C16.9512 18.7386 16.9701 18.8451 17.0109 18.9446C17.0518 19.0442 17.1138 19.1345 17.193 19.2101C17.2722 19.2857 17.3669 19.3448 17.4712 19.3838C17.5755 19.4228 17.6871 19.4408 17.7991 19.4367C17.911 19.4326 18.0208 19.4064 18.1217 19.3599C18.2225 19.3133 18.3122 19.2474 18.385 19.1662L23.1316 14.6681L18.385 10.1777Z" fill="#002D5C"/>
</svg>
