<svg width="21" height="18" viewBox="0 0 21 18" fill="none" xmlns="http://www.w3.org/2000/svg">
<path d="M1.14176 16.2922L6.73278 10.3438L9.75421 13.3905L13.447 9.99071L15.5041 12.1031M19.4577 2.73649C19.4577 2.3517 19.3125 1.98267 19.0542 1.71059C18.7959 1.4385 18.4455 1.28564 18.0801 1.28564H2.46788C2.10253 1.28564 1.75215 1.4385 1.49381 1.71059C1.23547 1.98267 1.09033 2.3517 1.09033 2.73649V7.08902H19.4577V2.73649Z" stroke="#002D5C" stroke-width="1.5" stroke-linecap="round" stroke-linejoin="round"/>
<path d="M19.4577 6.12172V15.3104C19.4577 15.6952 19.3125 16.0642 19.0542 16.3363C18.7959 16.6084 18.4455 16.7612 18.0801 16.7612H4.7638M8.02952 4.18726H16.2948M4.35513 4.18726H5.2735M1.09033 6.12172V10.4743" stroke="#002D5C" stroke-width="1.5" stroke-linecap="round" stroke-linejoin="round"/>
</svg>
