<svg width="83" height="80" viewBox="0 0 83 80" fill="none" xmlns="http://www.w3.org/2000/svg">
<path d="M82.1354 71.1568H7.78125V0.900719C7.78125 0.405323 7.39219 0 6.91667 0H0.864583C0.389062 0 0 0.405323 0 0.900719V78.3625C0 78.8579 0.389062 79.2632 0.864583 79.2632H82.1354C82.6109 79.2632 83 78.8579 83 78.3625V72.0575C83 71.5621 82.6109 71.1568 82.1354 71.1568ZM15.5625 63.951H73.4896C73.9651 63.951 74.3542 63.5457 74.3542 63.0503V13.9611C74.3542 13.1505 73.4139 12.7564 72.8736 13.3194L50.1458 36.997L36.5935 23.0359C36.431 22.8683 36.2116 22.7742 35.9829 22.7742C35.7542 22.7742 35.5348 22.8683 35.3723 23.0359L14.9465 44.3829C14.8671 44.4657 14.8043 44.5641 14.7617 44.6723C14.719 44.7805 14.6973 44.8964 14.6979 45.0134V63.0503C14.6979 63.5457 15.087 63.951 15.5625 63.951Z" fill="#039eff"/>
</svg>
