<svg width="19" height="17" viewBox="0 0 19 17" fill="none" xmlns="http://www.w3.org/2000/svg">
<path fill-rule="evenodd" clip-rule="evenodd" d="M2.03571 5.46429V1.82143H6.10714V5.46429H2.03571ZM0 1.21429C0 0.892237 0.142984 0.583379 0.397498 0.355656C0.652012 0.127933 0.997206 0 1.35714 0H6.78571C7.14565 0 7.49085 0.127933 7.74536 0.355656C7.99987 0.583379 8.14286 0.892237 8.14286 1.21429V6.07143C8.14286 6.39348 7.99987 6.70234 7.74536 6.93006C7.49085 7.15778 7.14565 7.28571 6.78571 7.28571H1.35714C0.997206 7.28571 0.652012 7.15778 0.397498 6.93006C0.142984 6.70234 0 6.39348 0 6.07143V1.21429ZM10.8571 1.51786C10.8571 1.27632 10.9644 1.04468 11.1553 0.873885C11.3462 0.703093 11.605 0.607143 11.875 0.607143H17.9821C18.2521 0.607143 18.511 0.703093 18.7019 0.873885C18.8928 1.04468 19 1.27632 19 1.51786C19 1.75939 18.8928 1.99104 18.7019 2.16183C18.511 2.33262 18.2521 2.42857 17.9821 2.42857H11.875C11.605 2.42857 11.3462 2.33262 11.1553 2.16183C10.9644 1.99104 10.8571 1.75939 10.8571 1.51786ZM11.875 4.85714C11.605 4.85714 11.3462 4.95309 11.1553 5.12388C10.9644 5.29468 10.8571 5.52632 10.8571 5.76786C10.8571 6.00939 10.9644 6.24104 11.1553 6.41183C11.3462 6.58262 11.605 6.67857 11.875 6.67857H17.9821C18.2521 6.67857 18.511 6.58262 18.7019 6.41183C18.8928 6.24104 19 6.00939 19 5.76786C19 5.52632 18.8928 5.29468 18.7019 5.12388C18.511 4.95309 18.2521 4.85714 17.9821 4.85714H11.875ZM2.03571 11.5357V15.1786H6.10714V11.5357H2.03571ZM1.35714 9.71429C0.997206 9.71429 0.652012 9.84222 0.397498 10.0699C0.142984 10.2977 0 10.6065 0 10.9286V15.7857C0 16.1078 0.142984 16.4166 0.397498 16.6443C0.652012 16.8721 0.997206 17 1.35714 17H6.78571C7.14565 17 7.49085 16.8721 7.74536 16.6443C7.99987 16.4166 8.14286 16.1078 8.14286 15.7857V10.9286C8.14286 10.6065 7.99987 10.2977 7.74536 10.0699C7.49085 9.84222 7.14565 9.71429 6.78571 9.71429H1.35714ZM11.875 10.3214C11.605 10.3214 11.3462 10.4174 11.1553 10.5882C10.9644 10.759 10.8571 10.9906 10.8571 11.2321C10.8571 11.4737 10.9644 11.7053 11.1553 11.8761C11.3462 12.0469 11.605 12.1429 11.875 12.1429H17.9821C18.2521 12.1429 18.511 12.0469 18.7019 11.8761C18.8928 11.7053 19 11.4737 19 11.2321C19 10.9906 18.8928 10.759 18.7019 10.5882C18.511 10.4174 18.2521 10.3214 17.9821 10.3214H11.875ZM11.875 14.5714C11.605 14.5714 11.3462 14.6674 11.1553 14.8382C10.9644 15.009 10.8571 15.2406 10.8571 15.4821C10.8571 15.7237 10.9644 15.9553 11.1553 16.1261C11.3462 16.2969 11.605 16.3929 11.875 16.3929H17.9821C18.2521 16.3929 18.511 16.2969 18.7019 16.1261C18.8928 15.9553 19 15.7237 19 15.4821C19 15.2406 18.8928 15.009 18.7019 14.8382C18.511 14.6674 18.2521 14.5714 17.9821 14.5714H11.875Z" fill="#002D5C"/>
</svg>
