<svg width="23" height="23" viewBox="0 0 23 23" fill="none" xmlns="http://www.w3.org/2000/svg">
<path d="M6.96289 14.5547C6.25937 15.2582 4.3404 17.2151 2.69482 18.8964C1.01339 16.8969 0 14.317 0 11.5C0 8.68591 1.01133 6.10843 2.68961 4.10972C4.04813 5.48918 5.98337 7.45124 6.99456 8.46243C8.65474 10.1226 8.28809 13.2295 6.96289 14.5547ZM14.6445 6.91797L18.845 2.65133C16.8528 0.995828 14.2928 0 11.5 0C8.69881 0 6.13193 1.00194 4.13713 2.66647L8.08594 6.64844C10.3116 8.74386 12.9399 8.37685 14.6445 6.91797ZM20.279 4.07262C18.9188 5.45383 16.9579 7.44207 15.9376 8.46238C14.2773 10.1226 14.644 13.2295 15.9692 14.5547C16.678 15.2634 18.6201 17.2441 20.2737 18.9336C21.9739 16.9289 23 14.3345 23 11.5C23 8.66848 21.976 6.07649 20.279 4.07262ZM18.8802 20.3189L14.6445 16.0164C12.9399 14.5576 10.3116 14.1905 8.08594 16.286L4.10182 20.3036C6.10151 21.986 8.68214 23 11.5 23C14.3094 23 16.883 21.9921 18.8802 20.3189V20.3189Z" fill="#041C5C"/>
</svg>
