<svg width="27" height="27" viewBox="0 0 27 27" fill="none" xmlns="http://www.w3.org/2000/svg">
<path fill-rule="evenodd" clip-rule="evenodd" d="M0.602904 1.45532C0.951186 1.10704 1.42356 0.911377 1.9161 0.911377H24.2018C24.6944 0.911377 25.1667 1.10704 25.515 1.45532C25.8633 1.8036 26.059 2.27598 26.059 2.76852V25.0542C26.059 25.5468 25.8633 26.0191 25.515 26.3674C25.1667 26.7157 24.6944 26.9114 24.2018 26.9114H1.9161C1.42356 26.9114 0.951187 26.7157 0.602904 26.3674C0.254622 26.0191 0.05896 25.5468 0.05896 25.0542V2.76852C0.05896 2.27597 0.254623 1.8036 0.602904 1.45532ZM1.8319 1.92857L13.0559 13.1713L24.3351 1.93495C24.2913 1.92794 24.2467 1.92436 24.2018 1.92436H1.9161C1.88786 1.92436 1.85976 1.92578 1.8319 1.92857ZM25.0394 2.66318L13.7716 13.8882L25.0376 25.173C25.0431 25.1339 25.046 25.0942 25.046 25.0542V2.76852C25.046 2.73312 25.0438 2.69794 25.0394 2.66318ZM24.3218 25.8898L13.0539 14.6031L1.73527 25.8788C1.79421 25.8917 1.85481 25.8984 1.9161 25.8984H24.2018C24.2422 25.8984 24.2823 25.8955 24.3218 25.8898ZM1.07366 25.108L12.3382 13.8862L1.08599 2.61518C1.07671 2.66542 1.07195 2.71672 1.07195 2.76852V25.0542C1.07195 25.0722 1.07252 25.0902 1.07366 25.108Z" fill="black"/>
<path fill-rule="evenodd" clip-rule="evenodd" d="M5.05271 11.7166C4.88107 11.7164 4.71104 11.7499 4.55231 11.8153C4.39247 11.8811 4.24725 11.9779 4.12501 12.1001C4.00278 12.2224 3.90596 12.3676 3.84013 12.5274C3.82198 12.5715 3.80629 12.6165 3.79309 12.6621H4.72072C5.00045 12.6621 5.22721 12.8888 5.22721 13.1686C5.22721 13.4483 5.00045 13.6751 4.72072 13.6751H3.7415V14.0127H4.72072C5.00045 14.0127 5.22721 14.2395 5.22721 14.5192C5.22721 14.7989 5.00045 15.0257 4.72072 15.0257H3.76165C3.77802 15.1179 3.80429 15.2084 3.84013 15.2954C3.90596 15.4553 4.00278 15.6005 4.12501 15.7227C4.24725 15.8449 4.39247 15.9418 4.55231 16.0076C4.71215 16.0734 4.88344 16.1069 5.0563 16.1062L5.06265 16.1062L5.06265 16.1062C5.25799 16.1079 5.45114 16.0651 5.6275 15.9811C5.80387 15.8971 5.95883 15.7742 6.08067 15.6215C6.25515 15.4028 6.57384 15.367 6.79248 15.5415C7.01113 15.716 7.04693 16.0347 6.87245 16.2533C6.65482 16.526 6.37804 16.7457 6.06302 16.8957C5.74895 17.0453 5.40508 17.1217 5.05726 17.1192C5.05621 17.1192 5.05516 17.1192 5.05411 17.1192L5.05838 16.6127L5.06046 17.1192C5.05939 17.1192 5.05833 17.1192 5.05726 17.1192C4.75176 17.1201 4.44908 17.0606 4.16658 16.9443C3.88309 16.8275 3.62551 16.6558 3.40872 16.439C3.19193 16.2222 3.02021 15.9646 2.90346 15.6811C2.81709 15.4714 2.76208 15.2506 2.73981 15.0257H2.42461C2.14489 15.0257 1.91812 14.7989 1.91812 14.5192C1.91812 14.2395 2.14489 14.0127 2.42461 14.0127H2.72851V13.6751H2.42461C2.14489 13.6751 1.91812 13.4483 1.91812 13.1686C1.91812 12.8888 2.14489 12.6621 2.42461 12.6621H2.7572C2.78546 12.4839 2.83446 12.3093 2.90346 12.1417C3.02021 11.8582 3.19193 11.6006 3.40872 11.3838C3.62551 11.167 3.88309 10.9953 4.16658 10.8786C4.45007 10.7618 4.75387 10.7024 5.06046 10.7036L5.06768 10.7037L5.06768 10.7037C5.41074 10.71 5.74849 10.7896 6.05827 10.9371C6.36805 11.0846 6.64272 11.2967 6.86384 11.559C7.04412 11.7729 7.01687 12.0925 6.80298 12.2727C6.58909 12.453 6.26956 12.4258 6.08928 12.2119C5.96122 12.0599 5.80216 11.9371 5.62275 11.8517C5.44444 11.7668 5.25013 11.7207 5.05271 11.7166ZM2.72851 13.0345V13.0335H3.235L2.72852 13.0356C2.72851 13.0352 2.72851 13.0348 2.72851 13.0345Z" fill="black"/>
<path fill-rule="evenodd" clip-rule="evenodd" d="M13.059 4.2218C13.3387 4.2218 13.5654 4.44857 13.5654 4.7283V5.57245H14.4096C14.6893 5.57245 14.9161 5.79922 14.9161 6.07894C14.9161 6.35867 14.6893 6.58544 14.4096 6.58544H13.5654V7.42959C13.5654 7.70932 13.3387 7.93609 13.059 7.93609C12.7792 7.93609 12.5525 7.70932 12.5525 7.42959V6.58544H11.7083C11.4286 6.58544 11.2018 6.35867 11.2018 6.07894C11.2018 5.79922 11.4286 5.57245 11.7083 5.57245H12.5525V4.7283C12.5525 4.44857 12.7792 4.2218 13.059 4.2218ZM11.324 20.256C11.324 19.9763 11.5508 19.7495 11.8305 19.7495H14.5318C14.8116 19.7495 15.0383 19.9763 15.0383 20.256C15.0383 20.5358 14.8116 20.7625 14.5318 20.7625H11.8305C11.5508 20.7625 11.324 20.5358 11.324 20.256Z" fill="black"/>
<path fill-rule="evenodd" clip-rule="evenodd" d="M21.2777 10.1309C21.5574 10.1309 21.7841 10.3576 21.7841 10.6374V10.7979C22.0812 10.7884 22.3772 10.8467 22.6495 10.9692C22.9702 11.1135 23.2461 11.3417 23.4481 11.6295C23.6088 11.8585 23.5534 12.1744 23.3244 12.3351C23.0955 12.4957 22.7796 12.4404 22.6189 12.2114C22.5215 12.0726 22.3884 11.9626 22.2338 11.893C22.0791 11.8234 21.9086 11.7968 21.7401 11.8159C21.7211 11.8181 21.702 11.8192 21.6829 11.8192H20.8725C20.6486 11.8192 20.4339 11.9081 20.2756 12.0664C20.1172 12.2247 20.0283 12.4394 20.0283 12.6633C20.0283 12.8872 20.1172 13.1019 20.2756 13.2602C20.4339 13.4185 20.6486 13.5075 20.8725 13.5075H21.7504C22.2429 13.5075 22.7153 13.7031 23.0636 14.0514C23.4119 14.3997 23.6075 14.8721 23.6075 15.3646C23.6075 15.8572 23.4119 16.3295 23.0636 16.6778C22.7233 17.0181 22.2645 17.2127 21.7841 17.2215V17.3906C21.7841 17.6703 21.5574 17.8971 21.2777 17.8971C20.9979 17.8971 20.7712 17.6703 20.7712 17.3906V17.2227C20.4995 17.2124 20.2318 17.1498 19.9828 17.0378C19.6738 16.8988 19.4027 16.6876 19.1923 16.422C19.0186 16.2027 19.0556 15.8842 19.2748 15.7105C19.4941 15.5368 19.8127 15.5737 19.9864 15.793C20.096 15.9314 20.2374 16.0415 20.3985 16.114C20.5596 16.1865 20.7357 16.2193 20.9121 16.2096C20.9214 16.209 20.9307 16.2088 20.94 16.2088H21.7504C21.9743 16.2088 22.189 16.1198 22.3473 15.9615C22.5056 15.8032 22.5945 15.5885 22.5945 15.3646C22.5945 15.1407 22.5056 14.926 22.3473 14.7677C22.189 14.6094 21.9743 14.5205 21.7504 14.5205H20.8725C20.3799 14.5205 19.9075 14.3248 19.5593 13.9765C19.211 13.6282 19.0153 13.1559 19.0153 12.6633C19.0153 12.1708 19.211 11.6984 19.5593 11.3501C19.8836 11.0258 20.3155 10.8338 20.7712 10.8089V10.6374C20.7712 10.3576 20.9979 10.1309 21.2777 10.1309Z" fill="black"/>
<path fill-rule="evenodd" clip-rule="evenodd" d="M11.3241 21.8511C11.3241 21.5714 11.5508 21.3446 11.8306 21.3446H14.5319C14.8116 21.3446 15.0384 21.5714 15.0384 21.8511C15.0384 22.1308 14.8116 22.3576 14.5319 22.3576H11.8306C11.5508 22.3576 11.3241 22.1308 11.3241 21.8511Z" fill="black"/>
</svg>
