<svg width="26" height="21" viewBox="0 0 26 21" fill="none" xmlns="http://www.w3.org/2000/svg">
<path d="M5.32682 5.73281C5.08054 5.73281 4.84436 5.83064 4.67022 6.00478C4.49608 6.17892 4.39825 6.4151 4.39825 6.66138C4.39825 6.90765 4.49608 7.14384 4.67022 7.31798C4.84436 7.49212 5.08054 7.58995 5.32682 7.58995H18.3268C18.5731 7.58995 18.8093 7.49212 18.9834 7.31798C19.1576 7.14384 19.2554 6.90765 19.2554 6.66138C19.2554 6.4151 19.1576 6.17892 18.9834 6.00478C18.8093 5.83064 18.5731 5.73281 18.3268 5.73281H5.32682ZM5.32682 9.44709C5.08054 9.44709 4.84436 9.54492 4.67022 9.71906C4.49608 9.8932 4.39825 10.1294 4.39825 10.3757V14.0899C4.39825 14.3362 4.49608 14.5724 4.67022 14.7465C4.84436 14.9207 5.08054 15.0185 5.32682 15.0185H9.0411C9.28737 15.0185 9.52356 14.9207 9.6977 14.7465C9.87184 14.5724 9.96967 14.3362 9.96967 14.0899V10.3757C9.96967 10.1294 9.87184 9.8932 9.6977 9.71906C9.52356 9.54492 9.28737 9.44709 9.0411 9.44709H5.32682ZM6.25539 13.1614V11.3042H8.11253V13.1614H6.25539ZM12.7554 9.44709C12.5091 9.44709 12.2729 9.54492 12.0988 9.71906C11.9246 9.8932 11.8268 10.1294 11.8268 10.3757C11.8268 10.6219 11.9246 10.8581 12.0988 11.0323C12.2729 11.2064 12.5091 11.3042 12.7554 11.3042H18.3268C18.5731 11.3042 18.8093 11.2064 18.9834 11.0323C19.1576 10.8581 19.2554 10.6219 19.2554 10.3757C19.2554 10.1294 19.1576 9.8932 18.9834 9.71906C18.8093 9.54492 18.5731 9.44709 18.3268 9.44709H12.7554ZM12.7554 13.1614C12.5091 13.1614 12.2729 13.2592 12.0988 13.4333C11.9246 13.6075 11.8268 13.8437 11.8268 14.0899C11.8268 14.3362 11.9246 14.5724 12.0988 14.7465C12.2729 14.9207 12.5091 15.0185 12.7554 15.0185H18.3268C18.5731 15.0185 18.8093 14.9207 18.9834 14.7465C19.1576 14.5724 19.2554 14.3362 19.2554 14.0899C19.2554 13.8437 19.1576 13.6075 18.9834 13.4333C18.8093 13.2592 18.5731 13.1614 18.3268 13.1614H12.7554ZM0.68396 3.87566C0.68396 2.89057 1.07529 1.94583 1.77185 1.24927C2.46841 0.552702 3.41316 0.161377 4.39825 0.161377H19.2554C20.2405 0.161377 21.1852 0.552702 21.8818 1.24927C22.5783 1.94583 22.9697 2.89057 22.9697 3.87566C23.9548 3.87566 24.8995 4.26699 25.5961 4.96355C26.2926 5.66012 26.684 6.60486 26.684 7.58995V15.9471C26.684 17.1785 26.1948 18.3594 25.3241 19.2301C24.4534 20.1008 23.2725 20.5899 22.0411 20.5899H5.32682C4.09545 20.5899 2.91453 20.1008 2.04382 19.2301C1.17312 18.3594 0.68396 17.1785 0.68396 15.9471V3.87566ZM22.0411 15.9471C21.7948 15.9471 21.5586 15.8493 21.3845 15.6751C21.2104 15.501 21.1125 15.2648 21.1125 15.0185V3.87566C21.1125 3.38312 20.9169 2.91075 20.5686 2.56246C20.2203 2.21418 19.7479 2.01852 19.2554 2.01852H4.39825C3.9057 2.01852 3.43333 2.21418 3.08505 2.56246C2.73677 2.91075 2.5411 3.38312 2.5411 3.87566V15.9471C2.5411 16.6859 2.8346 17.3945 3.35702 17.9169C3.87944 18.4393 4.588 18.7328 5.32682 18.7328H22.0411C22.7799 18.7328 23.4885 18.4393 24.0109 17.9169C24.5333 17.3945 24.8268 16.6859 24.8268 15.9471V7.58995C24.8268 7.0974 24.6312 6.62503 24.2829 6.27675C23.9346 5.92847 23.4622 5.73281 22.9697 5.73281V15.0185C22.9697 15.2648 22.8718 15.501 22.6977 15.6751C22.5236 15.8493 22.2874 15.9471 22.0411 15.9471Z" fill="black"/>
</svg>
