<svg width="27" height="22" viewBox="0 0 27 22" fill="none" xmlns="http://www.w3.org/2000/svg">
<path fill-rule="evenodd" clip-rule="evenodd" d="M1.71446 1.6013C2.20967 1.10609 2.88133 0.827881 3.58167 0.827881H24.3004C25.0008 0.827881 25.6724 1.10609 26.1676 1.6013C26.6628 2.09651 26.941 2.76817 26.941 3.46851V8.95288C26.941 9.40161 26.5773 9.76538 26.1285 9.76538H1.75354C1.30481 9.76538 0.94104 9.40161 0.94104 8.95288V3.46851C0.94104 2.76817 1.21925 2.09652 1.71446 1.6013ZM3.58167 2.45288C3.3123 2.45288 3.05398 2.55988 2.86351 2.75035C2.67304 2.94082 2.56604 3.19915 2.56604 3.46851V8.14038H25.316V3.46851C25.316 3.19915 25.209 2.94082 25.0186 2.75035C24.8281 2.55988 24.5698 2.45288 24.3004 2.45288H3.58167ZM17.6171 11.9974C17.936 11.7186 18.4157 11.7316 18.719 12.0274L21.449 14.6891C21.7703 15.0024 21.7768 15.5168 21.4636 15.8381C21.1503 16.1594 20.6359 16.1659 20.3146 15.8526L18.1218 13.7146L13.786 17.5048C13.4691 17.7817 12.9933 17.7709 12.6893 17.4799L9.25681 14.1935L2.39922 21.1209C2.08353 21.4398 1.56909 21.4424 1.25018 21.1267C0.931279 20.811 0.928673 20.2966 1.24436 19.9777L8.66411 12.4824C8.97609 12.1672 9.48313 12.1604 9.80344 12.4671L13.2762 15.7921L17.6171 11.9974Z" fill="black"/>
<path fill-rule="evenodd" clip-rule="evenodd" d="M5.2737 5.29663C5.2737 4.8479 5.63746 4.48413 6.0862 4.48413H7.30495C7.75368 4.48413 8.11745 4.8479 8.11745 5.29663C8.11745 5.74536 7.75368 6.10913 7.30495 6.10913H6.0862C5.63746 6.10913 5.2737 5.74536 5.2737 5.29663ZM10.1499 5.29663C10.1499 4.8479 10.5137 4.48413 10.9624 4.48413H21.9312C22.3799 4.48413 22.7437 4.8479 22.7437 5.29663C22.7437 5.74536 22.3799 6.10913 21.9312 6.10913H10.9624C10.5137 6.10913 10.1499 5.74536 10.1499 5.29663ZM1.75354 6.92163C2.20227 6.92163 2.56604 7.2854 2.56604 7.73413V13.2185C2.56604 13.6672 2.20227 14.031 1.75354 14.031C1.30481 14.031 0.94104 13.6672 0.94104 13.2185V7.73413C0.94104 7.2854 1.30481 6.92163 1.75354 6.92163ZM26.1285 6.92163C26.5773 6.92163 26.941 7.2854 26.941 7.73413V19.3123C26.941 20.0126 26.6628 20.6842 26.1676 21.1795C25.6724 21.6747 25.0008 21.9529 24.3004 21.9529H6.62854C6.17981 21.9529 5.81604 21.5891 5.81604 21.1404C5.81604 20.6917 6.17981 20.3279 6.62854 20.3279H24.3004C24.5698 20.3279 24.8281 20.2209 25.0186 20.0304C25.209 19.8399 25.316 19.5816 25.316 19.3123V7.73413C25.316 7.2854 25.6798 6.92163 26.1285 6.92163Z" fill="black"/>
</svg>
