<svg width="27" height="27" viewBox="0 0 27 27" fill="none" xmlns="http://www.w3.org/2000/svg">
<path fill-rule="evenodd" clip-rule="evenodd" d="M21.8855 25.3835C22.8432 25.3835 23.7617 25.003 24.439 24.3258C25.1162 23.6486 25.4966 22.7301 25.4966 21.7724C25.4966 20.8146 25.1162 19.8961 24.439 19.2189C23.7617 18.5417 22.8432 18.1612 21.8855 18.1612C20.9278 18.1612 20.0093 18.5417 19.3321 19.2189C18.6549 19.8961 18.2744 20.8146 18.2744 21.7724C18.2744 22.7301 18.6549 23.6486 19.3321 24.3258C20.0093 25.003 20.9278 25.3835 21.8855 25.3835ZM21.8855 26.8279C23.2263 26.8279 24.5122 26.2953 25.4603 25.3472C26.4084 24.3991 26.9411 23.1132 26.9411 21.7724C26.9411 20.4315 26.4084 19.1456 25.4603 18.1975C24.5122 17.2494 23.2263 16.7168 21.8855 16.7168C20.5447 16.7168 19.2588 17.2494 18.3107 18.1975C17.3626 19.1456 16.83 20.4315 16.83 21.7724C16.83 23.1132 17.3626 24.3991 18.3107 25.3472C19.2588 26.2953 20.5447 26.8279 21.8855 26.8279Z" fill="black"/>
<path fill-rule="evenodd" clip-rule="evenodd" d="M21.8855 19.2445C22.0771 19.2445 22.2608 19.3206 22.3962 19.456C22.5316 19.5914 22.6077 19.7751 22.6077 19.9667V21.4732L23.1183 21.9839C23.2499 22.1201 23.3227 22.3025 23.3211 22.4919C23.3194 22.6812 23.2435 22.8624 23.1095 22.9963C22.9756 23.1302 22.7945 23.2061 22.6051 23.2078C22.4158 23.2094 22.2333 23.1366 22.0971 23.0051L21.1633 22.0712V19.9667C21.1633 19.7751 21.2394 19.5914 21.3748 19.456C21.5103 19.3206 21.694 19.2445 21.8855 19.2445ZM6.71884 13.1056H5.2744V14.55H6.71884V13.1056ZM5.2744 11.6611C4.89131 11.6611 4.52391 11.8133 4.25302 12.0842C3.98214 12.3551 3.82996 12.7225 3.82996 13.1056V14.55C3.82996 14.9331 3.98214 15.3005 4.25302 15.5714C4.52391 15.8423 4.89131 15.9945 5.2744 15.9945H6.71884C7.10194 15.9945 7.46934 15.8423 7.74022 15.5714C8.01111 15.3005 8.16329 14.9331 8.16329 14.55V13.1056C8.16329 12.7225 8.01111 12.3551 7.74022 12.0842C7.46934 11.8133 7.10194 11.6611 6.71884 11.6611H5.2744ZM12.4966 13.1056H11.0522V14.55H12.4966V13.1056ZM11.0522 11.6611C10.6691 11.6611 10.3017 11.8133 10.0308 12.0842C9.75992 12.3551 9.60773 12.7225 9.60773 13.1056V14.55C9.60773 14.9331 9.75992 15.3005 10.0308 15.5714C10.3017 15.8423 10.6691 15.9945 11.0522 15.9945H12.4966C12.8797 15.9945 13.2471 15.8423 13.518 15.5714C13.7889 15.3005 13.9411 14.9331 13.9411 14.55V13.1056C13.9411 12.7225 13.7889 12.3551 13.518 12.0842C13.2471 11.8133 12.8797 11.6611 12.4966 11.6611H11.0522ZM18.2744 13.1056H16.83V14.55H18.2744V13.1056ZM16.83 11.6611C16.4469 11.6611 16.0795 11.8133 15.8086 12.0842C15.5377 12.3551 15.3855 12.7225 15.3855 13.1056V14.55C15.3855 14.9331 15.5377 15.3005 15.8086 15.5714C16.0795 15.8423 16.4469 15.9945 16.83 15.9945H18.2744C18.6575 15.9945 19.0249 15.8423 19.2958 15.5714C19.5667 15.3005 19.7188 14.9331 19.7188 14.55V13.1056C19.7188 12.7225 19.5667 12.3551 19.2958 12.0842C19.0249 11.8133 18.6575 11.6611 18.2744 11.6611H16.83ZM6.71884 18.8834H5.2744V20.3278H6.71884V18.8834ZM5.2744 17.4389C4.89131 17.4389 4.52391 17.5911 4.25302 17.862C3.98214 18.1329 3.82996 18.5003 3.82996 18.8834V20.3278C3.82996 20.7109 3.98214 21.0783 4.25302 21.3492C4.52391 21.6201 4.89131 21.7722 5.2744 21.7722H6.71884C7.10194 21.7722 7.46934 21.6201 7.74022 21.3492C8.01111 21.0783 8.16329 20.7109 8.16329 20.3278V18.8834C8.16329 18.5003 8.01111 18.1329 7.74022 17.862C7.46934 17.5911 7.10194 17.4389 6.71884 17.4389H5.2744ZM12.4966 18.8834H11.0522V20.3278H12.4966V18.8834ZM11.0522 17.4389C10.6691 17.4389 10.3017 17.5911 10.0308 17.862C9.75992 18.1329 9.60773 18.5003 9.60773 18.8834V20.3278C9.60773 20.7109 9.75992 21.0783 10.0308 21.3492C10.3017 21.6201 10.6691 21.7722 11.0522 21.7722H12.4966C12.8797 21.7722 13.2471 21.6201 13.518 21.3492C13.7889 21.0783 13.9411 20.7109 13.9411 20.3278V18.8834C13.9411 18.5003 13.7889 18.1329 13.518 17.862C13.2471 17.5911 12.8797 17.4389 12.4966 17.4389H11.0522Z" fill="black"/>
<path fill-rule="evenodd" clip-rule="evenodd" d="M2.38548 5.1613C2.38548 4.96975 2.46158 4.78605 2.59702 4.65061C2.73246 4.51516 2.91616 4.43907 3.10771 4.43907H6.71882V2.99463H3.10771C2.53307 2.99463 1.98197 3.2229 1.57564 3.62923C1.16931 4.03556 0.94104 4.58666 0.94104 5.1613V22.4946C0.94104 23.0693 1.16931 23.6204 1.57564 24.0267C1.98197 24.433 2.53307 24.6613 3.10771 24.6613H17.7363C17.4283 24.2201 17.193 23.7325 17.0394 23.2169H3.10771C2.91616 23.2169 2.73246 23.1408 2.59702 23.0053C2.46158 22.8699 2.38548 22.6862 2.38548 22.4946V5.1613ZM21.1633 16.7674C21.6423 16.6989 22.1287 16.6989 22.6077 16.7674V5.1613C22.6077 4.58666 22.3794 4.03556 21.9731 3.62923C21.5668 3.2229 21.0157 2.99463 20.441 2.99463H18.2744V4.43907H20.441C20.6326 4.43907 20.8163 4.51516 20.9517 4.65061C21.0872 4.78605 21.1633 4.96975 21.1633 5.1613V16.7674ZM8.16326 4.43907H15.7921V2.99463H8.16326V4.43907Z" fill="black"/>
<path fill-rule="evenodd" clip-rule="evenodd" d="M22.6077 9.49449H2.3855V8.05005H22.6077V9.49449Z" fill="black"/>
<path d="M5.27441 1.5501C5.27441 1.35856 5.35051 1.17486 5.48595 1.03941C5.62139 0.903972 5.80509 0.827881 5.99664 0.827881C6.18818 0.827881 6.37188 0.903972 6.50732 1.03941C6.64277 1.17486 6.71886 1.35856 6.71886 1.5501V5.16121C6.71886 5.35276 6.64277 5.53646 6.50732 5.6719C6.37188 5.80734 6.18818 5.88344 5.99664 5.88344C5.80509 5.88344 5.62139 5.80734 5.48595 5.6719C5.35051 5.53646 5.27441 5.35276 5.27441 5.16121V1.5501ZM15.3855 1.5501C15.3855 1.35856 15.4616 1.17486 15.5971 1.03941C15.7325 0.903972 15.9162 0.827881 16.1077 0.827881C16.2993 0.827881 16.483 0.903972 16.6184 1.03941C16.7539 1.17486 16.83 1.35856 16.83 1.5501V5.16121C16.83 5.35276 16.7539 5.53646 16.6184 5.6719C16.483 5.80734 16.2993 5.88344 16.1077 5.88344C15.9162 5.88344 15.7325 5.80734 15.5971 5.6719C15.4616 5.53646 15.3855 5.35276 15.3855 5.16121V1.5501Z" fill="black"/>
</svg>
