<svg width="26" height="22" viewBox="0 0 26 22" fill="none" xmlns="http://www.w3.org/2000/svg">
<path fill-rule="evenodd" clip-rule="evenodd" d="M1.85821 0C0.840055 0 0.000398355 0.753613 0.000398355 1.67016V5.01492C-0.0182562 5.77469 1.25734 5.77469 1.23845 5.01492V3.34251H17.6416C18.4673 3.34251 18.4673 2.22745 17.6416 2.22745H1.23845V1.67011C1.23845 1.35179 1.50438 1.11501 1.85821 1.11501H24.1422C24.4958 1.11501 24.7613 1.35179 24.7613 1.67011V2.22745H21.9762C21.1505 2.22745 21.1505 3.34251 21.9762 3.34251H24.7613V15.6037H22.2844V8.35896C22.2838 7.90089 21.7034 7.63892 21.2953 7.91264L16.7141 11.0068L12.1327 7.91297C12.0158 7.83386 11.8717 7.79449 11.7258 7.80195C11.6417 7.80624 11.5594 7.82584 11.4839 7.85961L5.98615 10.3342C5.24742 10.6676 5.80292 11.6651 6.54166 11.3317L11.696 9.01107L16.3414 12.148C16.5619 12.2975 16.8656 12.2975 17.0861 12.148L21.0486 9.47211V15.6039H19.8099V12.8165C19.8151 12.5023 19.5307 12.2464 19.1819 12.2511C18.8401 12.2556 18.5669 12.5088 18.5719 12.8165V15.6039H17.3332V13.9315C17.3382 13.6173 17.054 13.3615 16.7049 13.3661C16.3631 13.3706 16.0899 13.6238 16.0949 13.9315V15.6039H14.8562V12.8165C14.8614 12.5023 14.577 12.2464 14.2282 12.2511C13.8864 12.2556 13.6132 12.5088 13.6182 12.8165V15.6039H12.3793V10.5865C12.383 10.2732 12.0993 10.0187 11.7513 10.0232C11.4113 10.029 11.14 10.2803 11.1437 10.5865V15.6039H9.90506V11.7018C9.90921 11.3883 9.62524 11.1335 9.27702 11.1379C8.93584 11.1424 8.66309 11.3947 8.66702 11.7018L8.66681 15.6039H7.42812V12.8165C7.4333 12.5023 7.14893 12.2464 6.80008 12.2511C6.45787 12.2554 6.18445 12.5086 6.18944 12.8165V15.6039H4.95139V13.6541C4.95139 12.9107 3.71271 12.9107 3.71271 13.6541V15.6039H1.23805V9.4745C1.22022 8.74773 0.0178289 8.74773 0 9.4745V17.2762C0 18.1928 0.839656 18.9458 1.85781 18.9458H9.52106L8.90193 20.0609L8.04715 20.061C7.23981 20.0771 7.23981 21.1595 8.04715 21.1755H17.9528C18.7601 21.1595 18.7601 20.0771 17.9528 20.061H17.0953L16.4758 18.946H24.1422C25.1603 18.946 26 18.1929 26 17.2764V1.67058C26 0.754039 25.1603 0.00042529 24.1422 0.00042529L1.85821 0ZM19.8097 2.2286C19.4679 2.2286 19.1906 2.47807 19.1906 2.78594C19.1906 3.09362 19.4677 3.34328 19.8097 3.34328C20.1515 3.34328 20.4288 3.09381 20.4288 2.78594C20.4288 2.47825 20.1517 2.2286 19.8097 2.2286ZM4.33356 11.1452C3.99177 11.1452 3.71443 11.3947 3.71443 11.7025C3.71443 12.0102 3.99156 12.2599 4.33356 12.2599C4.67536 12.2599 4.95269 12.0104 4.95269 11.7025C4.95269 11.3948 4.67556 11.1452 4.33356 11.1452ZM1.23898 16.7186H24.762V17.2765C24.762 17.5948 24.4967 17.8338 24.1428 17.8338L1.85885 17.8335C1.50524 17.8335 1.23908 17.5946 1.23908 17.2761L1.23898 16.7186ZM10.9064 18.9461H15.0948L15.7146 20.0611L10.2874 20.061L10.9064 18.9461Z" fill="black"/>
</svg>
