<svg width="27" height="24" viewBox="0 0 27 24" fill="none" xmlns="http://www.w3.org/2000/svg">
<path d="M26.2744 21.2917H2.6653V1.07703C2.6653 0.934494 2.54176 0.817871 2.39077 0.817871H0.469104C0.318116 0.817871 0.19458 0.934494 0.19458 1.07703V23.365C0.19458 23.5076 0.318116 23.6242 0.469104 23.6242H26.2744C26.4254 23.6242 26.5489 23.5076 26.5489 23.365V21.5509C26.5489 21.4084 26.4254 21.2917 26.2744 21.2917ZM6.29588 16.2931C6.40226 16.3936 6.57383 16.3936 6.68364 16.2931L11.4295 11.8355L15.8081 15.9951C15.9145 16.0955 16.0895 16.0955 16.1959 15.9951L25.6464 7.07665C25.7528 6.97623 25.7528 6.81101 25.6464 6.71058L24.2875 5.42773C24.2359 5.3795 24.1662 5.35244 24.0936 5.35244C24.021 5.35244 23.9513 5.3795 23.8997 5.42773L16.0072 12.8754L11.6354 8.72233C11.5838 8.6741 11.5141 8.64705 11.4415 8.64705C11.3689 8.64705 11.2992 8.6741 11.2476 8.72233L4.94042 14.641C4.88933 14.6897 4.86067 14.7555 4.86067 14.824C4.86067 14.8925 4.88933 14.9583 4.94042 15.007L6.29588 16.2931Z" fill="black"/>
</svg>
