<svg width="27" height="23" viewBox="0 0 27 23" fill="none" xmlns="http://www.w3.org/2000/svg">
<path d="M24.434 2.94339L17.9283 2.94341V1.59031C17.9283 1.2152 17.5647 0.911377 17.1158 0.911377C16.6669 0.911377 16.3033 1.2152 16.3033 1.59031V2.94307H9.80327V1.59031C9.80327 1.2152 9.43968 0.911377 8.99077 0.911377C8.54187 0.911377 8.17827 1.2152 8.17827 1.59031V2.94307H1.68396C0.786554 2.94307 0.05896 3.55105 0.05896 4.30093V21.2742C0.05896 22.024 0.786554 22.632 1.68396 22.632H24.434C25.3314 22.632 26.059 22.024 26.059 21.2742V4.30093C26.059 3.55137 25.3314 2.94339 24.434 2.94339ZM24.434 21.2742H1.68396V4.30093H8.17827V4.98495C8.17827 5.36004 8.54187 5.66388 8.99077 5.66388C9.43968 5.66388 9.80327 5.36004 9.80327 4.98495V4.30127H16.3033V4.98529C16.3033 5.3604 16.6669 5.66422 17.1158 5.66422C17.5647 5.66422 17.9283 5.3604 17.9283 4.98529V4.30127H24.434V21.2742ZM18.7465 11.7695H20.3715C20.82 11.7695 21.184 11.4653 21.184 11.0905V9.73268C21.184 9.35791 20.82 9.05375 20.3715 9.05375H18.7465C18.298 9.05375 17.934 9.35791 17.934 9.73268V11.0905C17.934 11.4653 18.298 11.7695 18.7465 11.7695ZM18.7465 17.2006H20.3715C20.82 17.2006 21.184 16.8967 21.184 16.5216V15.1638C21.184 14.789 20.82 14.4848 20.3715 14.4848H18.7465C18.298 14.4848 17.934 14.789 17.934 15.1638V16.5216C17.934 16.8971 18.298 17.2006 18.7465 17.2006ZM13.8715 14.4848H12.2465C11.798 14.4848 11.434 14.789 11.434 15.1638V16.5216C11.434 16.8967 11.798 17.2006 12.2465 17.2006H13.8715C14.32 17.2006 14.684 16.8967 14.684 16.5216V15.1638C14.684 14.7893 14.32 14.4848 13.8715 14.4848ZM13.8715 9.05375H12.2465C11.798 9.05375 11.434 9.35791 11.434 9.73268V11.0905C11.434 11.4653 11.798 11.7695 12.2465 11.7695H13.8715C14.32 11.7695 14.684 11.4653 14.684 11.0905V9.73268C14.684 9.35757 14.32 9.05375 13.8715 9.05375ZM7.37146 9.05375H5.74646C5.29796 9.05375 4.93396 9.35791 4.93396 9.73268V11.0905C4.93396 11.4653 5.29796 11.7695 5.74646 11.7695H7.37146C7.81996 11.7695 8.18396 11.4653 8.18396 11.0905V9.73268C8.18396 9.35757 7.81996 9.05375 7.37146 9.05375ZM7.37146 14.4848H5.74646C5.29796 14.4848 4.93396 14.789 4.93396 15.1638V16.5216C4.93396 16.8967 5.29796 17.2006 5.74646 17.2006H7.37146C7.81996 17.2006 8.18396 16.8967 8.18396 16.5216V15.1638C8.18396 14.7893 7.81996 14.4848 7.37146 14.4848Z" fill="black"/>
</svg>
