<svg width="28" height="37" viewBox="0 0 28 37" fill="none" xmlns="http://www.w3.org/2000/svg">
<path d="M23.8412 15.9946H23.8912C23.8912 15.9945 23.8912 15.9944 23.8912 15.9944C23.8912 10.4642 21.8229 7.47556 19.4299 5.87197C17.0403 4.27074 14.3352 4.05611 13.0679 4.05611C11.6797 4.05611 10.2901 3.54445 9.24174 3.02776C8.71807 2.76966 8.28067 2.51086 7.97261 2.31529C7.81859 2.21752 7.69696 2.13558 7.61309 2.07749C7.57115 2.04844 7.53868 2.02536 7.51633 2.00926L7.49054 1.99049C7.48576 1.98697 7.48317 1.98502 7.48221 1.9843C7.48186 1.98403 7.48173 1.98393 7.4818 1.98399L7.48184 1.98394L7.47988 1.98251C7.38929 1.9162 7.28173 1.87559 7.16911 1.86501C7.05649 1.85442 6.94299 1.87425 6.84112 1.9224L6.84112 1.9224L6.8409 1.9225C6.73933 1.97111 6.65357 2.04644 6.59348 2.14015C6.53337 2.23389 6.50138 2.34222 6.50127 2.45289V2.45294C6.50127 2.99058 6.63218 3.69091 6.78725 4.33262C6.93901 4.96063 7.11487 5.53632 7.21721 5.85552C6.73356 6.63666 4.90404 9.40379 1.80746 12.0045C1.5665 12.161 1.26707 12.4732 1.11229 12.9127C0.956262 13.3557 0.948441 13.9246 1.28971 14.5875L1.28971 14.5875C1.57044 15.1322 2.00302 15.7369 2.52099 16.2496C3.03844 16.7619 3.64439 17.1855 4.27276 17.3632C4.57605 17.4554 4.89607 17.4837 5.2115 17.4463C5.52701 17.4089 5.83074 17.3065 6.10242 17.146C7.31422 16.4414 8.74197 15.4919 9.36858 15.0696C10.1373 15.4384 11.0959 15.5168 12.0695 15.2843L21.5768 27.5549C23.8312 21.5445 23.8423 16.2167 23.8412 15.9946ZM23.8412 15.9946C23.8412 4.96302 15.5945 4.10611 13.0679 4.10611C10.2692 4.10611 7.47712 2.04452 7.45034 2.02286C7.36711 1.96194 7.26817 1.92454 7.16443 1.91479C7.06069 1.90504 6.9562 1.92332 6.86248 1.96761M23.8412 15.9946L6.86248 1.96761M8.36727 6.18935L8.41093 6.21372C8.41092 6.21374 8.41091 6.21376 8.4109 6.21377C8.32948 6.35964 6.39617 9.71551 2.54536 12.9454L2.54229 12.948L2.54219 12.9479C2.46029 13.0061 2.33312 13.1142 2.26875 13.2897C2.20508 13.4633 2.1996 13.7119 2.37809 14.0585C2.60266 14.4948 2.95044 14.9782 3.34905 15.3826C3.74845 15.7879 4.1943 16.1092 4.61393 16.2282L4.61567 16.2287L4.61566 16.2287C4.75836 16.2748 4.90977 16.29 5.05921 16.2732C5.20866 16.2564 5.35242 16.208 5.48041 16.1315L5.48089 16.1312C6.91176 15.2977 8.71944 14.0703 8.96391 13.9043C8.9807 13.8929 8.99012 13.8866 8.99153 13.8856L9.01871 13.9276M8.36727 6.18935L6.17535 34.2693L6.14212 34.3067C6.14217 34.3068 6.14222 34.3068 6.14227 34.3068C6.25417 34.4063 6.40009 34.4613 6.55126 34.4613H22.168C22.3287 34.4613 22.4831 34.3993 22.5972 34.2885C22.7113 34.1776 22.7757 34.027 22.7757 33.8696C22.7757 33.7122 22.7113 33.5616 22.5972 33.4507C22.4831 33.3399 22.3287 33.2779 22.168 33.2779H6.79337C5.78825 32.3091 5.25365 31.0006 5.24484 29.4764C5.23044 26.8922 6.7384 23.9116 9.18494 21.7051C10.8111 20.2391 11.8391 19.1548 12.4599 18.1299C13.0823 17.1023 13.2942 16.1366 13.2942 14.9113C13.2942 14.8832 13.2892 14.8579 13.2836 14.8355C13.2821 14.8298 13.2806 14.8241 13.279 14.8185C13.2784 14.8164 13.2779 14.8143 13.2773 14.8122C13.8777 14.4921 14.3986 14.0714 14.7575 13.5621C14.9848 13.2404 15.3442 12.6654 15.5558 11.9867C15.7674 11.3078 15.8328 10.5199 15.4641 9.77786L15.4641 9.77779C15.4292 9.70778 15.3804 9.64524 15.3208 9.59369C15.2611 9.54213 15.1916 9.50257 15.1163 9.47718C15.0411 9.4518 14.9614 9.44107 14.882 9.44558C14.8025 9.4501 14.7247 9.46977 14.6529 9.50353C14.5812 9.53728 14.5169 9.58448 14.4637 9.64249C14.4106 9.7005 14.3697 9.76818 14.3434 9.84171C14.3171 9.91525 14.306 9.99313 14.3106 10.0709C14.3153 10.1487 14.3357 10.2247 14.3706 10.2947C14.5262 10.6079 14.5507 11.006 14.4463 11.4534C14.342 11.9006 14.1097 12.3936 13.7566 12.8923L13.7566 12.8923C13.3543 13.4615 12.6315 13.9247 11.821 14.1261C10.9971 14.3307 10.2206 14.239 9.68334 13.8816C9.58103 13.8136 9.45987 13.7776 9.33614 13.7784C9.2124 13.7793 9.09177 13.8169 8.99043 13.8864L9.01871 13.9276M8.36727 6.18935C8.28807 6.33127 6.35829 9.68202 2.51322 12.9071C2.34255 13.0284 1.96664 13.3686 2.33363 14.0814C2.78763 14.9633 3.73691 16.0314 4.60029 16.2763C4.74976 16.3246 4.90832 16.3405 5.0648 16.3229C5.22128 16.3053 5.3719 16.2546 5.50606 16.1744C6.94231 15.3377 8.75874 14.1041 8.99349 13.9447C9.00888 13.9342 9.01747 13.9284 9.01871 13.9276M8.36727 6.18935L9.65565 13.9233C9.56172 13.8608 9.45034 13.8277 9.33648 13.8284C9.22262 13.8292 9.11173 13.8638 9.01871 13.9276M6.86248 1.96761C6.76916 2.01226 6.69056 2.08138 6.63557 2.16714C6.58057 2.25291 6.55137 2.3519 6.55127 2.45294L6.86248 1.96761ZM25.0067 36.0363C25.0067 35.8789 24.9423 35.7282 24.8282 35.6174C24.7141 35.5066 24.5597 35.4446 24.399 35.4446H4.3203C4.15958 35.4446 4.00516 35.5066 3.89109 35.6174C3.77696 35.7282 3.71256 35.8789 3.71256 36.0363C3.71256 36.1937 3.77696 36.3443 3.89109 36.4552C4.00516 36.5659 4.15958 36.6279 4.3203 36.6279H24.399C24.5597 36.6279 24.7141 36.5659 24.8282 36.4552C24.9423 36.3443 25.0067 36.1937 25.0067 36.0363Z" fill="black" stroke="black" stroke-width="0.1"/>
<path d="M20.9345 2.53788L20.9345 2.53787C19.138 1.36205 17.1309 0.861377 14.2309 0.861377C14.0702 0.861377 13.9158 0.923368 13.8017 1.03416C13.6876 1.145 13.6232 1.29564 13.6232 1.45304C13.6232 1.61044 13.6876 1.76109 13.8017 1.87193C13.9158 1.98272 14.0702 2.04471 14.2309 2.04471C16.8798 2.04471 18.6796 2.48668 20.2572 3.51961C22.8267 5.20405 25.8935 8.56074 25.8935 14.9947V14.9958C25.8935 16.5647 25.8935 18.7129 24.7963 22.9762L24.796 22.9773C24.761 23.1285 24.7883 23.2869 24.8719 23.4186C24.9554 23.5502 25.0884 23.6445 25.2421 23.6817C25.3957 23.7189 25.5583 23.6963 25.6952 23.6186C25.8321 23.5408 25.9327 23.4138 25.9749 23.2644L25.9752 23.2633C27.1087 18.8608 27.109 16.6258 27.109 14.9947C27.109 8.04603 23.7526 4.38388 20.9345 2.53788Z" fill="black" stroke="black" stroke-width="0.1"/>
</svg>
