<?xml version="1.0" encoding="utf-8"?>
<!-- Generator: Adobe Illustrator 22.0.1, SVG Export Plug-In . SVG Version: 6.00 Build 0)  -->
<svg version="1.1" id="Layer_1" xmlns="http://www.w3.org/2000/svg" xmlns:xlink="http://www.w3.org/1999/xlink" x="0px" y="0px"
	 viewBox="0 0 25 25" style="enable-background:new 0 0 25 25;" xml:space="preserve">
<style type="text/css">
	.st0{fill:#002D5C;}
</style>
<path class="st0" d="M23.8,3.9H1.2C0.9,3.9,0.6,4,0.4,4.2C0.1,4.5,0,4.8,0,5.1V21c0,0.3,0.1,0.6,0.4,0.9s0.6,0.4,0.9,0.4h22.5
	c0.3,0,0.6-0.1,0.9-0.4S25,21.3,25,21V5.1c0-0.3-0.1-0.6-0.4-0.9S24.1,3.9,23.8,3.9L23.8,3.9z M24.2,21c0,0.1,0,0.2-0.1,0.3
	c-0.1,0.1-0.2,0.1-0.3,0.1H1.2c-0.2,0-0.4-0.2-0.4-0.4V5.1c0-0.2,0.2-0.4,0.4-0.4h22.5c0.1,0,0.2,0,0.3,0.1c0.1,0.1,0.1,0.2,0.1,0.3
	V21H24.2z"/>
<path class="st0" d="M6.7,12.2c-1.1,0-2.2,0.4-2.9,1.2c-0.8,0.8-1.2,1.8-1.2,2.9s0.4,2.2,1.2,2.9c0.8,0.8,1.8,1.2,2.9,1.2
	s2.2-0.4,2.9-1.2s1.2-1.8,1.2-2.9s-0.4-2.2-1.2-2.9C8.8,12.6,7.8,12.2,6.7,12.2z M6.7,19.7c-0.9,0-1.7-0.4-2.4-1
	c-0.6-0.6-1-1.5-1-2.4s0.4-1.7,1-2.4c0.6-0.6,1.5-1,2.4-1s1.7,0.4,2.4,1c0.6,0.6,1,1.5,1,2.4s-0.4,1.7-1,2.4
	C8.4,19.4,7.6,19.7,6.7,19.7z"/>
<path class="st0" d="M6.7,15.1c0.1,0,0.2,0,0.3,0.1c0.1,0.1,0.1,0.2,0.1,0.3c0,0.2,0.2,0.4,0.4,0.4c0.2,0,0.4-0.2,0.4-0.4
	c0-0.3-0.1-0.5-0.2-0.7s-0.4-0.4-0.6-0.5v-0.1c0-0.2-0.2-0.4-0.4-0.4S6.3,14,6.3,14.2v0.1c-0.4,0.1-0.7,0.4-0.8,0.8
	c-0.1,0.4,0,0.8,0.2,1.1s0.6,0.5,1,0.5c0.2,0,0.3,0.1,0.4,0.3c0.1,0.2,0,0.3-0.1,0.5c-0.1,0.1-0.3,0.2-0.5,0.1s-0.3-0.2-0.3-0.4
	c0-0.2-0.2-0.4-0.4-0.4S5.4,17,5.4,17.2c0,0.3,0.1,0.5,0.2,0.7s0.4,0.4,0.6,0.5v0.1c0,0.2,0.2,0.4,0.4,0.4c0.2,0,0.4-0.2,0.4-0.4
	v-0.1c0.4-0.1,0.7-0.4,0.8-0.8c0.1-0.4,0-0.8-0.2-1.1C7.4,16.2,7,16,6.6,16c-0.2,0-0.4-0.2-0.4-0.4S6.4,15.1,6.7,15.1z"/>
<path class="st0" d="M21.3,5.5H3.7c-0.4,0-0.9,0.2-1.1,0.6C2.4,6.6,2.4,7,2.7,7.4C2.9,7.8,3.3,8,3.7,8h17.5c0.4,0,0.9-0.2,1.1-0.6
	s0.2-0.9,0-1.3C22.1,5.8,21.7,5.5,21.3,5.5z M21.3,7.2H3.7C3.5,7.2,3.3,7,3.3,6.8s0.2-0.4,0.4-0.4h17.5c0.2,0,0.4,0.2,0.4,0.4
	C21.7,7,21.5,7.2,21.3,7.2z"/>
<path class="st0" d="M21.3,8.9H3.7c-0.4,0-0.9,0.2-1.1,0.6c-0.2,0.4-0.2,0.9,0,1.3c0.2,0.4,0.6,0.6,1.1,0.6h17.5
	c0.4,0,0.9-0.2,1.1-0.6c0.2-0.4,0.2-0.9,0-1.3C22.1,9.1,21.7,8.9,21.3,8.9z M21.3,10.5H3.7c-0.2,0-0.4-0.2-0.4-0.4s0.2-0.4,0.4-0.4
	h17.5c0.2,0,0.4,0.2,0.4,0.4C21.7,10.4,21.5,10.5,21.3,10.5z"/>
<path class="st0" d="M21.3,12.2H13c-0.3,0-0.6,0.1-0.9,0.4c-0.2,0.2-0.4,0.6-0.4,0.9v5.8c0,0.3,0.1,0.6,0.4,0.9s0.6,0.4,0.9,0.4h8.3
	c0.3,0,0.6-0.1,0.9-0.4s0.4-0.6,0.4-0.9v-5.8c0-0.3-0.1-0.6-0.4-0.9S21.6,12.2,21.3,12.2z M21.7,19.3c0,0.1,0,0.2-0.1,0.3
	c-0.1,0.1-0.2,0.1-0.3,0.1H13c-0.2,0-0.4-0.2-0.4-0.4v-5.8c0-0.2,0.2-0.4,0.4-0.4h8.3c0.1,0,0.2,0,0.3,0.1c0.1,0.1,0.1,0.2,0.1,0.3
	V19.3z"/>
</svg>
