<?xml version="1.0" encoding="utf-8"?>
<!-- Generator: Adobe Illustrator 22.0.1, SVG Export Plug-In . SVG Version: 6.00 Build 0)  -->
<svg version="1.1" id="Layer_1" xmlns="http://www.w3.org/2000/svg" xmlns:xlink="http://www.w3.org/1999/xlink" x="0px" y="0px"
	 viewBox="0 0 700 700" style="enable-background:new 0 0 700 700;" xml:space="preserve">
<style type="text/css">
	.st0{fill:#002D5C;}
</style>
<path class="st0" d="M436.7,204.2h27.1c11.7,0,20.5,9.5,20.5,20.5c0,11.7-9.5,20.5-20.5,20.5h-27.1c-8.8,0-16.1-5.1-19-13.2
	c-3.7-8.8-13.2-13.2-22.7-10.2c-8.8,3.7-13.2,13.2-10.2,22.7c7.3,19.7,26.3,33.6,47.5,35.1v21.2c0,9.5,8,17.6,17.6,17.6
	s17.6-8,17.6-17.6v-21.2c28.5-2.2,51.2-25.6,51.2-54.9c0-30.7-24.9-55.6-54.9-55.6h-27.1c-11.7,0-20.5-8.8-20.5-20.5
	c0-11.7,9.5-20.5,20.5-20.5h27.1c8.8,0,16.1,5.1,19,13.2c3.7,8.8,13.2,13.2,22.7,10.2c8.8-3.7,13.2-13.2,10.2-22.7
	c-7.3-19.7-26.3-33.6-47.5-35.1V72.6c0-9.5-8-17.6-17.6-17.6C441,55,433,63,433,72.6v21.2c-28.5,2.2-51.2,25.6-51.2,54.9
	C381.1,179.3,405.9,204.2,436.7,204.2L436.7,204.2z"/>
<path class="st0" d="M166,211.5c0,8,6.6,15.4,15.4,15.4h19.7c13.9,39.5,48.3,67.3,87.8,67.3c21.9,0,43.9-8.8,60.7-24.9
	c6.6-6.6,7.3-17.6,0.7-24.1c-6.6-7.3-17.6-7.3-24.1-0.7c-10.2,10.2-23.4,15.4-37.3,15.4c-21.2,0-39.5-13.2-50.5-32.9h49.7
	c8,0,15.4-6.6,15.4-15.4c0-8.8-6.6-15.4-15.4-15.4h-59.2c-0.7-3.7-0.7-6.6-0.7-10.2c0-3.7,0.7-6.6,0.7-10.2h59.2
	c8,0,15.4-6.6,15.4-15.4c0-8-6.6-15.4-15.4-15.4h-49.7c11-19.7,29.3-32.9,50.5-32.9c13.2,0,26.3,5.1,37.3,15.4
	c6.6,6.6,17.6,6.6,24.1-0.7c6.6-6.6,6.6-17.6-0.7-24.1c-17.6-16.1-38-24.9-60.7-24.9c-39.5,0-73.9,27.8-87.8,67.3h-19.7
	c-8,0-15.4,6.6-15.4,15.4c0,8,6.6,15.4,15.4,15.4h13.9c0,3.7-0.7,6.6-0.7,10.2c0,3.7,0.7,6.6,0.7,10.2h-13.9
	C172.6,196.9,166,203.5,166,211.5L166,211.5z"/>
<path class="st0" d="M555.9,260.5c-9.5,2.2-15.4,11-13.2,20.5c2.2,9.5,11,15.4,20.5,13.2l44.6-10.2c5.1-1.5,10.2,0,14.6,2.9
	c8.8,5.9,19,8.8,29.3,8.8c7.3,0,14.6-1.5,21.2-4.4l8-3.7c8.8-3.7,13.2-13.9,8.8-22.7c-3.7-8.8-13.9-13.2-22.7-8.8l-7.3,2.9
	c-5.9,2.2-13.2,2.2-18.3-1.5c-10.2-6.6-21.9-8.8-33.6-8c2.9-11.7,4.4-24.1,3.7-36.6h40.2c8.8,0,15.4-6.6,15.4-15.4
	c0-8.8-6.6-15.4-15.4-15.4h-46.1c-1.5-5.1-3.7-10.2-5.9-15.4c-8-17.6-8.8-24.9-8.8-27.1c0-15.4,11.7-26.3,27.8-26.3
	c15.4,0,27.8,12.4,27.8,27.8c0,9.5,8,17.6,17.6,17.6c9.5,0,17.6-8,17.6-17.6c0-34.4-27.8-62.2-62.2-62.2
	c-35.1,0-62.2,27.1-62.2,61.4c0,10.2,3.7,24.1,11.7,41.7c0,0,0,0.7,0.7,0.7h-7.3c-8.8,0-15.4,6.6-15.4,15.4
	c0,8.8,6.6,15.4,15.4,15.4h14.6c1.5,15.4-1.5,30.7-8,44.6L555.9,260.5z"/>
<path class="st0" d="M697,368c-5.1-16.1-16.1-29.3-31.4-36.6c-15.4-7.3-32.9-8-48.3-2.2l-152.9,55.6c-5.1-4.4-11-8-17.6-10.2
	l-118.5-41C295.5,322,258.9,322,226,332.2l-74.6,23.4V341c0-10.2-8.8-19-19-19l-108.3,0c-10.2,0-19,8.8-19,19v238.4
	c0,10.2,8.8,19,19,19h107.5c10.2,0,19-8.8,19-19V567L403,597.7c5.9,0.7,11.7,0.7,17.6,0.7c30.7,0,60-10.2,84.8-29.3l171.1-133.8
	C696.3,420,705.1,392.9,697,368L697,368z M112.6,559.7H42.4V359.3h69.5l0,200.4H112.6z M653.1,406.1L482,539.9
	c-21.2,16.8-47.5,24.1-73.9,20.5l-257.5-32.2V394.4l86.3-27.1c25.6-8,53.4-7.3,79,1.5l118.5,41c2.9,1.5,5.9,3.7,7.3,6.6
	c1.5,2.9,1.5,6.6,0.7,9.5c-2.2,5.9-8,8.8-13.2,8l-138.2-15.4c-10.2-1.5-19.7,6.6-20.5,16.8c-1.5,10.2,6.6,19.7,16.8,20.5l138.2,15.4
	h5.9c21.2,0,39.5-13.2,46.8-32.9c2.2-6.6,3.7-13.9,2.9-20.5l149.9-54.9c6.6-2.2,13.2-2.2,19,0.7c5.9,2.9,10.2,8,12.4,14.6
	C664.1,389.2,661.2,400.2,653.1,406.1L653.1,406.1z"/>
</svg>
