<?xml version="1.0" encoding="utf-8"?>
<!-- Generator: Adobe Illustrator 22.0.1, SVG Export Plug-In . SVG Version: 6.00 Build 0)  -->
<svg version="1.1" id="Layer_1" xmlns="http://www.w3.org/2000/svg" xmlns:xlink="http://www.w3.org/1999/xlink" x="0px" y="0px"
	 viewBox="0 0 25 25" style="enable-background:new 0 0 25 25;" xml:space="preserve">
<style type="text/css">
	.st0{fill:#002D5C;}
</style>
<path class="st0" d="M24.9,10.7c0-0.2-0.2-0.3-0.3-0.4l-1.9-0.5C22.4,8.9,22,8,21.5,7.2l1-1.7c0.1-0.2,0.1-0.3,0-0.5
	c-0.7-1-1.6-1.8-2.6-2.6c-0.1-0.1-0.3-0.1-0.5,0l-1.7,1c-0.7-0.4-1.6-0.8-2.6-1l-0.5-1.9l0,0c0-0.2-0.2-0.3-0.4-0.3
	C13,0,11.8,0,10.6,0.2c-0.2,0-0.3,0.2-0.4,0.3L9.9,2.4C8.9,2.6,8,3,7.2,3.5l-1.7-1C5.4,2.4,5.2,2.4,5,2.5C4.1,3.2,3.2,4.1,2.5,5
	c-0.1,0.1-0.1,0.3,0,0.5l1,1.7C3,8,2.6,8.9,2.4,9.9l-1.9,0.5c-0.2,0-0.3,0.2-0.3,0.4C0,12,0,13.2,0.2,14.4c0,0.2,0.2,0.3,0.3,0.4
	l1.9,0.5C2.6,16.1,3,17,3.5,17.8l-1,1.7c-0.1,0.2-0.1,0.3,0,0.5c0.7,1,1.6,1.8,2.6,2.6c0.1,0.1,0.3,0.1,0.5,0l1.7-1
	c0.7,0.4,1.6,0.8,2.6,1l0.5,1.9c0,0.2,0.2,0.3,0.4,0.3c1.2,0.2,2.4,0.2,3.6,0c0.2,0,0.3-0.2,0.4-0.3l0.5-1.9
	c0.9-0.2,1.8-0.6,2.7-1.1l1.7,1c0.2,0.1,0.3,0.1,0.5,0c1-0.7,1.8-1.6,2.6-2.6c0.1-0.1,0.1-0.3,0-0.5l-1-1.7c0.5-0.8,0.9-1.7,1.1-2.7
	l1.9-0.5c0.2,0,0.3-0.2,0.3-0.4C25,13.1,25,11.9,24.9,10.7z M12.5,20.3c-4.3,0-7.8-3.5-7.8-7.8s3.5-7.8,7.8-7.8s7.8,3.5,7.8,7.8
	S16.8,20.3,12.5,20.3z"/>
<path class="st0" d="M13,8c1.2,0,2.2,0.4,3,1.2c0.2,0.2,0.6,0.2,0.8,0C17,9,17,8.6,16.8,8.4c-0.6-0.5-1.3-0.9-2.1-1.2V5.7
	c0-0.3-0.2-0.5-0.5-0.5s-0.5,0.2-0.5,0.5v1.2c-0.2,0-0.4,0-0.6,0c-0.2,0-0.4,0-0.6,0V5.7c0-0.3-0.2-0.5-0.5-0.5s-0.5,0.2-0.5,0.5
	v1.4c-2.3,0.7-4,2.9-4,5.4c0,2.3,1.4,4.3,3.4,5.2v1.6c0,0.3,0.2,0.5,0.5,0.5s0.5-0.2,0.5-0.5V18c0.4,0.1,0.8,0.1,1.2,0.1l0,0v1.2
	c0,0.3,0.2,0.5,0.5,0.5s0.5-0.2,0.5-0.5V18c1-0.2,1.9-0.7,2.6-1.3c0.2-0.2,0.2-0.5,0-0.8c-0.2-0.2-0.5-0.2-0.8,0
	c-0.8,0.7-1.9,1.2-3,1.2c-2.5,0-4.5-2-4.5-4.5C8.5,10,10.5,8,13,8z"/>
</svg>
