<?xml version="1.0" encoding="utf-8"?>
<!-- Generator: Adobe Illustrator 22.0.1, SVG Export Plug-In . SVG Version: 6.00 Build 0)  -->
<svg version="1.1" id="Layer_1" xmlns="http://www.w3.org/2000/svg" xmlns:xlink="http://www.w3.org/1999/xlink" x="0px" y="0px"
	 viewBox="0 0 25 25" style="enable-background:new 0 0 25 25;" xml:space="preserve">
<style type="text/css">
	.st0{fill:none;stroke:#002D5C;stroke-miterlimit:10;}
</style>
<path d="M19,6.9c0.8,0,1.4,0.6,1.4,1.2v7.1c0.1,0,0.2,0,0.4,0c0.3,0,0.6,0,0.8,0.2V8.2c0-1.3-1.2-2.3-2.7-2.3l-2.6,0
	c0,0.2,0,0.4,0,0.5c0,0.2,0,0.4,0,0.5L19,6.9L19,6.9z"/>
<path d="M7.8,15.7L7.8,15.7c0.2-0.1,0.4-0.2,0.6-0.3l0-4.1c-0.4-0.1-0.8-0.3-1.2-0.5v5.2L7.8,15.7z"/>
<path d="M10.3,12.5c-0.1,0-0.2,0.1-0.2,0.2v1.8c0,0.1,0.1,0.2,0.2,0.2H12c0.1,0,0.2-0.1,0.2-0.2v-1.8c0-0.1-0.1-0.2-0.2-0.2H10.3z"
	/>
<path d="M13.4,11.5v2.9c0,0.1,0.1,0.2,0.2,0.2h1.7c0.1,0,0.2-0.1,0.2-0.2v-2.9c0-0.1-0.1-0.2-0.2-0.2h-1.7
	C13.4,11.3,13.4,11.4,13.4,11.5z"/>
<path d="M16.8,10.2c-0.1,0-0.2,0.1-0.2,0.2v4.1c0,0.1,0.1,0.2,0.2,0.2h1.7c0.1,0,0.2-0.1,0.2-0.2l0-4.1c0-0.1-0.1-0.2-0.2-0.2H16.8z
	"/>
<path d="M21.6,16.6c-0.3-0.2-0.7-0.4-1.1-0.3l-3.3,0.8v0.2c-0.1,0.8-0.8,1.4-1.7,1.6l-0.1,0c-1.2,0.2-2.5,0.3-3.7,0.3l-1,0
	c-0.2,0-0.3,0-0.4-0.1c-0.1-0.1-0.2-0.2-0.2-0.4c0-0.1,0.1-0.3,0.2-0.4c0.1-0.1,0.3-0.2,0.4-0.2l1.1,0c1.1,0,2.3-0.1,3.4-0.3l0.2,0
	c0.4-0.1,0.7-0.4,0.7-0.7c0-0.2-0.1-0.4-0.2-0.6c-0.2-0.2-0.4-0.2-0.6-0.3l-5.2-0.3c-0.6,0-1.1,0.1-1.6,0.4l-5,3.2
	c-0.3,0.2-0.4,0.6-0.1,0.9l2.7,2.4c0.2,0.2,0.6,0.2,0.9,0.1l1.2-0.8c0.2-0.1,0.4-0.2,0.7-0.2l3.9,0.4c0.7,0.1,1.5-0.1,2.1-0.5
	l6.5-4.2c0.2-0.2,0.4-0.4,0.4-0.6C21.9,17,21.8,16.8,21.6,16.6L21.6,16.6z"/>
<path d="M10.3,10.6c2.7,0,4.9-1.9,4.9-4.3c0-2.4-2.2-4.3-4.9-4.3S5.3,4,5.3,6.4C5.4,8.7,7.5,10.6,10.3,10.6z M10.5,6.8h-0.4
	c-0.8,0-1.5-0.5-1.5-1.2C8.5,4.9,9.1,4.4,9.8,4.2l0-0.5c0-0.1,0.1-0.1,0.1-0.1h0.7c0.1,0,0.1,0,0.1,0.1v0.5c0.6,0.1,1.2,0.6,1.2,1.1
	c0,0.1-0.1,0.1-0.1,0.1h-0.7c-0.1,0-0.1,0-0.1-0.1C11,5.2,10.7,5,10.5,5h-0.4C9.8,5,9.5,5.1,9.5,5.4c-0.1,0.3,0.2,0.6,0.6,0.6l0.4,0
	c0.9,0,1.5,0.6,1.5,1.4c-0.1,0.6-0.6,1-1.2,1.1V9c0,0.1-0.1,0.1-0.1,0.1H9.9C9.8,9.1,9.8,9,9.8,9V8.5C9.1,8.4,8.6,7.9,8.5,7.3
	c0-0.1,0.1-0.1,0.1-0.1h0.7c0.1,0,0.1,0,0.1,0.1C9.5,7.5,9.7,7.7,10,7.7h0.4c0.3,0,0.5-0.2,0.6-0.4C11.1,7,10.8,6.8,10.5,6.8
	L10.5,6.8z"/>
<rect x="0.5" y="0.5" class="st0" width="24" height="24"/>
</svg>
