<?xml version="1.0" encoding="utf-8"?>
<!-- Generator: Adobe Illustrator 22.0.1, SVG Export Plug-In . SVG Version: 6.00 Build 0)  -->
<svg version="1.1" id="Layer_1" xmlns="http://www.w3.org/2000/svg" xmlns:xlink="http://www.w3.org/1999/xlink" x="0px" y="0px"
	 viewBox="0 0 25 25" style="enable-background:new 0 0 25 25;" xml:space="preserve">
<style type="text/css">
	.st0{fill:#002D5C;}
</style>
<g>
	<path class="st0" d="M19.8,16.4l1.2-1.1L17.7,12l-3.8,3l0,0c-0.1,0.1-0.3,0.2-0.4,0.2c-0.2,0-0.3,0-0.5-0.1l-4.4-1.8
		c-0.2-0.1-0.3-0.2-0.4-0.3l-4-5.6L1.8,8.6v14.6h1.8V10.8h2.7v12.5H8v-8h2.7v8h1.8V17h2.7v6.2H17v-4.4h2.7v4.4h1.8v-3.6H24v3.6h0.9
		V25h-24c-0.2,0-0.5-0.1-0.6-0.3S0,24.3,0,24.1v-24h1.8v6.6L4,5.5c0.2-0.1,0.4-0.1,0.6-0.1C4.9,5.5,5,5.6,5.2,5.8l4.3,6l3.7,1.5
		l4-3.2l0,0c0.2-0.1,0.4-0.2,0.6-0.2s0.4,0.1,0.6,0.3l3.8,3.8l1.1-1.2c0.1-0.1,0.3-0.2,0.5-0.2s0.4,0,0.5,0.1
		c0.2,0.1,0.3,0.2,0.4,0.3s0.2,0.3,0.1,0.5V17c0,0.2-0.1,0.5-0.3,0.6c-0.2,0.2-0.4,0.3-0.6,0.3h-3.6c-0.2,0-0.3-0.1-0.5-0.1
		c-0.1-0.1-0.3-0.2-0.3-0.4c-0.1-0.2-0.1-0.3-0.1-0.5C19.6,16.6,19.7,16.5,19.8,16.4L19.8,16.4z"/>
	<path class="st0" d="M12.5,8.1c-0.2,0-0.5-0.1-0.6-0.3c-0.2-0.2-0.3-0.4-0.3-0.6H9.8c0,0.6,0.2,1.1,0.5,1.5c0.3,0.4,0.8,0.8,1.3,1
		v1.1h1.8V9.7C14.1,9.4,14.8,8.8,15,8s0.1-1.7-0.4-2.4s-1.3-1.1-2.1-1.1c-0.2,0-0.5-0.1-0.6-0.3c-0.2-0.2-0.3-0.4-0.3-0.6
		c0-0.2,0.1-0.5,0.3-0.6c0.2-0.2,0.4-0.3,0.6-0.3S13,2.8,13.1,3c0.2,0.2,0.3,0.4,0.3,0.6h1.8c0-0.6-0.2-1.1-0.5-1.5s-0.8-0.8-1.3-1
		v-1h-1.8v1.1c-0.8,0.3-1.4,0.9-1.7,1.7c-0.2,0.8-0.1,1.7,0.4,2.4s1.3,1.1,2.1,1.1c0.3,0,0.6,0.2,0.8,0.4s0.2,0.6,0,0.9
		C13,8,12.8,8.1,12.5,8.1z"/>
	<path class="st0" d="M20.5,1.9h4.4v1.8h-4.4V1.9z"/>
	<path class="st0" d="M20.5,4.5h4.4v1.8h-4.4V4.5z"/>
	<path class="st0" d="M20.5,7.2h4.4V9h-4.4V7.2z"/>
</g>
</svg>
