<?xml version="1.0" encoding="utf-8"?>
<!-- Generator: Adobe Illustrator 22.0.1, SVG Export Plug-In . SVG Version: 6.00 Build 0)  -->
<svg version="1.1" id="Layer_1" xmlns="http://www.w3.org/2000/svg" xmlns:xlink="http://www.w3.org/1999/xlink" x="0px" y="0px"
	 viewBox="0 0 25 25" style="enable-background:new 0 0 25 25;" xml:space="preserve">
<style type="text/css">
	.st0{fill:#002D5C;}
</style>
<path class="st0" d="M1.5,22.6V2H0.1v22H25v-1.4H1.5z"/>
<path class="st0" d="M3.6,4.8H3.3v1H2.8V8h0.6v1h0.3V8h0.6V5.7H3.6V4.8z"/>
<path class="st0" d="M6.5,5.6H6.1v1.2H5.5v3.3h0.6v1.2h0.3v-1.2h0.6V6.8H6.5V5.6z"/>
<path class="st0" d="M9.2,9.6H8.9v1.2H8.4v1.9H9v2.6h0.3v-2.6h0.6v-1.9H9.2V9.6z"/>
<path class="st0" d="M12,8.5h-0.3v2.2h-0.6v2.6h0.6v0.9H12v-0.9h0.6v-2.6H12C12,10.7,12,8.5,12,8.5z"/>
<path class="st0" d="M14.7,5.7h-0.3v0.5h-0.6v4.1h0.6v1.1h0.3v-1.1h0.6V6.2h-0.6V5.7z"/>
<path class="st0" d="M17.5,7.3h-0.3v1.3h-0.6v1.6h0.6v1.1h0.3v-1.1h0.6V8.7h-0.6V7.3z"/>
<path class="st0" d="M20.3,7.7H20v0.5h-0.6v4.1H20v1.1h0.3v-1.1h0.6v-4h-0.6V7.7z"/>
<path class="st0" d="M23.6,12.6H23v-0.7h-0.3v0.7h-0.5v2.3h0.6v2.2h0.3v-2.2h0.6v-2.3H23.6z"/>
</svg>
