<?xml version="1.0" encoding="utf-8"?>
<!-- Generator: Adobe Illustrator 22.0.1, SVG Export Plug-In . SVG Version: 6.00 Build 0)  -->
<svg version="1.1" id="Layer_1" xmlns="http://www.w3.org/2000/svg" xmlns:xlink="http://www.w3.org/1999/xlink" x="0px" y="0px"
	 viewBox="0 0 25 25" style="enable-background:new 0 0 25 25;" xml:space="preserve">
<style type="text/css">
	.st0{fill:#002D5C;}
</style>
<path class="st0" d="M20.2,21.9H23v0.7h-2.8V21.9z"/>
<path class="st0" d="M2.2,21.9h0.7v0.7H2.2V21.9z"/>
<path class="st0" d="M3.4,21.9h0.7v0.7H3.4V21.9z"/>
<path class="st0" d="M4.6,21.9h0.7v0.7H4.6V21.9z"/>
<path class="st0" d="M23.3,20.8V8.7c0-0.5-0.4-0.9-0.9-0.9h-2.8V4.2c0-0.4-0.3-0.7-0.7-0.7h-0.3L19,2.2L19.4,3l0.8-0.2l-0.7-2.2
	l-2.2,0.7l0.3,0.8l0.8-0.3l-0.8,1.7H6.3c-0.4,0-0.7,0.3-0.7,0.7v3.5H2.8c-0.5,0-0.9,0.4-0.9,0.9v12.1H0v2c0,0.6,0.5,1.1,1.1,1.1
	h22.6c0.6,0,1.1-0.5,1.1-1.1v-2H23.3z M22.3,8.5c0.1,0,0.2,0.1,0.2,0.2v12.1h-0.6v-11c0-0.3-0.2-0.5-0.5-0.5h-1.8V8.5H22.3L22.3,8.5
	z M10.1,21.6h5.1v0.3l0,0h-5l0,0L10.1,21.6L10.1,21.6z M9.3,20.8H4.2V10h1.5v8.3C5.7,18.7,6,19,6.4,19h12.4c0.4,0,0.7-0.3,0.7-0.7
	V10h1.5v10.8H9.3V20.8z M6.3,4.2h10.8L16,6.5l-2.4-1.8l-2.5,2.9h-0.1l-2.4-1L6.3,9.5V4.2z M8.6,8.2v3.6c-0.8,0.4-1.5,1.1-1.8,2.1
	H6.3v-3.2L8.6,8.2z M15.8,13.9h-1.7V6.1l1.7,1.2V13.9z M6.3,14.7h0.4v0.1c0,1.8,1.4,3.2,3.2,3.2c1.8,0,3.2-1.4,3.2-3.2v-0.1h5.7v3.6
	l0,0H6.4L6.3,14.7z M7.5,14.7c0-0.2,0.1-0.5,0.1-0.7c0.2-0.4,0.5-0.8,0.9-1.1c0.2-0.1,0.5-0.2,0.7-0.3c0.2,0,0.4-0.1,0.5-0.1
	c0.4,0,0.7,0.1,1,0.2c0.3,0.1,0.5,0.3,0.7,0.5c0.2,0.2,0.3,0.4,0.4,0.7c0.1,0.2,0.1,0.5,0.1,0.7v0.1c0,1.3-1,2.5-2.5,2.5
	S7.5,16,7.5,14.7L7.5,14.7L7.5,14.7z M13.4,13.9H13c-0.2-0.7-0.6-1.3-1.3-1.8V8.4l0.5-0.6l1-1.4L13.4,13.9z M11,11.7
	c-0.3-0.1-0.6-0.2-1-0.2c-0.2,0-0.4,0-0.5,0.1V7.8l1.7,0.7v3.2H11z M18.7,13.9h-2.3V7.3L18,4.2h0.7V13.9z M2.6,8.7
	c0-0.1,0.1-0.2,0.2-0.2h2.8v0.6H3.8c-0.2,0-0.4,0.3-0.4,0.5v11.1H2.6V8.7z M24.4,22.7c0,0.2-0.2,0.4-0.4,0.4H1.3
	c-0.2,0-0.4-0.2-0.4-0.4v-1h8.5V22c0,0.4,0.3,0.7,0.7,0.7h5c0.4,0,0.7-0.3,0.7-0.7v-0.3h8.5v1H24.4z"/>
<path class="st0" d="M8.7,14.7c0.1,0.3,0.4,0.4,0.7,0.4h0.7c0.1,0,0.1,0.1,0.1,0.1c0,0.1-0.1,0.1-0.1,0.1H8.9V16h0.5v0.4h0.7V16l0,0
	c0.5,0,0.8-0.4,0.8-0.8c0-0.2-0.1-0.4-0.2-0.6c-0.2-0.2-0.4-0.3-0.6-0.3H9.5c-0.1,0-0.1-0.1-0.1-0.1c0-0.1,0.1-0.1,0.1-0.1h1.3v-0.7
	h-0.5v-0.4H9.5v0.4l0,0c-0.1,0-0.1,0-0.2,0c-0.3,0.1-0.5,0.3-0.6,0.5c0,0.1-0.1,0.2-0.1,0.3v0.1C8.6,14.4,8.6,14.6,8.7,14.7
	L8.7,14.7z"/>
<path class="st0" d="M15.2,15.6h2.9v0.7h-2.9V15.6z"/>
<path class="st0" d="M13.9,16.8h4.2v0.7h-4.2V16.8z"/>
<path class="st0" d="M13.9,15.6h0.7v0.7h-0.7V15.6z"/>
</svg>
