<?xml version="1.0" encoding="utf-8"?>
<!-- Generator: Adobe Illustrator 22.0.1, SVG Export Plug-In . SVG Version: 6.00 Build 0)  -->
<svg version="1.1" id="Layer_1" xmlns="http://www.w3.org/2000/svg" xmlns:xlink="http://www.w3.org/1999/xlink" x="0px" y="0px"
	 viewBox="0 0 700 700" style="enable-background:new 0 0 700 700;" xml:space="preserve">
<style type="text/css">
	.st0{fill:none;}
</style>
<path d="M422.6,447.8l30.3,30.3l36.6-11.8l-55.1-55.1L422.6,447.8z"/>
<path d="M403,497.7l44.7-14.5l-30.2-30.2L403,497.7z"/>
<path d="M693.3,230.1l-22.7-22.7c-4.3-4.3-10.1-6.7-16.2-6.7s-11.9,2.4-16.2,6.7l-16,16l55.1,55.1l16-16c4.3-4.3,6.7-10.1,6.7-16.2
	C700,240.2,697.6,234.4,693.3,230.1L693.3,230.1z"/>
<polygon class="st0" points="525.5,345.9 495.8,375.6 495.8,434.3 525.5,404.6 "/>
<path class="st0" d="M150.1,246.7c-13.2,0-23.5,10-23.5,23.1c0,12.7,10.3,22.8,23.5,22.8c13.2,0,23.5-10,23.5-22.8
	C173.6,256.7,163.4,246.7,150.1,246.7z"/>
<path class="st0" d="M495.8,643.7c0,4.1-3.8,7.6-7.6,7.6H59.9c-4.1,0-7.6-3.5-7.6-7.6l0-490.6c-0.3-3.5,2.7-7.1,6.2-7.6h1.4h62.4
	v-27.7H34l0,0c-6.5,0-11.6,4.9-11.6,11.4v538c0,6.5,5.1,11.9,11.6,11.9l479.8,0c6.5,0,11.6-5.4,11.6-11.9v-237L495.8,460V643.7z"/>
<path class="st0" d="M439.8,405.8l40.7-40.7V160.6h-54.8v8.4c0,4.1-3.8,7.6-7.8,7.6H130c-4.1,0-7.6-3.5-7.6-7.6v-8.4H67.6l0,475.4
	h412.9V390.9l-27.8,27.8L439.8,405.8z M224.8,261.8h1.6l203.1,0c4.1,0,7.6,3.8,7.6,7.9c0,4.1-3.5,7.6-7.6,7.6H226.4
	c-3.8,0.5-7.8-2.7-8.4-6.8C217.5,266.4,220.7,262.3,224.8,261.8z M150.3,565.5c-21.6,0-39.2-17.3-39.2-38.2
	c0-21.1,17.5-38.5,39.2-38.5c21.6,0,39.1,17.4,39.1,38.5C189.4,548.1,171.9,565.5,150.3,565.5z M150.3,436.4
	c-21.6,0-39.2-17.1-39.2-38.2c0-20.9,17.5-38.2,39.2-38.2c21.6,0,39.1,17.4,39.1,38.2C189.4,419.3,171.9,436.4,150.3,436.4z
	 M150.3,307.9c-21.6,0-39.2-17.3-39.2-38.2c0-21.1,17.5-38.2,39.2-38.2c21.6,0,39.1,17.1,39.1,38.2
	C189.4,290.5,171.9,307.9,150.3,307.9z M429.5,534.9H226.4c-3.8,0.3-7.8-3-8.4-6.8c-0.5-4.1,2.7-8.1,6.8-8.7h0.8h0.8l203.1,0
	c4.1,0,7.6,3.8,7.6,7.9C437,531.1,433.5,534.9,429.5,534.9z M429.5,405.8H226.4c-3.8,0.3-7.6-3.3-7.8-7.3c-0.3-3.8,3.2-7.6,7.3-7.9
	c0,0,0,0,0,0l0,0c0,0,0,0,0,0c0.3,0,0.5,0,0.5,0h203.1c4.1,0,7.6,3.5,7.6,7.6C437,402.3,433.5,406,429.5,405.8z"/>
<path class="st0" d="M150.1,375.2c-13.2,0-23.5,10.3-23.5,23c0,12.7,10.3,23.1,23.5,23.1c13.2,0,23.5-10.3,23.5-23.1
	C173.6,385.6,163.4,375.2,150.1,375.2z"/>
<path class="st0" d="M525.5,129.3c0-6.5-5.1-11.4-11.6-11.4h-88.3v27.7h62.7c3.8,0,7.6,3.5,7.6,7.6v196.8l29.7-29.7V129.3z"/>
<path class="st0" d="M410.2,85.1h-61.3c-4.1,0-7.8-3.8-7.8-7.6l0-32.3c0-0.5-1.1-3-5.4-6.2c-4.3-3-11.1-6.5-18.6-9.2
	c-14.8-5.4-33.5-8.9-42.9-8.9c-9.7,0-28.3,3.5-43.5,8.9c-7.6,2.7-14,6.2-18.6,9.2c-4.3,3.2-5.4,5.7-5.4,6.2v32.3
	c0,3.8-3.5,7.6-7.6,7.6h-61.6v76.5l272.7,0V85.1z"/>
<path class="st0" d="M150.1,504.3c-13.2,0-23.5,10-23.5,23c0,12.8,10.3,22.8,23.5,22.8c13.2,0,23.5-10,23.5-22.8
	C173.6,514.4,163.4,504.3,150.1,504.3z"/>
<path d="M226.3,277.3h203.1c4.1,0,7.6-3.5,7.6-7.6c0-4.1-3.5-7.9-7.6-7.9l-203.1,0h-1.6c-4.1,0.5-7.3,4.6-6.8,8.7
	C218.4,274.6,222.5,277.9,226.3,277.3z"/>
<path d="M150.1,360c-21.6,0-39.2,17.4-39.2,38.2c0,21.2,17.6,38.2,39.2,38.2c21.6,0,39.1-17.1,39.1-38.2
	C189.3,377.4,171.7,360,150.1,360z M150.1,421.3c-13.2,0-23.5-10.3-23.5-23.1c0-12.7,10.3-23,23.5-23c13.2,0,23.5,10.3,23.5,23
	C173.6,411,163.4,421.3,150.1,421.3z"/>
<polygon points="225.7,390.7 225.7,390.7 225.7,390.7 "/>
<path d="M429.3,519.5l-203.1,0h-0.8h-0.8c-4.1,0.5-7.3,4.6-6.8,8.7c0.5,3.8,4.6,7.1,8.4,6.8h203.1c4.1,0,7.6-3.8,7.6-7.6
	C436.9,523.3,433.4,519.5,429.3,519.5z"/>
<path d="M150.1,488.9c-21.6,0-39.2,17.4-39.2,38.5c0,20.9,17.6,38.2,39.2,38.2c21.6,0,39.1-17.4,39.1-38.2
	C189.3,506.2,171.7,488.9,150.1,488.9z M150.1,550.2c-13.2,0-23.5-10-23.5-22.8c0-13,10.3-23,23.5-23c13.2,0,23.5,10,23.5,23
	C173.6,540.1,163.4,550.2,150.1,550.2z"/>
<path d="M150.1,231.5c-21.6,0-39.2,17.1-39.2,38.2c0,20.9,17.6,38.2,39.2,38.2c21.6,0,39.1-17.4,39.1-38.2
	C189.3,248.6,171.7,231.5,150.1,231.5z M150.1,292.5c-13.2,0-23.5-10-23.5-22.8c0-13,10.3-23.1,23.5-23.1c13.2,0,23.5,10,23.5,23.1
	C173.6,282.5,163.4,292.5,150.1,292.5z"/>
<polygon points="274.1,20.8 274.1,20.8 274.1,20.8 "/>
<path d="M540.9,304.8l0-175.5c0-14.6-12.4-26.8-27-26.8h-88.3l0-25c0-4.1-3.8-7.9-7.8-7.9h-61.3V45.2c0-8.1-5.4-14.1-11.6-18.4
	c-6.2-4.6-14-8.4-22.4-11.4c-16.7-6-35.6-9.8-48.3-9.8l0,0c-13,0-31.6,3.8-48.3,9.8c-8.4,3-16.2,6.8-22.4,11.4
	c-6.2,4.3-11.9,10.3-11.9,18.4v24.4h-61.6c-4.1,0-7.6,3.8-7.6,7.9v24.9l-88.3,0c-14.9,0-26.7,12.2-26.7,26.8v538
	c0,14.9,11.9,27.1,26.7,27.1h479.8c14.6,0,27-12.2,27-27.1l0-252.4l-15.4,15.4v237c0,6.5-5.1,11.9-11.6,11.9l-479.8,0
	c-6.5,0-11.6-5.4-11.6-11.9v-538c0-6.5,5.1-11.4,11.6-11.4l0,0h88.3v27.7H59.9h-1.4c-3.5,0.5-6.5,4.1-6.2,7.6l0,490.6
	c0,4.1,3.5,7.6,7.6,7.6h428.3c3.8,0,7.6-3.5,7.6-7.6V460l-1,1l-12.9-12.9l13.9-13.9V422c-4.8,5-10,9.8-15.4,14.2v199.9H67.5l0-475.4
	h54.8v8.4c0,4.1,3.5,7.6,7.6,7.6h287.9c4.1,0,7.8-3.5,7.8-7.6v-8.4h54.8v204.6l15.4-15.4V153.1c0-4.1-3.8-7.6-7.6-7.6h-62.7v-27.7
	h88.3c6.5,0,11.6,4.9,11.6,11.4v191L540.9,304.8z M410.2,161.5l-272.7,0V85.1H199c4,0,7.6-3.8,7.6-7.6V45.2c0-0.5,1.1-3,5.4-6.2
	c4.6-3,11.1-6.5,18.6-9.2c15.1-5.4,33.7-8.9,43.5-8.9c0,0,0,0,0,0l0,0c0,0,0,0,0,0c9.5,0,28.1,3.5,42.9,8.9
	c7.6,2.7,14.3,6.2,18.6,9.2c4.3,3.2,5.4,5.7,5.4,6.2l0,32.3c0,3.8,3.8,7.6,7.8,7.6h61.3V161.5z"/>
<path d="M429.3,390.7H226.3c0,0-0.3,0-0.5,0c-4.1,0.3-7.6,4.1-7.3,7.9c0.3,4.1,4.1,7.6,7.8,7.3h203.1c4.1,0.3,7.6-3.5,7.6-7.6
	C436.9,394.2,433.4,390.7,429.3,390.7z"/>
<polygon points="672.1,283.7 659.2,270.8 540.9,389.2 540.9,414.9 "/>
<polygon points="495.8,434.3 495.8,460 525.5,430.3 525.5,404.6 "/>
<polygon points="525.5,430.3 540.9,414.9 540.9,389.2 525.5,404.6 "/>
<polygon points="481.9,448.1 494.8,461 495.8,460 495.8,434.3 "/>
<polygon points="629.9,241.5 617,228.7 540.9,304.8 540.9,330.5 "/>
<polygon points="439.7,406 452.6,418.8 480.4,391 480.4,365.3 "/>
<polygon points="525.5,320.2 495.8,349.9 495.8,375.6 525.5,345.9 "/>
<polygon points="525.5,345.9 540.9,330.5 540.9,304.8 525.5,320.2 "/>
<polygon points="480.4,365.3 480.4,391 495.8,375.6 495.8,349.9 "/>
</svg>
