<svg width="465" height="341" viewBox="0 0 465 341" fill="none" xmlns="http://www.w3.org/2000/svg">
<path d="M413.58 256.7H245.52C244.075 256.698 242.691 256.123 241.669 255.101C240.648 254.08 240.073 252.695 240.07 251.25V6.39999C240.075 4.95698 240.651 3.57461 241.672 2.55512C242.694 1.53562 244.077 0.961938 245.52 0.959488H413.58C415.023 0.961938 416.407 1.53562 417.428 2.55512C418.449 3.57461 419.025 4.95698 419.03 6.39999V251.25C419.028 252.695 418.453 254.08 417.431 255.101C416.41 256.123 415.025 256.698 413.58 256.7ZM245.52 1.19199C244.832 1.18708 244.151 1.3181 243.514 1.57752C242.877 1.83694 242.298 2.21963 241.81 2.70361C241.322 3.18758 240.934 3.76329 240.669 4.39764C240.404 5.03199 240.267 5.71248 240.265 6.39999V251.25C240.265 252.634 240.815 253.961 241.794 254.94C242.772 255.918 244.099 256.468 245.483 256.468H413.58C414.964 256.468 416.291 255.918 417.269 254.94C418.248 253.961 418.798 252.634 418.798 251.25V6.39999C418.798 5.01627 418.248 3.68924 417.269 2.7108C416.291 1.73237 414.964 1.18269 413.58 1.18269L245.52 1.19199Z" fill="#F0F0F0"/>
<path d="M219.74 256.7H51.6429C50.1983 256.698 48.8135 256.123 47.792 255.101C46.7705 254.08 46.1956 252.695 46.1931 251.25V6.4C46.1956 4.95537 46.7705 3.57063 47.792 2.54912C48.8135 1.52762 50.1983 0.952654 51.6429 0.950195H219.74C221.185 0.952654 222.57 1.52762 223.591 2.54912C224.613 3.57063 225.188 4.95537 225.19 6.4V251.25C225.188 252.695 224.613 254.08 223.591 255.101C222.57 256.123 221.185 256.698 219.74 256.7ZM51.6429 1.192C50.2608 1.192 48.9352 1.7404 47.957 2.71682C46.9788 3.69324 46.4281 5.01789 46.4256 6.4V251.25C46.4256 252.634 46.9753 253.961 47.9537 254.94C48.9322 255.918 50.2592 256.468 51.6429 256.468H219.74C221.124 256.468 222.451 255.918 223.43 254.94C224.408 253.961 224.958 252.634 224.958 251.25V6.4C224.958 5.01628 224.408 3.68924 223.43 2.71081C222.451 1.73238 221.124 1.1827 219.74 1.1827L51.6429 1.192Z" fill="#F0F0F0"/>
<path d="M465 313.495H0V313.728H465V313.495Z" fill="#F0F0F0"/>
<path d="M82.2492 177.036L85.4019 178.459L79.9056 190.754L83.8023 198.752L78.5478 206.685L80.8356 213.678L76.8552 206.034L81.096 198.947L77.1156 190.54L82.2492 177.036Z" fill="#407BFF"/>
<path d="M82.2492 177.036L85.4019 178.459L79.9056 190.754L83.8023 198.752L78.5478 206.685L80.8356 213.678L76.8552 206.034L81.096 198.947L77.1156 190.54L82.2492 177.036Z" fill="#E0E0E0"/>
<path d="M108.81 211C108.745 211.344 108.671 211.688 108.596 212.032C107.472 216.835 105.125 221.266 101.782 224.893C98.4396 228.521 94.2156 231.222 89.5206 232.735C84.8255 234.247 79.819 234.52 74.9875 233.526C70.156 232.531 65.6638 230.304 61.9474 227.061C60.2583 225.573 58.7477 223.894 57.4462 222.058C57.0556 221.49 56.6743 220.923 56.3209 220.337C54.7586 217.742 53.6131 214.918 52.9264 211.967C52.7962 211.391 52.6846 210.814 52.5823 210.219C51.9653 206.511 52.0918 202.717 52.9543 199.059C53.0287 198.715 53.1217 198.38 53.2147 198.036C54.9262 191.734 58.7466 186.208 64.0386 182.382C69.3307 178.556 75.7746 176.659 82.2958 177.008L80.1289 182.709L79.357 184.765L77.125 190.54L78.148 192.725L78.6967 193.888L81.031 198.826L81.0961 198.947L80.3335 200.221L80.0731 200.658L79.636 201.393L76.846 206.043L77.311 206.927L78.241 208.721L79.543 211.232L80.2777 212.646L80.8171 213.688L80.7148 212.693L80.5939 211.409L80.4358 209.754L80.287 208.349L80.1289 206.694L82.4632 203.448L83.1886 202.444L84.4255 200.723L85.1602 199.7L86.8342 197.375L82.5283 190.54L82.4167 190.363L82.0726 189.833L82.6957 189.173L82.8073 189.043L82.9096 188.95L86.1367 185.509L87.7456 183.797L91.9957 179.278C93.8182 180.055 95.5544 181.022 97.1758 182.161C97.7338 182.561 98.2825 182.979 98.8126 183.416C101.127 185.301 103.127 187.543 104.737 190.056C105.09 190.614 105.425 191.163 105.741 191.74C106.872 193.795 107.747 195.981 108.345 198.25C108.969 200.617 109.282 203.056 109.275 205.504C109.299 207.347 109.143 209.187 108.81 211Z" fill="#407BFF"/>
<path d="M108.81 211C108.745 211.344 108.671 211.688 108.596 212.032C107.472 216.835 105.125 221.266 101.782 224.893C98.4396 228.521 94.2156 231.222 89.5206 232.735C84.8255 234.247 79.819 234.52 74.9875 233.526C70.156 232.531 65.6638 230.304 61.9474 227.061C60.2583 225.573 58.7477 223.894 57.4462 222.058C57.0556 221.49 56.6743 220.923 56.3209 220.337C54.7586 217.742 53.6131 214.918 52.9264 211.967C52.7962 211.391 52.6846 210.814 52.5823 210.219C51.9653 206.511 52.0918 202.717 52.9543 199.059C53.0287 198.715 53.1217 198.38 53.2147 198.036C54.9262 191.734 58.7466 186.208 64.0386 182.382C69.3307 178.556 75.7746 176.659 82.2958 177.008L80.1289 182.709L79.357 184.765L77.125 190.54L78.148 192.725L78.6967 193.888L81.031 198.826L81.0961 198.947L80.3335 200.221L80.0731 200.658L79.636 201.393L76.846 206.043L77.311 206.927L78.241 208.721L79.543 211.232L80.2777 212.646L80.8171 213.688L80.7148 212.693L80.5939 211.409L80.4358 209.754L80.287 208.349L80.1289 206.694L82.4632 203.448L83.1886 202.444L84.4255 200.723L85.1602 199.7L86.8342 197.375L82.5283 190.54L82.4167 190.363L82.0726 189.833L82.6957 189.173L82.8073 189.043L82.9096 188.95L86.1367 185.509L87.7456 183.797L91.9957 179.278C93.8182 180.055 95.5544 181.022 97.1758 182.161C97.7338 182.561 98.2825 182.979 98.8126 183.416C101.127 185.301 103.127 187.543 104.737 190.056C105.09 190.614 105.425 191.163 105.741 191.74C106.872 193.795 107.747 195.981 108.345 198.25C108.969 200.617 109.282 203.056 109.275 205.504C109.299 207.347 109.143 209.187 108.81 211Z" fill="#F5F5F5"/>
<path d="M80.0823 182.737L79.3104 184.793C74.5003 184.998 69.8776 186.716 66.1005 189.702C62.3235 192.687 59.5846 196.788 58.2738 201.421C58.3389 201.077 58.4133 200.733 58.4877 200.389C59.6378 195.477 62.3788 191.084 66.2842 187.892C70.1896 184.699 75.0405 182.887 80.0823 182.737Z" fill="#E0E0E0"/>
<path d="M102.96 210.73C102.877 211.084 102.793 211.418 102.709 211.753C102.812 211.186 102.886 210.619 102.951 210.051C103.49 204.964 102.308 199.843 99.5937 195.506C99.2496 194.957 98.8776 194.409 98.4963 193.897C96.6702 191.461 94.3744 189.415 91.7445 187.88C91.0935 187.499 90.4239 187.146 89.7357 186.829C88.5701 186.304 87.3632 185.874 86.1273 185.546L87.7455 183.835C93.1871 185.601 97.7688 189.343 100.586 194.322C103.403 199.302 104.25 205.157 102.96 210.73Z" fill="#E0E0E0"/>
<path d="M102.709 211.753C101.11 217.403 97.397 222.221 92.3411 225.208C87.2852 228.195 81.2738 229.122 75.5532 227.796C75.2742 227.74 75.0231 227.675 74.7627 227.601L73.9815 227.368L73.7862 227.312L72.9492 227.024H72.8283C71.9376 226.696 71.0679 226.314 70.2243 225.88C69.9453 225.731 69.6663 225.582 69.3966 225.424C68.8386 225.108 68.3085 224.773 67.797 224.42L67.2948 224.066L67.0344 223.871C66.8949 223.778 66.774 223.667 66.6438 223.574L66.03 223.09C65.7789 222.885 65.5371 222.662 65.3046 222.448C65.0721 222.234 64.8303 222.011 64.6071 221.788L64.0491 221.202C63.9375 221.081 63.8166 220.96 63.705 220.821L63.426 220.514L63.1098 220.142L62.6262 219.528C62.4867 219.342 62.3472 219.165 62.217 218.97C62.1837 218.932 62.1527 218.891 62.124 218.849C61.938 218.589 61.752 218.319 61.5753 218.04C61.3986 217.761 61.2498 217.519 61.0917 217.259L60.8127 216.775C60.7197 216.617 60.636 216.44 60.5523 216.282L60.3012 215.808C60.2175 215.631 60.1338 215.464 60.0594 215.287C59.985 215.111 59.9013 214.952 59.8176 214.776C59.7339 214.599 59.6781 214.441 59.6037 214.264C59.4549 213.92 59.3247 213.558 59.1945 213.186C59.1387 213.037 59.0922 212.888 59.0457 212.739C58.9155 212.367 58.8132 211.995 58.7109 211.623C58.6576 211.418 58.6172 211.21 58.59 211C58.4412 210.433 58.3203 209.847 58.2273 209.261C58.2273 209.103 58.2273 208.945 58.1529 208.787C58.1529 208.442 58.0599 208.089 58.0227 207.736V207.689C58.0227 207.336 57.9576 206.982 57.9483 206.629V206.127C57.9438 206.046 57.9438 205.966 57.9483 205.885C57.939 205.712 57.939 205.538 57.9483 205.364V205.281C57.9483 205.085 57.9483 204.881 57.9483 204.685C57.9483 204.49 57.9483 204.248 57.9483 204.025C57.9483 203.802 57.9483 203.597 57.9483 203.374C57.9483 203.151 57.9483 203.03 58.0041 202.853V202.528C58.0166 202.372 58.0383 202.216 58.0692 202.063L58.1808 201.412C59.4916 196.779 62.2305 192.678 66.0075 189.692C69.7846 186.707 74.4072 184.989 79.2174 184.783L77.1249 190.54L78.1479 192.726L78.6966 193.888L81.0309 198.826L81.096 198.947L80.3334 200.221L80.073 200.658L79.6359 201.393L76.8459 206.043L77.3109 206.927L78.2409 208.721L79.5429 211.232L80.2776 212.646L80.817 213.688L80.7147 212.693L80.5938 211.409L80.4357 209.754L80.2869 208.349L80.1288 206.694L82.4631 203.448L83.1885 202.444L84.4254 200.724L85.1601 199.701L86.8341 197.376L82.5282 190.54L82.4166 190.363L82.0725 189.833L82.6956 189.173L82.8072 189.043L82.9095 188.95L86.1366 185.509C87.3698 185.848 88.5734 186.286 89.7357 186.82C90.4239 187.136 91.0935 187.49 91.7445 187.871C94.3744 189.406 96.6701 191.451 98.4963 193.888C98.8776 194.4 99.2496 194.948 99.5937 195.497C102.314 199.841 103.497 204.973 102.951 210.07C102.886 210.619 102.811 211.186 102.709 211.753Z" fill="#F0F0F0"/>
<path d="M90.6006 211.632C90.768 206.917 85.8018 204.964 82.4817 203.439L80.1474 206.685L80.3055 208.34L80.4543 209.744C81.1926 210.046 81.8491 210.517 82.3701 211.121C82.4441 211.23 82.4953 211.353 82.5209 211.482C82.5464 211.612 82.5458 211.745 82.5189 211.874C82.3794 212.451 81.8679 212.758 80.7333 212.683L80.8356 213.678L80.2962 212.637C79.9234 212.592 79.5537 212.524 79.1895 212.432C76.4989 211.761 74.0244 210.413 72.0006 208.517L68.7549 212.86L68.1411 213.688C70.4037 215.699 73.099 217.163 76.0182 217.966L76.1484 218.012L75.609 220.3L75.33 221.528L79.98 222.625L80.8356 218.905C86.2017 219.212 89.5311 216.682 90.3588 213.083C90.4919 212.61 90.5729 212.123 90.6006 211.632ZM81.0309 198.826L78.6966 193.888C74.865 194.372 72.4935 196.604 71.7867 199.626V199.812C70.7637 204.778 74.865 207.066 78.2967 208.684L77.3667 206.889L76.9017 206.006L79.6917 201.356C79.6639 201.237 79.6639 201.112 79.6917 200.993C79.7399 200.787 79.8427 200.597 79.9893 200.444C80.1069 200.336 80.2421 200.248 80.3892 200.184L81.096 198.91L81.0309 198.826ZM92.3118 197.98C90.5712 196.605 88.6 195.55 86.49 194.864L86.769 193.646L87.3177 191.312H87.1875L82.6305 190.242L82.5468 190.605L86.8713 197.394L85.1973 199.719L84.4626 200.742C86.1604 201.4 87.7331 202.344 89.1126 203.532L92.8326 198.389L92.3118 197.98Z" fill="#E0E0E0"/>
<path d="M83.2071 202.435L82.4817 203.439L80.1474 206.685L80.3055 208.34C81.8307 209.075 82.863 209.744 82.6677 210.619C82.629 210.815 82.5239 210.993 82.3701 211.121C82.1098 211.281 81.8206 211.387 81.519 211.435C81.2174 211.483 80.9094 211.471 80.6124 211.4L80.7333 212.683L80.8356 213.678L80.2962 212.637L79.5615 211.223L79.3383 211.177C76.6526 210.503 74.1801 209.163 72.1494 207.28L68.2899 212.414C68.4387 212.553 68.5875 212.702 68.7549 212.841C70.9816 214.637 73.5512 215.96 76.3065 216.729L76.0182 217.947L75.4788 220.263H75.609L80.1753 221.323L81.0309 217.603C86.397 217.91 89.7264 215.38 90.5634 211.781V211.595C91.7166 206.285 86.7876 204.062 83.2071 202.435ZM79.7847 199.766C79.8963 199.291 80.259 198.929 81.0309 198.836L78.6966 193.897L78.12 192.726C76.3861 192.961 74.7928 193.807 73.6255 195.11C72.4583 196.414 71.7932 198.091 71.7495 199.84C71.6193 203.476 74.4837 205.476 77.3295 206.917L76.8645 206.034L79.6545 201.384L80.0916 200.649C80.0358 200.593 79.9986 200.528 79.9521 200.472C79.8746 200.374 79.8195 200.259 79.7906 200.137C79.7617 200.015 79.7597 199.889 79.7847 199.766ZM86.7504 193.646H86.6202L87.1689 191.321L87.4479 190.084L82.9095 189.024L82.8072 189.117L82.6956 189.247L82.4166 190.438L82.5282 190.614L86.8527 197.403L85.1787 199.728C86.6621 200.363 88.044 201.212 89.28 202.249L92.349 197.961L92.9628 197.106C91.1424 195.551 89.0305 194.375 86.7504 193.646Z" fill="#F5F5F5"/>
<path d="M361.035 59.9122L364.383 59.0938L367.657 72.1603L375.664 76.0384L376.427 85.5151L382.555 89.6071L374.697 86.0545L373.655 77.8705L365.341 73.7134L361.035 59.9122Z" fill="#407BFF"/>
<path d="M361.035 59.9122L364.383 59.0938L367.657 72.1603L375.664 76.0384L376.427 85.5151L382.555 89.6071L374.697 86.0545L373.655 77.8705L365.341 73.7134L361.035 59.9122Z" fill="#E0E0E0"/>
<path d="M402.857 70.2445C403.025 70.57 403.183 70.8862 403.332 71.1745C405.421 75.6453 406.316 80.5809 405.93 85.5005C405.545 90.4201 403.891 95.1559 401.131 99.2466C398.371 103.337 394.599 106.643 390.182 108.843C385.764 111.042 380.852 112.06 375.925 111.797C373.677 111.671 371.452 111.284 369.294 110.644C368.633 110.448 367.992 110.225 367.35 109.983C364.518 108.916 361.874 107.402 359.519 105.501C359.054 105.129 358.589 104.747 358.162 104.338C355.396 101.807 353.158 98.7541 351.577 95.3545C351.428 95.0383 351.28 94.7221 351.149 94.4245C348.603 88.4085 348.196 81.7017 349.994 75.4216C351.793 69.1416 355.69 63.6677 361.035 59.9122L362.895 65.7433L363.556 67.8358L365.416 73.7134L367.573 74.7922L368.717 75.3688L373.609 77.8054L373.73 77.8705L373.916 79.3306L373.981 79.8421L374.093 80.6884L374.771 86.0545L375.701 86.4637L377.561 87.2914L380.147 88.4632L381.598 89.1235L382.667 89.6071L381.97 88.8817L381.04 87.9517L379.896 86.752L378.919 85.7383L377.766 84.5293L377.599 80.5396L377.552 79.3027L377.459 77.1823L377.403 75.9268L377.282 73.0624L369.684 70.4026L369.498 70.3282L368.894 70.1236L368.978 69.1936V69.0169V68.8774L369.387 64.2274L369.601 61.8838L370.14 55.69C372.056 55.1794 374.019 54.8677 375.999 54.76C376.687 54.76 377.375 54.7135 378.064 54.76C381.048 54.8191 384.004 55.3463 386.824 56.3224C387.438 56.5456 388.052 56.7688 388.684 57.0292C393.084 58.8996 396.941 61.8486 399.9 65.6038C401.034 67.0512 402.024 68.6054 402.857 70.2445Z" fill="#407BFF"/>
<path d="M402.857 70.2445C403.025 70.57 403.183 70.8862 403.332 71.1745C405.421 75.6453 406.316 80.5809 405.93 85.5005C405.545 90.4201 403.891 95.1559 401.131 99.2466C398.371 103.337 394.599 106.643 390.182 108.843C385.764 111.042 380.852 112.06 375.925 111.797C373.677 111.671 371.452 111.284 369.294 110.644C368.633 110.448 367.992 110.225 367.35 109.983C364.518 108.916 361.874 107.402 359.519 105.501C359.054 105.129 358.589 104.747 358.162 104.338C355.396 101.807 353.158 98.7541 351.577 95.3545C351.428 95.0383 351.28 94.7221 351.149 94.4245C348.603 88.4085 348.196 81.7017 349.994 75.4216C351.793 69.1416 355.69 63.6677 361.035 59.9122L362.895 65.7433L363.556 67.8358L365.416 73.7134L367.573 74.7922L368.717 75.3688L373.609 77.8054L373.73 77.8705L373.916 79.3306L373.981 79.8421L374.093 80.6884L374.771 86.0545L375.701 86.4637L377.561 87.2914L380.147 88.4632L381.598 89.1235L382.667 89.6071L381.97 88.8817L381.04 87.9517L379.896 86.752L378.919 85.7383L377.766 84.5293L377.599 80.5396L377.552 79.3027L377.459 77.1823L377.403 75.9268L377.282 73.0624L369.684 70.4026L369.498 70.3282L368.894 70.1236L368.978 69.1936V69.0169V68.8774L369.387 64.2274L369.601 61.8838L370.14 55.69C372.056 55.1794 374.019 54.8677 375.999 54.76C376.687 54.76 377.375 54.7135 378.064 54.76C381.048 54.8191 384.004 55.3463 386.824 56.3224C387.438 56.5456 388.052 56.7688 388.684 57.0292C393.084 58.8996 396.941 61.8486 399.9 65.6038C401.034 67.0512 402.024 68.6054 402.857 70.2445Z" fill="#F5F5F5"/>
<path d="M362.849 65.7433L363.509 67.8358C359.86 70.9667 357.29 75.1674 356.163 79.8416C355.036 84.5157 355.41 89.4261 357.232 93.8758C357.074 93.5596 356.915 93.2527 356.767 92.9458C354.641 88.3752 354.084 83.2302 355.184 78.3108C356.284 73.3914 358.979 68.9732 362.849 65.7433Z" fill="#E0E0E0"/>
<path d="M398.133 73.6297C398.282 73.9552 398.431 74.2714 398.561 74.5597C398.291 74.0482 398.003 73.546 397.705 73.0717C394.987 68.737 390.894 65.4394 386.08 63.7066C385.466 63.4834 384.843 63.2881 384.22 63.1114C381.28 62.3296 378.213 62.1399 375.199 62.5534C374.455 62.6557 373.702 62.7952 372.967 62.9719C371.725 63.2727 370.512 63.6803 369.34 64.1902L369.554 61.8466C374.928 59.8739 380.846 59.99 386.138 62.172C391.431 64.354 395.711 68.4428 398.133 73.6297Z" fill="#E0E0E0"/>
<path d="M398.561 74.5876C400.793 80.0179 400.85 86.0987 398.72 91.57C396.591 97.0412 392.438 101.483 387.122 103.976C386.861 104.096 386.629 104.208 386.378 104.31C386.127 104.413 385.876 104.524 385.615 104.617L385.429 104.692L384.592 104.98L384.481 105.027C383.566 105.318 382.635 105.551 381.691 105.724C381.384 105.789 381.067 105.845 380.761 105.882C380.128 105.975 379.505 106.04 378.901 106.077H378.287H376.724C376.399 106.077 376.073 106.077 375.794 106.022L374.864 105.929L374.065 105.817L373.553 105.733L373.153 105.659L372.67 105.557L371.916 105.38C371.684 105.324 371.47 105.268 371.247 105.194H371.098L370.168 104.896C369.88 104.803 369.591 104.692 369.303 104.58C369.126 104.506 368.959 104.431 368.782 104.376L368.271 104.143L367.787 103.92C367.62 103.836 367.443 103.762 367.276 103.669L366.773 103.408L366.29 103.139C365.955 102.962 365.629 102.757 365.295 102.543L364.904 102.283C364.583 102.075 364.273 101.852 363.974 101.613C363.818 101.512 363.668 101.4 363.528 101.279C363.056 100.92 362.603 100.539 362.17 100.135L361.816 99.8092L361.063 99.0559C360.831 98.7955 360.589 98.5351 360.356 98.2654C360.254 98.1445 360.133 98.0143 360.031 97.8841C359.929 97.7539 359.929 97.7632 359.882 97.6888L359.547 97.2889C359.537 97.2638 359.521 97.2414 359.501 97.2238C359.378 97.0687 359.263 96.9072 359.157 96.7402C359.018 96.5687 358.891 96.3885 358.775 96.2008C358.644 96.0284 358.523 95.8482 358.413 95.6614C358.31 95.5126 358.217 95.3638 358.124 95.215L357.966 94.9267L357.724 94.5268C357.622 94.3222 357.52 94.1362 357.408 93.9409C355.587 89.4912 355.213 84.5808 356.34 79.9067C357.467 75.2325 360.037 71.0319 363.686 67.9009L365.546 73.7785L367.703 74.8573L368.847 75.4339L373.739 77.8705L373.86 77.9356L374.046 79.3957L374.111 79.9072L374.223 80.7535L374.902 86.1196L375.832 86.5288L377.692 87.3565L380.277 88.5283L381.728 89.1886L382.797 89.6722L382.1 88.9468L381.17 88.0168L380.026 86.8171L379.049 85.8034L377.896 84.5944L377.729 80.6047L377.682 79.3678L377.589 77.2474L377.533 75.9919L377.413 73.1275L369.814 70.4677L369.628 70.3933L369.024 70.1887L369.108 69.2587V69.082V68.9425L369.517 64.2925C370.689 63.7826 371.902 63.375 373.144 63.0742C373.879 62.8975 374.632 62.758 375.376 62.6557C378.39 62.2422 381.457 62.4319 384.397 63.2137C385.02 63.3904 385.652 63.5857 386.257 63.7996C391.069 65.5405 395.161 68.8402 397.882 73.174C398.04 73.5739 398.291 74.0761 398.561 74.5876Z" fill="#F0F0F0"/>
<path d="M388.973 81.9718C386.183 78.1681 381.086 79.6933 377.534 80.5489L377.701 84.5293L378.854 85.7383L379.831 86.752C380.599 86.5339 381.408 86.4988 382.193 86.6497C382.319 86.6877 382.436 86.7522 382.535 86.8388C382.635 86.9254 382.714 87.0321 382.769 87.1519C383.02 87.6913 382.769 88.2493 381.839 88.8817L382.537 89.6071L381.486 89.17C381.164 89.3609 380.831 89.5347 380.491 89.6908C377.959 90.8222 375.182 91.2926 372.419 91.0579L372.53 96.4426V97.4749C375.554 97.6553 378.579 97.1432 381.374 95.9776L381.505 95.9311L382.5 98.0608L383.03 99.2047L387.401 97.168L385.792 93.727C390.2 90.658 391.251 86.6125 389.689 83.2738C389.495 82.8166 389.255 82.3804 388.973 81.9718ZM373.534 77.8054L368.643 75.3688C365.936 78.1588 365.444 81.3301 366.783 84.148L366.866 84.3154C369.126 88.8538 373.767 88.1191 377.468 87.2635L375.608 86.4358L374.678 86.0266L373.999 80.6605C373.906 80.5849 373.83 80.4896 373.776 80.3815C373.687 80.1867 373.652 79.9715 373.674 79.7584C373.701 79.6 373.751 79.4464 373.823 79.3027L373.637 77.8426L373.534 77.8054ZM381.904 70.1701C379.682 70.1608 377.476 70.5546 375.394 71.3326L374.864 70.2073L373.841 68.0311L373.73 68.0869L369.48 70.0585L369.638 70.4026L377.236 73.0624L377.357 75.9268L377.413 77.1823C379.156 76.6532 380.977 76.4267 382.797 76.5127L382.518 70.1887L381.904 70.1701Z" fill="#E0E0E0"/>
<path d="M377.478 79.3027L377.524 80.5396L377.692 84.5293L378.845 85.7383C380.491 85.3756 381.719 85.264 382.1 86.0638C382.187 86.2461 382.216 86.4504 382.184 86.6497C382.1 87.0496 381.728 87.4774 380.965 87.9517L381.895 88.8817L382.593 89.6071L381.486 89.17L380.035 88.5097L379.831 88.612C377.298 89.7402 374.521 90.2074 371.758 89.9698L371.888 96.3961L372.53 96.4426C375.4 96.4884 378.249 95.9439 380.9 94.843L381.43 95.9776L382.435 98.1259L382.556 98.0608L386.796 96.0799L385.187 92.6482C389.596 89.5699 390.656 85.5244 389.093 82.1857L389 82.009C386.545 77.08 381.3 78.3727 377.478 79.3027ZM373.135 79.3027C373.024 79.0413 373.004 78.7508 373.076 78.4766C373.149 78.2023 373.31 77.9597 373.535 77.7868L368.643 75.3502L367.499 74.7736C366.461 75.8507 365.771 77.2158 365.521 78.6907C365.27 80.1656 365.47 81.6818 366.095 83.0413C366.297 83.4853 366.546 83.9063 366.839 84.2968C368.987 87.2449 372.474 87.0403 375.599 86.4172L374.669 86.008L373.99 80.6419L373.879 79.7956L373.665 79.7398C373.552 79.7112 373.446 79.6592 373.355 79.5871C373.264 79.515 373.189 79.4244 373.135 79.3213V79.3027ZM374.837 70.1887H374.706L373.702 68.0218L373.153 66.8686L368.931 68.8402V68.9797V69.1564L369.452 70.2631L369.638 70.3375L377.236 72.9973L377.357 75.8617C378.915 75.4661 380.522 75.297 382.128 75.3595L381.895 70.105V69.0448C379.488 68.9501 377.086 69.3456 374.837 70.2073V70.1887Z" fill="#F5F5F5"/>
<path d="M385.178 32.1517C383.402 28.0225 378.938 20.3128 369.721 18.2017C361.277 16.2766 354.907 26.9437 349.671 27.7342C344.435 28.5247 345.021 26.1625 334.558 22.2286C325.602 18.8713 319.604 27.604 317.483 32.1517H385.178Z" fill="#F5F5F5"/>
<path d="M116.91 94.1734C116.91 94.1734 116.91 86.473 109.349 86.1568C105.741 85.9987 101.323 88.9468 98.5335 84.2968C95.2971 78.8656 89.6334 75.6292 84.5835 77.731C78.957 80.056 75.7578 88.9561 70.2615 88.2307C64.7652 87.5053 54.2655 83.8411 48.8715 94.192L116.91 94.1734Z" fill="#F5F5F5"/>
<path d="M412.167 163.012C412.167 163.012 412.167 155.321 404.606 154.995C400.988 154.847 396.58 157.785 393.79 153.135C390.554 147.695 384.89 144.458 379.793 146.57C374.158 148.885 370.968 157.795 365.471 157.06C359.975 156.325 349.475 152.67 344.081 163.021L412.167 163.012Z" fill="#F5F5F5"/>
<path d="M230.166 340.884C339.054 340.884 427.326 338.356 427.326 335.239C427.326 332.121 339.054 329.594 230.166 329.594C121.277 329.594 33.0057 332.121 33.0057 335.239C33.0057 338.356 121.277 340.884 230.166 340.884Z" fill="#F0F0F0"/>
<path d="M221.07 283.791V274.956C221.071 274.883 221.058 274.811 221.031 274.743C221.004 274.676 220.964 274.614 220.913 274.562C220.862 274.51 220.801 274.469 220.734 274.441C220.666 274.413 220.594 274.398 220.521 274.398H215.76V272.975H220.559C221.083 272.978 221.586 273.187 221.957 273.558C222.328 273.929 222.537 274.431 222.54 274.956V283.791H221.07Z" fill="#263238"/>
<path d="M187.916 274.956V283.791H186.484V274.956C186.486 274.431 186.695 273.929 187.066 273.558C187.437 273.187 187.94 272.978 188.464 272.975H193.263V274.398H188.464C188.318 274.401 188.178 274.46 188.076 274.565C187.973 274.669 187.916 274.81 187.916 274.956Z" fill="#263238"/>
<path d="M167.688 287.53V332.095C167.688 333.082 168.08 334.028 168.778 334.726C169.475 335.423 170.422 335.815 171.408 335.815H235.736C236.723 335.815 237.669 335.423 238.367 334.726C239.064 334.028 239.456 333.082 239.456 332.095V287.53C239.456 286.543 239.064 285.597 238.367 284.899C237.669 284.202 236.723 283.81 235.736 283.81H171.436C170.945 283.806 170.459 283.899 170.004 284.085C169.549 284.27 169.136 284.544 168.788 284.889C168.439 285.235 168.163 285.646 167.974 286.1C167.785 286.553 167.688 287.039 167.688 287.53Z" fill="#407BFF"/>
<g opacity="0.3">
<path d="M167.688 287.53V332.095C167.688 333.082 168.08 334.028 168.778 334.726C169.475 335.423 170.422 335.815 171.408 335.815H235.736C236.723 335.815 237.669 335.423 238.367 334.726C239.064 334.028 239.456 333.082 239.456 332.095V287.53C239.456 286.543 239.064 285.597 238.367 284.899C237.669 284.202 236.723 283.81 235.736 283.81H171.436C170.945 283.806 170.459 283.899 170.004 284.085C169.549 284.27 169.136 284.544 168.788 284.889C168.439 285.235 168.163 285.646 167.974 286.1C167.785 286.553 167.688 287.039 167.688 287.53Z" fill="white"/>
</g>
<path d="M179.983 283.791H177.128V335.853H179.983V283.791Z" fill="#263238"/>
<path d="M230.073 283.791H227.218V335.853H230.073V283.791Z" fill="#263238"/>
<path d="M191.794 276.063H217.704V271.311H191.794V276.063Z" fill="#407BFF"/>
<path d="M262.409 279.216L266.11 279.309L265.803 293.751L272.992 300.029L271.114 310.054L276.294 316.016L269.17 310.119L270.398 301.359L262.967 294.7L262.409 279.216Z" fill="#407BFF"/>
<path opacity="0.6" d="M262.409 279.216L266.11 279.309L265.803 293.751L272.992 300.029L271.114 310.054L276.294 316.016L269.17 310.119L270.398 301.359L262.967 294.7L262.409 279.216Z" fill="black"/>
<path d="M302.771 301.721C302.854 302.093 302.929 302.465 302.985 302.837C303.994 308.659 303.297 314.649 300.979 320.084C298.661 325.519 294.82 330.167 289.92 333.468C285.019 336.769 279.268 338.582 273.36 338.689C267.453 338.795 261.64 337.19 256.624 334.067C256.001 333.676 255.387 333.267 254.764 332.839C252.137 330.931 249.83 328.617 247.929 325.985C247.557 325.474 247.194 324.944 246.85 324.404C244.706 321 243.253 317.209 242.572 313.244C242.504 312.872 242.448 312.5 242.404 312.128C241.479 305.186 242.956 298.137 246.59 292.15C250.224 286.163 255.796 281.599 262.381 279.215L262.613 285.725L262.706 288.078L262.939 294.672L264.873 296.402L265.896 297.332L270.258 301.238L270.37 301.34L270.146 302.903L270.081 303.451L269.951 304.381L269.142 310.119L269.96 310.808L271.634 312.184L273.978 314.118L275.299 315.216L276.229 316.016L275.708 315.086L275.057 313.867L274.201 312.296L273.476 310.975L272.629 309.403L273.559 305.228L273.848 303.935L274.359 301.712L274.657 300.392L275.345 297.397L268.231 292.496L268.054 292.366L267.496 291.984L267.831 291.054L267.886 290.878L267.942 290.738L269.7 286.004L270.574 283.642L272.89 277.393C275.016 277.404 277.136 277.637 279.214 278.09C279.939 278.248 280.655 278.425 281.362 278.639C284.431 279.546 287.34 280.926 289.983 282.731C290.56 283.131 291.127 283.54 291.676 283.977C293.645 285.531 295.419 287.317 296.958 289.297C298.56 291.375 299.888 293.651 300.911 296.067C301.718 297.885 302.341 299.779 302.771 301.721Z" fill="#407BFF"/>
<path d="M302.771 301.721C302.854 302.093 302.929 302.465 302.985 302.837C303.994 308.659 303.297 314.649 300.979 320.084C298.661 325.519 294.82 330.167 289.92 333.468C285.019 336.769 279.268 338.582 273.36 338.689C267.453 338.795 261.64 337.19 256.624 334.067C256.001 333.676 255.387 333.267 254.764 332.839C252.137 330.931 249.83 328.617 247.929 325.985C247.557 325.474 247.194 324.944 246.85 324.404C244.706 321 243.253 317.209 242.572 313.244C242.504 312.872 242.448 312.5 242.404 312.128C241.479 305.186 242.956 298.137 246.59 292.15C250.224 286.163 255.796 281.599 262.381 279.215L262.613 285.725L262.706 288.078L262.939 294.672L264.873 296.402L265.896 297.332L270.258 301.238L270.37 301.34L270.146 302.903L270.081 303.451L269.951 304.381L269.142 310.119L269.96 310.808L271.634 312.184L273.978 314.118L275.299 315.216L276.229 316.016L275.708 315.086L275.057 313.867L274.201 312.296L273.476 310.975L272.629 309.403L273.559 305.228L273.848 303.935L274.359 301.712L274.657 300.392L275.345 297.397L268.231 292.496L268.054 292.366L267.496 291.984L267.831 291.054L267.886 290.878L267.942 290.738L269.7 286.004L270.574 283.642L272.89 277.393C275.016 277.404 277.136 277.637 279.214 278.09C279.939 278.248 280.655 278.425 281.362 278.639C284.431 279.546 287.34 280.926 289.983 282.731C290.56 283.131 291.127 283.54 291.676 283.977C293.645 285.531 295.419 287.317 296.958 289.297C298.56 291.375 299.888 293.651 300.911 296.067C301.718 297.885 302.341 299.779 302.771 301.721Z" fill="#407BFF"/>
<path opacity="0.6" d="M262.641 285.753L262.734 288.106C258.066 290.314 254.213 293.939 251.725 298.464C249.237 302.99 248.241 308.185 248.877 313.309C248.794 312.947 248.728 312.575 248.663 312.203C247.751 306.87 248.627 301.385 251.155 296.601C253.683 291.817 257.721 288.004 262.641 285.753Z" fill="black"/>
<path opacity="0.6" d="M296.93 303.879C296.999 304.257 297.054 304.629 297.098 304.995C296.968 304.391 296.809 303.795 296.633 303.209C295.048 297.955 291.743 293.386 287.249 290.236C286.682 289.827 286.087 289.455 285.491 289.101C282.671 287.456 279.55 286.39 276.312 285.967C275.512 285.865 274.694 285.8 273.885 285.772C272.517 285.737 271.148 285.818 269.793 286.014L270.667 283.652C276.782 283.123 282.873 284.908 287.736 288.653C292.599 292.399 295.88 297.832 296.93 303.879Z" fill="black"/>
<g opacity="0.3">
<path d="M297.098 304.995C297.876 311.245 296.217 317.555 292.466 322.615C288.716 327.675 283.16 331.097 276.954 332.17C276.672 332.233 276.386 332.279 276.098 332.309L275.224 332.411H275.001L274.071 332.477H273.941C272.924 332.523 271.905 332.505 270.89 332.421L269.886 332.328C269.207 332.244 268.547 332.132 267.886 331.993L267.245 331.854L266.901 331.76C266.731 331.726 266.563 331.682 266.398 331.63C266.138 331.565 265.878 331.491 265.627 331.407C265.375 331.323 264.966 331.193 264.641 331.082L263.711 330.719L262.92 330.375L262.418 330.142L262.009 329.956L261.544 329.714L260.809 329.315C260.595 329.194 260.381 329.073 260.177 328.933L260.028 328.85L259.154 328.282L258.345 327.715L257.861 327.352L257.396 326.971L256.959 326.608L256.494 326.199C256.354 326.06 256.206 325.929 256.048 325.79L255.629 325.381C255.331 325.092 255.052 324.785 254.773 324.451C254.653 324.33 254.541 324.2 254.429 324.069C254.15 323.762 253.89 323.437 253.639 323.139C253.51 322.988 253.389 322.829 253.276 322.665C252.889 322.161 252.529 321.636 252.197 321.093C252.095 320.945 252.011 320.805 251.918 320.656C251.732 320.331 251.537 320.005 251.351 319.67V319.624C251.174 319.289 250.998 318.954 250.83 318.61C250.765 318.452 250.681 318.285 250.607 318.127L250.505 317.876C250.421 317.718 250.356 317.541 250.282 317.373C250.283 317.346 250.283 317.318 250.282 317.29C250.198 317.094 250.123 316.899 250.058 316.694C249.965 316.476 249.885 316.252 249.817 316.025C249.733 315.811 249.658 315.588 249.593 315.365C249.528 315.141 249.482 315.011 249.426 314.825L249.333 314.481C249.286 314.323 249.249 314.156 249.203 313.997C249.156 313.839 249.1 313.532 249.045 313.3C248.408 308.175 249.405 302.98 251.893 298.455C254.381 293.93 258.233 290.305 262.902 288.097L263.134 294.691L265.069 296.42L266.092 297.35L270.453 301.256L270.565 301.359L270.342 302.921L270.277 303.47L270.146 304.4L269.337 310.138L270.156 310.826L271.83 312.203L274.173 314.137L275.494 315.234L276.424 316.034L275.903 315.104L275.252 313.886L274.396 312.314L273.671 310.994L272.825 309.422L273.755 305.246L274.043 303.954L274.555 301.731L274.852 300.41L275.54 297.416L268.426 292.514L268.249 292.384L267.691 292.003L268.026 291.073L268.082 290.896L268.138 290.757L269.895 286.023C271.25 285.828 272.619 285.747 273.987 285.781C274.796 285.781 275.615 285.874 276.415 285.977C279.624 286.413 282.715 287.482 285.51 289.12C286.105 289.473 286.7 289.845 287.268 290.255C291.765 293.397 295.076 297.959 296.67 303.209C296.809 303.795 296.968 304.391 297.098 304.995Z" fill="black"/>
</g>
<g opacity="0.6">
<path d="M285.091 309.924C283.297 305.209 277.568 305.339 273.662 305.228L272.732 309.403L273.578 310.975L274.304 312.296C275.16 312.289 276.006 312.48 276.777 312.854C276.896 312.932 276.997 313.033 277.076 313.151C277.154 313.269 277.207 313.402 277.233 313.542C277.335 314.174 276.963 314.686 275.81 315.086L276.331 316.016L275.401 315.216C275.057 315.309 274.666 315.392 274.22 315.476C271.279 315.929 268.271 315.628 265.478 314.602L264.074 320.182L263.804 321.261C266.885 322.294 270.161 322.612 273.383 322.191H273.42L273.848 324.683L274.08 326.013L279.177 325.139L278.479 321.131C283.91 319.196 286.142 315.309 285.473 311.403C285.391 310.899 285.263 310.404 285.091 309.924ZM270.286 301.256L265.924 297.351C262.334 299.434 260.921 302.624 261.488 305.906V306.102C262.548 311.431 267.552 311.979 271.625 312.147L269.951 310.77L269.133 310.082L269.942 304.344C269.87 304.237 269.819 304.117 269.793 303.991C269.753 303.766 269.776 303.534 269.858 303.321C269.927 303.161 270.021 303.014 270.137 302.884L270.36 301.322L270.286 301.256ZM281.074 295.676C278.778 295.045 276.386 294.834 274.015 295.053L273.783 293.733L273.346 291.194H273.206L268.259 292.04L268.324 292.44L275.438 297.341L274.75 300.336L274.452 301.656C276.405 301.594 278.353 301.874 280.209 302.484L281.706 295.862L281.074 295.676Z" fill="black"/>
</g>
<path d="M273.941 303.926L273.652 305.218L272.722 309.394L273.569 310.966C275.382 311.059 276.684 311.291 276.852 312.231C276.895 312.439 276.865 312.655 276.768 312.844C276.573 313.244 276.07 313.579 275.15 313.858L275.801 315.076L276.322 316.006L275.392 315.206L274.071 314.109L273.829 314.156C270.878 314.623 267.856 314.328 265.05 313.3L263.376 319.977C263.581 320.061 263.785 320.135 264.018 320.21C266.964 321.058 270.053 321.295 273.094 320.907L273.327 322.228L273.755 324.739H273.894L278.842 323.883L278.154 319.875C283.585 317.941 285.817 314.053 285.147 310.147V309.943C283.957 304.167 278.163 304 273.941 303.926ZM269.449 302.707C269.409 302.407 269.47 302.102 269.621 301.84C269.773 301.578 270.006 301.373 270.286 301.256L265.924 297.351L264.901 296.421C261.795 298.513 260.577 301.508 261.107 304.586C261.194 305.101 261.334 305.606 261.525 306.093C262.911 309.738 266.584 310.519 269.988 310.743L269.17 310.054L269.979 304.316L270.109 303.386C270.035 303.355 269.964 303.317 269.895 303.275C269.787 303.215 269.691 303.133 269.615 303.036C269.538 302.939 269.482 302.827 269.449 302.707ZM273.783 293.761H273.634L273.206 291.231L272.974 289.892L268.035 290.738L267.979 290.878L267.924 291.054L268.147 292.347L268.324 292.477L275.438 297.378L274.75 300.373C276.474 300.402 278.185 300.684 279.828 301.21L281.074 295.695L281.325 294.588C278.89 293.816 276.326 293.538 273.783 293.77V293.761Z" fill="#407BFF"/>
<path d="M178.253 23.8561L179.89 16.63C179.922 16.4964 179.909 16.356 179.854 16.2303C179.798 16.1045 179.704 16.0001 179.584 15.9329C179.464 15.8657 179.326 15.8392 179.19 15.8576C179.054 15.876 178.927 15.9382 178.83 16.0348L173.51 21.187C173.51 21.187 175.259 24.1258 178.253 23.8561Z" fill="#407BFF"/>
<g opacity="0.4">
<path d="M178.253 23.8561L179.89 16.63C179.922 16.4964 179.909 16.356 179.854 16.2303C179.798 16.1045 179.704 16.0001 179.584 15.9329C179.464 15.8657 179.326 15.8392 179.19 15.8576C179.054 15.876 178.927 15.9382 178.83 16.0348L173.51 21.187C173.51 21.187 175.259 24.1258 178.253 23.8561Z" fill="white"/>
</g>
<path d="M182.754 37.8061L185.842 37.2016L187.386 36.904L190.018 36.3925C190.152 36.3664 190.274 36.2975 190.366 36.196C190.458 36.0946 190.514 35.9661 190.527 35.8298C190.539 35.6936 190.507 35.557 190.436 35.4404C190.364 35.3239 190.256 35.2337 190.129 35.1835L186.772 33.8164L183.266 32.44C183.266 32.44 181.35 35.1742 182.754 37.8061Z" fill="#407BFF"/>
<g opacity="0.4">
<path d="M182.754 37.8061L185.842 37.2016L187.386 36.904L190.018 36.3925C190.152 36.3664 190.274 36.2975 190.366 36.196C190.458 36.0946 190.514 35.9661 190.527 35.8298C190.539 35.6936 190.507 35.557 190.436 35.4404C190.364 35.3239 190.256 35.2337 190.129 35.1835L186.772 33.8164L183.266 32.44C183.266 32.44 181.35 35.1742 182.754 37.8061Z" fill="white"/>
</g>
<path d="M159.495 25.1581L152.52 22.675C152.398 22.6408 152.269 22.6437 152.15 22.6835C152.03 22.7232 151.925 22.7979 151.848 22.8979C151.77 22.998 151.725 23.1188 151.717 23.2448C151.71 23.3708 151.74 23.4962 151.804 23.605L156.277 29.5012C156.277 29.5012 159.402 28.162 159.495 25.1581Z" fill="#407BFF"/>
<g opacity="0.4">
<path d="M159.495 25.1581L152.52 22.675C152.398 22.6408 152.269 22.6437 152.15 22.6835C152.03 22.7232 151.925 22.7979 151.848 22.8979C151.77 22.998 151.725 23.1188 151.717 23.2448C151.71 23.3708 151.74 23.4962 151.804 23.605L156.277 29.5012C156.277 29.5012 159.402 28.162 159.495 25.1581Z" fill="white"/>
</g>
<path d="M181.573 33.0631L187.665 28.8688C187.777 28.7917 187.861 28.6804 187.905 28.5516C187.949 28.4227 187.95 28.2832 187.908 28.1537C187.866 28.0242 187.784 27.9116 187.673 27.8327C187.562 27.7538 187.429 27.7127 187.293 27.7156L179.853 27.8923C179.853 27.8923 179.192 31.231 181.573 33.0631Z" fill="#407BFF"/>
<path opacity="0.4" d="M181.573 33.0631L187.665 28.8688C187.777 28.7917 187.861 28.6804 187.905 28.5516C187.949 28.4227 187.95 28.2832 187.908 28.1537C187.866 28.0242 187.784 27.9116 187.673 27.8327C187.562 27.7538 187.429 27.7127 187.293 27.7156L179.853 27.8923C179.853 27.8923 179.192 31.231 181.573 33.0631Z" fill="white"/>
<path d="M161.271 42.67L159.309 49.7938C159.274 49.9242 159.283 50.0622 159.332 50.1876C159.382 50.3131 159.47 50.4194 159.584 50.4911C159.699 50.5628 159.833 50.596 159.967 50.586C160.102 50.576 160.23 50.5233 160.332 50.4355L165.912 45.5344C165.912 45.5344 164.275 42.4933 161.271 42.67Z" fill="#407BFF"/>
<g opacity="0.4">
<path d="M161.271 42.67L159.309 49.7938C159.274 49.9242 159.283 50.0622 159.332 50.1876C159.382 50.3131 159.47 50.4194 159.584 50.4911C159.699 50.5628 159.833 50.596 159.967 50.586C160.102 50.576 160.23 50.5233 160.332 50.4355L165.912 45.5344C165.912 45.5344 164.275 42.4933 161.271 42.67Z" fill="white"/>
</g>
<path d="M168.656 47.413L172.841 53.5045C172.918 53.6166 173.029 53.7008 173.158 53.7447C173.287 53.7885 173.426 53.7896 173.556 53.7478C173.685 53.706 173.798 53.6236 173.877 53.5128C173.956 53.4019 173.997 53.2685 173.994 53.1325L173.817 45.6925C173.817 45.6925 170.488 45.0322 168.656 47.413Z" fill="#407BFF"/>
<g opacity="0.4">
<path d="M168.656 47.413L172.841 53.5045C172.918 53.6166 173.029 53.7008 173.158 53.7447C173.287 53.7885 173.426 53.7896 173.556 53.7478C173.685 53.706 173.798 53.6236 173.877 53.5128C173.956 53.4019 173.997 53.2685 173.994 53.1325L173.817 45.6925C173.817 45.6925 170.488 45.0322 168.656 47.413Z" fill="white"/>
</g>
<path d="M149.414 36.2623L155.505 37.4434C155.709 38.1994 155.977 38.9368 156.305 39.6475L152.855 43.0327C152.758 43.1283 152.695 43.2524 152.675 43.3866C152.655 43.5208 152.678 43.6581 152.741 43.778C152.805 43.8979 152.906 43.9942 153.028 44.0526C153.151 44.111 153.289 44.1284 153.422 44.1022L158.5 43.0885C158.935 43.5916 159.404 44.0639 159.904 44.5021C160.663 45.1589 161.485 45.7384 162.359 46.2319C164.835 47.6176 167.666 48.2412 170.495 48.0245C173.324 47.8077 176.026 46.7603 178.262 45.0136L178.597 44.7439L179.053 44.3533L179.109 44.2975L180.346 44.6137L182.95 45.2833C183.081 45.3192 183.221 45.3109 183.347 45.2599C183.473 45.2088 183.579 45.1177 183.649 45.0006C183.719 44.8835 183.748 44.7467 183.733 44.6114C183.717 44.476 183.658 44.3494 183.563 44.251L181.294 41.74H181.35C181.564 41.4238 181.759 41.0983 181.945 40.81C183.349 38.3096 183.974 35.4464 183.738 32.5883C183.503 29.7303 182.418 27.008 180.623 24.7713C178.828 22.5346 176.406 20.8857 173.667 20.0365C170.927 19.1873 167.997 19.1767 165.252 20.0059L162.852 16.63C162.772 16.5189 162.658 16.4369 162.527 16.3962C162.396 16.3556 162.256 16.3586 162.127 16.4048C161.998 16.4509 161.887 16.5378 161.812 16.6522C161.736 16.7666 161.7 16.9024 161.708 17.0392L161.922 21.4009C161.532 21.6427 161.16 21.8938 160.788 22.1635C159.174 23.3724 157.83 24.9056 156.844 26.6647C155.777 28.5238 155.141 30.5994 154.984 32.7376L149.246 35.0812C149.13 35.1416 149.036 35.2365 148.976 35.3529C148.916 35.4693 148.894 35.6014 148.912 35.731C148.93 35.8606 148.989 35.9813 149.078 36.0765C149.168 36.1716 149.285 36.2366 149.414 36.2623Z" fill="#407BFF"/>
<g opacity="0.5">
<path d="M149.414 36.2623L155.505 37.4434C155.709 38.1994 155.977 38.9368 156.305 39.6475L152.855 43.0327C152.758 43.1283 152.695 43.2524 152.675 43.3866C152.655 43.5208 152.678 43.6581 152.741 43.778C152.805 43.8979 152.906 43.9942 153.028 44.0526C153.151 44.111 153.289 44.1284 153.422 44.1022L158.5 43.0885C158.935 43.5916 159.404 44.0639 159.904 44.5021C160.663 45.1589 161.485 45.7384 162.359 46.2319C164.835 47.6176 167.666 48.2412 170.495 48.0245C173.324 47.8077 176.026 46.7603 178.262 45.0136L178.597 44.7439L179.053 44.3533L179.109 44.2975L180.346 44.6137L182.95 45.2833C183.081 45.3192 183.221 45.3109 183.347 45.2599C183.473 45.2088 183.579 45.1177 183.649 45.0006C183.719 44.8835 183.748 44.7467 183.733 44.6114C183.717 44.476 183.658 44.3494 183.563 44.251L181.294 41.74H181.35C181.564 41.4238 181.759 41.0983 181.945 40.81C183.349 38.3096 183.974 35.4464 183.738 32.5883C183.503 29.7303 182.418 27.008 180.623 24.7713C178.828 22.5346 176.406 20.8857 173.667 20.0365C170.927 19.1873 167.997 19.1767 165.252 20.0059L162.852 16.63C162.772 16.5189 162.658 16.4369 162.527 16.3962C162.396 16.3556 162.256 16.3586 162.127 16.4048C161.998 16.4509 161.887 16.5378 161.812 16.6522C161.736 16.7666 161.7 16.9024 161.708 17.0392L161.922 21.4009C161.532 21.6427 161.16 21.8938 160.788 22.1635C159.174 23.3724 157.83 24.9056 156.844 26.6647C155.777 28.5238 155.141 30.5994 154.984 32.7376L149.246 35.0812C149.13 35.1416 149.036 35.2365 148.976 35.3529C148.916 35.4693 148.894 35.6014 148.912 35.731C148.93 35.8606 148.989 35.9813 149.078 36.0765C149.168 36.1716 149.285 36.2366 149.414 36.2623Z" fill="white"/>
</g>
<g opacity="0.5">
<path d="M161.532 28.72C160.619 30.3492 160.211 32.2123 160.358 34.0737C160.504 35.9351 161.2 37.7112 162.356 39.1773C163.512 40.6434 165.077 41.7336 166.853 42.3102C168.629 42.8867 170.536 42.9235 172.333 42.4161C174.13 41.9086 175.736 40.8796 176.948 39.4593C178.16 38.039 178.924 36.2911 179.142 34.4367C179.361 32.5824 179.025 30.7049 178.176 29.0417C177.327 27.3785 176.005 26.0043 174.375 25.093C173.294 24.487 172.104 24.1001 170.873 23.9544C169.642 23.8087 168.394 23.9071 167.201 24.2439C166.009 24.5808 164.894 25.1495 163.921 25.9176C162.948 26.6856 162.136 27.6379 161.532 28.72Z" fill="white"/>
</g>
<g opacity="0.2">
<path d="M171.883 26.86C172.924 25.9858 174.598 26.5252 175.919 27.6226C176.58 28.2089 177.114 28.9235 177.49 29.7229C177.865 30.5223 178.075 31.3898 178.104 32.2726C178.551 36.1972 175.556 41.4331 171.325 40.8286C167.093 40.2241 168.535 36.1786 171.65 35.6299C174.766 35.0812 175.026 31.0357 172.273 29.0083C171.046 28.0597 171.269 27.3436 171.883 26.86Z" fill="#407BFF"/>
</g>
<g opacity="0.2">
<path d="M168.739 29.65C169.478 29.6001 170.219 29.7177 170.906 29.9941C171.836 30.394 172.85 31.1938 172.273 32.719C171.343 35.0812 168.051 32.719 166.479 34.5139C164.619 36.6064 161.253 34.8301 162.248 32.533C163.243 30.2359 167.102 29.7709 168.739 29.65Z" fill="#407BFF"/>
</g>
<g opacity="0.2">
<path d="M164.61 36.346C165.168 36.2605 165.738 36.354 166.239 36.613C166.741 36.872 167.147 37.2832 167.4 37.7875C167.586 38.1309 167.659 38.5241 167.609 38.9113C167.559 39.2986 167.388 39.6603 167.121 39.9451C165.614 41.8051 162.741 38.3734 163.28 37.1551C163.415 36.9181 163.607 36.7195 163.84 36.5779C164.073 36.4363 164.338 36.3565 164.61 36.346Z" fill="#407BFF"/>
</g>
<g opacity="0.2">
<path d="M169.074 25.0744C169.606 25.1096 170.105 25.3457 170.469 25.7347C170.611 25.8784 170.722 26.0501 170.795 26.2388C170.867 26.4276 170.899 26.6294 170.89 26.8313C170.88 27.0333 170.829 27.231 170.739 27.4121C170.649 27.5931 170.522 27.7535 170.367 27.883C168.879 29.6407 166.358 26.8786 166.972 25.7905C167.4 25.0837 168.404 25 169.074 25.0744Z" fill="#407BFF"/>
</g>
<g opacity="0.2">
<path d="M165.177 29.65C164.782 29.7856 164.35 29.7657 163.968 29.5942C163.821 29.5323 163.688 29.4407 163.577 29.3251C163.467 29.2094 163.382 29.0723 163.327 28.9221C163.272 28.772 163.248 28.6121 163.258 28.4526C163.267 28.293 163.31 28.1371 163.382 27.9946C163.931 26.2648 166.61 27.511 166.498 28.4875C166.47 29.0827 165.68 29.4361 165.177 29.65Z" fill="#407BFF"/>
</g>
<path d="M286.672 188.578L288.309 181.37C288.341 181.237 288.328 181.096 288.273 180.97C288.218 180.845 288.123 180.74 288.003 180.673C287.884 180.606 287.745 180.579 287.609 180.598C287.473 180.616 287.347 180.678 287.249 180.775L281.929 185.89C281.929 185.89 283.65 188.847 286.672 188.578Z" fill="#407BFF"/>
<g opacity="0.4">
<path d="M286.672 188.578L288.309 181.37C288.341 181.237 288.328 181.096 288.273 180.97C288.218 180.845 288.123 180.74 288.003 180.673C287.884 180.606 287.745 180.579 287.609 180.598C287.473 180.616 287.347 180.678 287.249 180.775L281.929 185.89C281.929 185.89 283.65 188.847 286.672 188.578Z" fill="white"/>
</g>
<path d="M291.174 202.528L294.261 201.923L295.805 201.626L298.437 201.105C298.573 201.082 298.697 201.015 298.791 200.914C298.884 200.814 298.942 200.685 298.955 200.548C298.967 200.411 298.935 200.274 298.861 200.157C298.788 200.041 298.678 199.952 298.549 199.905L295.191 198.538L291.685 197.124C291.685 197.124 289.723 199.896 291.174 202.528Z" fill="#407BFF"/>
<g opacity="0.4">
<path d="M291.174 202.528L294.261 201.923L295.805 201.626L298.437 201.105C298.573 201.082 298.697 201.015 298.791 200.914C298.884 200.814 298.942 200.685 298.955 200.548C298.967 200.411 298.935 200.274 298.861 200.157C298.788 200.041 298.678 199.952 298.549 199.905L295.191 198.538L291.685 197.124C291.685 197.124 289.723 199.896 291.174 202.528Z" fill="white"/>
</g>
<path d="M267.914 189.88L260.949 187.397C260.821 187.351 260.681 187.348 260.552 187.389C260.422 187.429 260.308 187.509 260.228 187.619C260.148 187.728 260.105 187.861 260.105 187.997C260.106 188.133 260.151 188.265 260.233 188.373L264.706 194.269C264.706 194.269 267.84 192.884 267.914 189.88Z" fill="#407BFF"/>
<g opacity="0.4">
<path d="M267.914 189.88L260.949 187.397C260.821 187.351 260.681 187.348 260.552 187.389C260.422 187.429 260.308 187.509 260.228 187.619C260.148 187.728 260.105 187.861 260.105 187.997C260.106 188.133 260.151 188.265 260.233 188.373L264.706 194.269C264.706 194.269 267.84 192.884 267.914 189.88Z" fill="white"/>
</g>
<path d="M289.993 197.775L296.084 193.581C296.208 193.511 296.304 193.401 296.357 193.269C296.411 193.137 296.418 192.991 296.378 192.855C296.338 192.718 296.254 192.599 296.138 192.517C296.022 192.434 295.882 192.393 295.74 192.4L288.3 192.577C288.3 192.577 287.612 195.953 289.993 197.775Z" fill="#407BFF"/>
<path opacity="0.4" d="M289.993 197.775L296.084 193.581C296.208 193.511 296.304 193.401 296.357 193.269C296.411 193.137 296.418 192.991 296.378 192.855C296.338 192.718 296.254 192.599 296.138 192.517C296.022 192.434 295.882 192.393 295.74 192.4L288.3 192.577C288.3 192.577 287.612 195.953 289.993 197.775Z" fill="white"/>
<path d="M269.7 207.336L267.738 214.469C267.703 214.599 267.711 214.737 267.761 214.863C267.81 214.988 267.899 215.095 268.013 215.166C268.127 215.238 268.261 215.271 268.396 215.261C268.53 215.251 268.658 215.198 268.761 215.111L274.341 210.209C274.341 210.209 272.695 207.215 269.7 207.336Z" fill="#407BFF"/>
<g opacity="0.4">
<path d="M269.7 207.336L267.738 214.469C267.703 214.599 267.711 214.737 267.761 214.863C267.81 214.988 267.899 215.095 268.013 215.166C268.127 215.238 268.261 215.271 268.396 215.261C268.53 215.251 268.658 215.198 268.761 215.111L274.341 210.209C274.341 210.209 272.695 207.215 269.7 207.336Z" fill="white"/>
</g>
<path d="M277.075 212.135L281.26 218.226C281.337 218.338 281.448 218.422 281.577 218.466C281.706 218.51 281.845 218.511 281.975 218.469C282.104 218.428 282.217 218.345 282.296 218.234C282.375 218.124 282.416 217.99 282.413 217.854L282.236 210.414C282.236 210.414 278.907 209.754 277.075 212.135Z" fill="#407BFF"/>
<g opacity="0.4">
<path d="M277.075 212.135L281.26 218.226C281.337 218.338 281.448 218.422 281.577 218.466C281.706 218.51 281.845 218.511 281.975 218.469C282.104 218.428 282.217 218.345 282.296 218.234C282.375 218.124 282.416 217.99 282.413 217.854L282.236 210.414C282.236 210.414 278.907 209.754 277.075 212.135Z" fill="white"/>
</g>
<path d="M257.833 200.984L263.925 202.165C264.128 202.921 264.396 203.658 264.724 204.369L261.284 207.754C261.188 207.85 261.126 207.973 261.106 208.105C261.086 208.238 261.108 208.374 261.17 208.494C261.233 208.613 261.331 208.709 261.452 208.769C261.573 208.828 261.709 208.847 261.841 208.824L266.919 207.81C267.354 208.313 267.823 208.786 268.324 209.224C269.082 209.881 269.905 210.46 270.779 210.954C273.255 212.339 276.085 212.963 278.914 212.746C281.743 212.529 284.446 211.482 286.682 209.735L287.017 209.466L287.472 209.075L287.528 209.019L288.765 209.335L291.369 210.005C291.5 210.041 291.64 210.033 291.766 209.981C291.893 209.93 291.999 209.839 292.069 209.722C292.138 209.605 292.168 209.468 292.152 209.333C292.137 209.198 292.077 209.071 291.983 208.973L289.714 206.48L289.76 206.415C289.974 206.099 290.169 205.773 290.355 205.439C291.76 202.938 292.384 200.075 292.148 197.217C291.913 194.359 290.828 191.637 289.033 189.4C287.238 187.163 284.816 185.514 282.077 184.665C279.338 183.816 276.407 183.805 273.662 184.635L271.272 181.333C271.192 181.223 271.079 181.141 270.949 181.101C270.819 181.06 270.679 181.062 270.551 181.107C270.422 181.152 270.312 181.237 270.236 181.35C270.159 181.463 270.122 181.597 270.128 181.733L270.342 186.104C269.951 186.336 269.579 186.597 269.207 186.867C267.544 188.112 266.169 189.701 265.176 191.526C264.183 193.351 263.594 195.368 263.45 197.441L257.712 199.784C257.589 199.837 257.486 199.929 257.418 200.044C257.349 200.16 257.32 200.295 257.334 200.428C257.347 200.562 257.403 200.688 257.493 200.788C257.582 200.888 257.702 200.956 257.833 200.984Z" fill="#407BFF"/>
<g opacity="0.5">
<path d="M257.833 200.984L263.925 202.165C264.128 202.921 264.396 203.658 264.724 204.369L261.284 207.754C261.188 207.85 261.126 207.973 261.106 208.105C261.086 208.238 261.108 208.374 261.17 208.494C261.233 208.613 261.331 208.709 261.452 208.769C261.573 208.828 261.709 208.847 261.841 208.824L266.919 207.81C267.354 208.313 267.823 208.786 268.324 209.224C269.082 209.881 269.905 210.46 270.779 210.954C273.255 212.339 276.085 212.963 278.914 212.746C281.743 212.529 284.446 211.482 286.682 209.735L287.017 209.466L287.472 209.075L287.528 209.019L288.765 209.335L291.369 210.005C291.5 210.041 291.64 210.033 291.766 209.981C291.893 209.93 291.999 209.839 292.069 209.722C292.138 209.605 292.168 209.468 292.152 209.333C292.137 209.198 292.077 209.071 291.983 208.973L289.714 206.48L289.76 206.415C289.974 206.099 290.169 205.773 290.355 205.439C291.76 202.938 292.384 200.075 292.148 197.217C291.913 194.359 290.828 191.637 289.033 189.4C287.238 187.163 284.816 185.514 282.077 184.665C279.338 183.816 276.407 183.805 273.662 184.635L271.272 181.333C271.192 181.223 271.079 181.141 270.949 181.101C270.819 181.06 270.679 181.062 270.551 181.107C270.422 181.152 270.312 181.237 270.236 181.35C270.159 181.463 270.122 181.597 270.128 181.733L270.342 186.104C269.951 186.336 269.579 186.597 269.207 186.867C267.544 188.112 266.169 189.701 265.176 191.526C264.183 193.351 263.594 195.368 263.45 197.441L257.712 199.784C257.589 199.837 257.486 199.929 257.418 200.044C257.349 200.16 257.32 200.295 257.334 200.428C257.347 200.562 257.403 200.688 257.493 200.788C257.582 200.888 257.702 200.956 257.833 200.984Z" fill="white"/>
</g>
<g opacity="0.5">
<path d="M269.951 193.46C269.039 195.089 268.63 196.953 268.777 198.814C268.924 200.675 269.619 202.451 270.776 203.918C271.932 205.384 273.497 206.474 275.273 207.05C277.049 207.627 278.956 207.664 280.753 207.156C282.55 206.649 284.156 205.62 285.368 204.2C286.58 202.779 287.343 201.031 287.562 199.177C287.78 197.323 287.444 195.445 286.596 193.782C285.747 192.119 284.424 190.745 282.794 189.833C281.713 189.227 280.523 188.84 279.292 188.695C278.061 188.549 276.814 188.647 275.621 188.984C274.428 189.321 273.313 189.89 272.34 190.658C271.368 191.426 270.556 192.378 269.951 193.46Z" fill="white"/>
</g>
<g opacity="0.2">
<path d="M280.311 191.535C281.344 190.661 283.018 191.2 284.338 192.298C284.999 192.884 285.533 193.599 285.909 194.398C286.285 195.197 286.494 196.065 286.524 196.948C286.97 200.872 283.975 206.108 279.744 205.504C275.512 204.899 276.954 200.854 280.069 200.305C283.185 199.756 283.445 195.711 280.693 193.683C279.465 192.781 279.688 192.056 280.311 191.535Z" fill="#407BFF"/>
</g>
<g opacity="0.2">
<path d="M277.14 194.381C277.879 194.331 278.62 194.449 279.307 194.725C280.237 195.125 281.251 195.915 280.674 197.45C279.744 199.812 276.461 197.45 274.889 199.245C273.029 201.337 269.663 199.552 270.658 197.264C271.653 194.976 275.522 194.493 277.14 194.381Z" fill="#407BFF"/>
</g>
<g opacity="0.2">
<path d="M273.002 201.068C273.559 200.982 274.13 201.076 274.631 201.335C275.132 201.594 275.539 202.005 275.792 202.509C275.979 202.852 276.053 203.244 276.005 203.631C275.956 204.019 275.787 204.381 275.522 204.667C274.006 206.527 271.132 203.086 271.672 201.877C271.806 201.64 271.999 201.441 272.231 201.299C272.464 201.158 272.729 201.078 273.002 201.068Z" fill="#407BFF"/>
</g>
<g opacity="0.2">
<path d="M277.493 189.796C278.024 189.828 278.523 190.061 278.888 190.447C279.031 190.592 279.142 190.764 279.214 190.953C279.287 191.143 279.319 191.345 279.31 191.548C279.3 191.751 279.249 191.949 279.159 192.131C279.068 192.313 278.942 192.474 278.786 192.605C277.298 194.362 274.778 191.6 275.392 190.512C275.782 189.796 276.824 189.75 277.493 189.796Z" fill="#407BFF"/>
</g>
<g opacity="0.2">
<path d="M273.597 194.325C273.201 194.461 272.769 194.441 272.388 194.269C272.24 194.207 272.107 194.116 271.997 194C271.886 193.885 271.801 193.747 271.746 193.597C271.691 193.447 271.668 193.287 271.677 193.128C271.687 192.968 271.729 192.812 271.802 192.67C272.35 190.94 275.029 192.186 274.917 193.163C274.843 193.795 274.099 194.148 273.597 194.325Z" fill="#407BFF"/>
</g>
<path d="M208.934 230.921L205.177 199.924L195.328 209.772L92.7024 107.138L77.8596 107.389L187.786 217.315L177.937 227.173L208.934 230.921Z" fill="#407BFF"/>
<path opacity="0.7" d="M208.934 230.921L205.177 199.924L195.328 209.772L92.7024 107.138L77.8596 107.389L187.786 217.315L177.937 227.173L208.934 230.921Z" fill="white"/>
<path d="M409.284 247.103L405.527 216.106L395.678 225.954L290.03 120.306L245.111 165.225L202.917 123.031L190.38 110.495L190.352 110.523L103.658 23.8375H88.5825L194.872 130.127L194.937 130.136L245.111 180.31L290.03 135.391L388.136 233.497L378.287 243.355L409.284 247.103Z" fill="#407BFF"/>
<path opacity="0.7" d="M409.284 247.103L405.527 216.106L395.678 225.954L290.03 120.306L245.111 165.225L202.917 123.031L190.38 110.495L190.352 110.523L103.658 23.8375H88.5825L194.872 130.127L194.937 130.136L245.111 180.31L290.03 135.391L388.136 233.497L378.287 243.355L409.284 247.103Z" fill="white"/>
<path d="M317.483 109.686L321.482 105.687L340.175 124.389L345.486 119.088L347.448 135.307L331.229 133.345L336.223 128.342L317.483 109.686Z" fill="#407BFF"/>
<path d="M171.39 146.811L175.389 142.812L194.091 161.515L199.392 156.214L201.354 172.433L185.135 170.471L190.129 165.467L171.39 146.811Z" fill="#407BFF"/>
<path d="M325.37 216.106L344.063 234.817L349.364 229.507L351.326 245.726L335.107 243.764L340.11 238.77L321.371 220.105L325.37 216.106Z" fill="#407BFF"/>
<path d="M305.905 30.3382H208.543C206.735 30.3382 205.27 31.8038 205.27 33.6118V90.7138C205.27 92.5218 206.735 93.9874 208.543 93.9874H305.905C307.713 93.9874 309.179 92.5218 309.179 90.7138V33.6118C309.179 31.8038 307.713 30.3382 305.905 30.3382Z" fill="#407BFF"/>
<path opacity="0.7" d="M305.905 30.3382H208.543C206.735 30.3382 205.27 31.8038 205.27 33.6118V90.7138C205.27 92.5218 206.735 93.9874 208.543 93.9874H305.905C307.713 93.9874 309.179 92.5218 309.179 90.7138V33.6118C309.179 31.8038 307.713 30.3382 305.905 30.3382Z" fill="white"/>
<path d="M229.701 46.7992H220.717V83.4598H229.701V46.7992Z" fill="#407BFF"/>
<path d="M246.515 52.4908H237.531V83.4691H246.515V52.4908Z" fill="#407BFF"/>
<path d="M246.515 52.4908H237.531V83.4691H246.515V52.4908Z" fill="#407BFF"/>
<path opacity="0.3" d="M246.515 52.4908H237.531V83.4691H246.515V52.4908Z" fill="white"/>
<path d="M263.339 58.1824H254.355V83.4691H263.339V58.1824Z" fill="#407BFF"/>
<path d="M280.153 63.874H271.169V83.4691H280.153V63.874Z" fill="#407BFF"/>
<path opacity="0.3" d="M280.153 63.874H271.169V83.4691H280.153V63.874Z" fill="white"/>
<path d="M296.977 69.5656H287.993V83.4691H296.977V69.5656Z" fill="#407BFF"/>
<path d="M302.278 83.9248H214.635V40.8751H215.565V82.9948H302.278V83.9248Z" fill="#263238"/>
<path d="M290.913 62.0047L292.318 60.3121L281.725 51.5701L275.959 58.573L263.674 48.4546L259.089 54.0067L246.896 43.9534L241.586 50.3797L227.645 39.7777L227.525 38.5036L241.428 49.0963L246.766 42.6235L258.968 52.6861L263.553 47.1247L275.829 57.2617L281.595 50.2495L292.922 59.5774L294.15 58.0894L295.619 62.5906L290.913 62.0047Z" fill="#407BFF"/>
<path d="M106.141 60.8553C108.193 52.2782 102.902 43.6623 94.3253 41.611C85.7483 39.5598 77.1323 44.85 75.0811 53.427C73.0298 62.0041 78.32 70.6201 86.8971 72.6713C95.4742 74.7226 104.09 69.4324 106.141 60.8553Z" fill="#407BFF"/>
<g opacity="0.7">
<path d="M106.141 60.8553C108.193 52.2782 102.902 43.6623 94.3253 41.611C85.7483 39.5598 77.1323 44.85 75.0811 53.427C73.0298 62.0041 78.32 70.6201 86.8971 72.6713C95.4742 74.7226 104.09 69.4324 106.141 60.8553Z" fill="white"/>
</g>
<path d="M87.7456 63.2974C87.8421 62.6088 88.1842 61.9783 88.7089 61.5221C89.2335 61.0658 89.9054 60.8145 90.6007 60.8145C91.296 60.8145 91.9679 61.0658 92.4925 61.5221C93.0172 61.9783 93.3593 62.6088 93.4558 63.2974C93.4558 64.6645 92.3584 65.734 90.5914 65.734C88.8244 65.734 87.7456 64.6645 87.7456 63.2974ZM92.7211 59.2612H88.4617L87.8758 48.6313H93.307L92.7211 59.2612Z" fill="#407BFF"/>
<path d="M90.6099 73.4437C87.3871 73.4363 84.2388 72.474 81.5627 70.6781C78.8866 68.8823 76.8028 66.3335 75.5746 63.3539C74.3464 60.3743 74.0288 57.0975 74.662 53.9375C75.2953 50.7775 76.8509 47.8761 79.1324 45.5998C81.4139 43.3235 84.3188 41.7745 87.4803 41.1485C90.6417 40.5224 93.9178 40.8475 96.8946 42.0825C99.8714 43.3175 102.415 45.4071 104.205 48.0873C105.995 50.7675 106.95 53.918 106.95 57.1408C106.948 59.2842 106.523 61.4061 105.701 63.3853C104.878 65.3646 103.674 67.1625 102.156 68.6764C100.639 70.1903 98.8385 71.3905 96.8573 72.2084C94.8762 73.0264 92.7533 73.4461 90.6099 73.4437ZM90.6099 41.4982C87.5161 41.4982 84.4918 42.4156 81.9194 44.1345C79.347 45.8533 77.342 48.2963 76.1581 51.1546C74.9741 54.0129 74.6643 57.1581 75.2679 60.1925C75.8715 63.2269 77.3613 66.0141 79.549 68.2018C81.7366 70.3894 84.5239 71.8793 87.5582 72.4828C90.5926 73.0864 93.7378 72.7766 96.5961 71.5927C99.4544 70.4087 101.897 68.4038 103.616 65.8314C105.335 63.259 106.253 60.2346 106.253 57.1408C106.248 52.9936 104.598 49.0177 101.665 46.0852C98.733 43.1528 94.7571 41.5031 90.6099 41.4982Z" fill="#407BFF"/>
<path d="M102.384 67.9846L107.964 69.7609C108.028 69.7806 108.096 69.7806 108.16 69.7611C108.224 69.7416 108.281 69.7033 108.323 69.6513C108.365 69.5992 108.39 69.5358 108.396 69.4691C108.402 69.4025 108.387 69.3357 108.354 69.2773L105.211 63.781C104.495 65.3219 103.541 66.7405 102.384 67.9846Z" fill="#407BFF"/>
<path d="M82.9746 310.157L79.2825 323.474L84.5463 325.399L90.6378 313.653L82.9746 310.157Z" fill="#FF8B7B"/>
<path d="M83.3279 323.707C83.3279 323.707 85.9226 320.917 86.8247 321.558C87.7268 322.2 87.0386 326.208 87.0386 326.208C87.0386 326.208 91.9583 329.528 93.4463 330.04C94.9343 330.551 95.9294 331.76 95.3063 334.774L76.79 329.631C76.79 329.631 78.7709 322.981 79.115 321.847C79.4591 320.712 80.7053 322.591 80.7053 322.591L83.3279 323.707Z" fill="#263238"/>
<path d="M136.645 176.86C135.613 180.98 134.627 190.977 133.427 202.621C132.599 210.609 131.679 219.361 130.572 227.535C129.177 237.989 127.484 247.465 125.336 253.082C117.784 272.882 89.9961 316.601 89.9961 316.601L81.282 314.23C81.282 314.23 98.1336 266.614 99.9936 261.266C101.854 255.919 109.526 235.691 109.47 214.534C109.414 193.376 110.67 173.8 110.67 173.8L136.645 176.86Z" fill="#263238"/>
<path opacity="0.2" d="M133.427 202.63C132.599 210.619 131.679 219.37 130.572 227.545C128.07 211.884 127.261 188.606 127.261 188.606L133.427 202.63Z" fill="black"/>
<path d="M80.4449 314.286L90.647 317.122L92.3024 314.072L81.1145 310.817L80.4449 314.286Z" fill="#407BFF"/>
<path d="M135.157 314.779V328.608L140.746 329.045L143.48 316.099L135.157 314.779Z" fill="#FF8B7B"/>
<path d="M139.119 327.743C139.119 327.743 140.876 324.376 141.909 324.739C142.941 325.102 143.369 329.184 143.369 329.184C143.369 329.184 149.005 331.044 150.576 331.165C152.148 331.286 153.422 332.16 153.617 335.229H134.394C134.394 335.229 134.524 328.292 134.562 327.101C134.599 325.911 136.291 327.399 136.291 327.399L139.119 327.743Z" fill="#263238"/>
<path d="M128.507 175.427C126.34 176.86 127.577 186.29 127.921 190.354C128.554 198.11 133.427 209.633 134.097 219.705C134.878 231.367 135.436 243.048 135.157 251.148C134.441 271.962 134.599 319.112 134.599 319.112H143.629C143.629 319.112 154.231 272.241 156.212 251.148C157.867 233.664 156.491 183.323 156.212 172.433L128.507 175.427Z" fill="#263238"/>
<path d="M133.818 319.438H144.41L145.191 316.053L133.539 315.913L133.818 319.438Z" fill="#407BFF"/>
<path d="M134.413 96.3124L127.187 107.138C123.56 104.83 120.098 102.273 116.827 99.4837C115.119 98.0463 113.486 96.5222 111.935 94.9174C111.083 94.0477 110.276 93.1351 109.517 92.1832C108.543 90.9854 107.719 89.6738 107.062 88.2772L106.755 87.5611V87.4681C106.755 87.3472 106.652 87.1705 106.606 87.0124C106.506 86.709 106.431 86.398 106.383 86.0824C106.339 85.7742 106.314 85.4636 106.308 85.1524C106.292 84.8674 106.292 84.5818 106.308 84.2968C106.368 83.8378 106.474 83.386 106.624 82.9483C106.683 82.7619 106.751 82.5788 106.829 82.3996C106.903 82.2415 106.959 82.1206 107.034 81.9811L107.248 81.5905L107.443 81.2836C107.557 81.0982 107.685 80.921 107.824 80.7535C108.195 80.2842 108.612 79.8541 109.07 79.4701C109.442 79.1539 109.768 78.9121 110.084 78.6889C111.15 77.9664 112.269 77.3259 113.432 76.7731C115.428 75.8335 117.474 75.0045 119.561 74.29C123.55 72.884 127.629 71.7499 131.772 70.8955L134.097 76.9033C130.656 79.0423 127.112 81.0976 123.746 83.1622C122.518 83.9248 121.3 84.6874 120.165 85.45L120.658 85.8964C121.988 87.0682 123.448 88.24 125.001 89.4118C128.042 91.7182 131.335 94.0618 134.413 96.3124Z" fill="#407BFF"/>
<path d="M158.463 76.15C159.549 77.8305 160.86 79.3544 162.359 80.6791C162.006 81.0597 161.572 81.3573 161.09 81.5502C160.607 81.7432 160.088 81.8268 159.569 81.7951L158.463 76.15Z" fill="#FF5652"/>
<path d="M155.115 72.244C155.024 72.2404 154.938 72.204 154.873 72.1417C154.808 72.0741 154.772 71.9842 154.772 71.8906C154.772 71.797 154.808 71.707 154.873 71.6395C155.249 71.2141 155.721 70.8843 156.25 70.6774C156.779 70.4704 157.349 70.3921 157.914 70.4491C158.008 70.4672 158.091 70.5208 158.147 70.5987C158.202 70.6767 158.225 70.773 158.212 70.8676C158.193 70.9609 158.139 71.0434 158.061 71.0973C157.983 71.1512 157.887 71.1722 157.793 71.1559C157.349 71.1085 156.901 71.1682 156.485 71.33C156.069 71.4918 155.698 71.751 155.403 72.0859C155.37 72.1321 155.327 72.1703 155.277 72.1976C155.227 72.225 155.171 72.2408 155.115 72.244Z" fill="#263238"/>
<path d="M142.169 81.1162C140.979 86.6218 137.975 96.3496 132.962 98.2096C132.962 98.2096 132.134 103.957 141.574 108.012C151.943 112.476 148.744 104.999 148.744 104.999C143.657 101.204 145.61 97.075 148.298 93.5503L142.169 81.1162Z" fill="#FF8B7B"/>
<path d="M134.413 93.3922C134.413 93.3922 137.993 90.6766 139.444 90.7975C140.895 90.9184 147.247 95.0383 147.247 95.0383L147.303 97.0471L134.413 93.3922Z" fill="#407BFF"/>
<path d="M137.817 77.917C139.77 85.1524 140.542 89.4862 145.006 92.4901C151.739 97.0099 160.099 91.8019 160.351 84.1201C160.574 77.2102 157.347 66.5338 149.581 65.0923C147.868 64.7653 146.101 64.8815 144.445 65.4299C142.79 65.9782 141.303 66.9405 140.124 68.2254C138.945 69.5103 138.115 71.0751 137.711 72.7713C137.307 74.4675 137.343 76.2388 137.817 77.917Z" fill="#FF8B7B"/>
<path d="M157.03 66.9802C154.092 73.1089 157.244 74.4853 156.603 76.987C155.961 79.4887 153.004 74.7364 151.953 80.8C150.902 86.8636 143.452 89.7652 143.452 89.7652C142.881 89.3782 142.236 89.1118 141.558 88.9823C140.88 88.8528 140.183 88.8629 139.509 89.0119C120.584 74.5597 134.45 68.3473 134.45 68.3473C134.45 68.3473 134.506 65.1481 138.709 63.2416C143.471 61.084 143.359 63.3718 148.242 61.7815C153.124 60.1912 157.867 56.7781 159.774 60.9817C160.797 63.3067 157.03 66.9802 157.03 66.9802Z" fill="#263238"/>
<path d="M150.139 78.2053C150.631 80.0016 151.703 81.5844 153.189 82.7065C155.152 84.1666 156.621 82.7065 156.482 80.5024C156.351 78.5029 155.17 75.3223 153.003 74.7364C150.837 74.1505 149.572 76.0291 150.139 78.2053Z" fill="#FF8B7B"/>
<path d="M158.463 176.943C138.728 194.018 107.666 176.943 107.666 176.943C111.451 130.35 113.506 106.263 119.682 97.7818C122.286 94.192 126.443 92.4808 131.772 93.0574C149.683 95.0104 155.775 101.651 157.319 109.23C157.544 110.387 157.681 111.559 157.728 112.736C157.979 118.809 156.11 125.114 155.617 129.839C154.464 140.459 158.463 176.943 158.463 176.943Z" fill="#407BFF"/>
<path opacity="0.2" d="M157.691 112.736C154.352 111.918 150.818 110.662 150.818 110.662L157.328 109.23C157.537 110.388 157.659 111.56 157.691 112.736Z" fill="black"/>
<path d="M188.064 91.309C188.093 91.9957 188.034 92.6834 187.888 93.355C187.648 94.371 187.233 95.3372 186.66 96.2101C185.921 97.3188 185.025 98.3148 184 99.1675C183.229 99.8388 182.415 100.46 181.564 101.027C180.078 102.013 178.524 102.893 176.914 103.659C173.907 105.12 170.799 106.364 167.614 107.379C164.468 108.402 161.259 109.219 158.007 109.825C156.361 110.142 154.677 110.365 152.938 110.532C151.069 110.725 149.186 110.753 147.312 110.616L148.112 97.5958C149.107 97.5958 150.381 97.54 151.674 97.4191C152.966 97.2982 154.343 97.0657 155.719 96.8425C158.463 96.3775 161.299 95.7823 164.024 95.0755C166.747 94.3889 169.432 93.5601 172.068 92.5924C173.333 92.1181 174.552 91.588 175.603 91.0672L176.133 90.7882C175.742 90.3511 175.296 89.8582 174.84 89.4397C172.769 87.4113 170.596 85.4899 168.33 83.683C163.68 79.963 158.797 76.243 153.915 72.709L157.198 67.129C162.829 69.8821 168.314 72.9242 173.631 76.243C176.387 77.9529 179.044 79.8158 181.592 81.823C183.047 82.9722 184.392 84.255 185.609 85.6546C185.994 86.1145 186.348 86.5991 186.669 87.1054C187.124 87.8017 187.484 88.5554 187.739 89.3467C187.826 89.6247 187.897 89.9072 187.953 90.193C188.011 90.5625 188.049 90.9352 188.064 91.309Z" fill="#407BFF"/>
<path d="M157.03 67.4266C156.125 66.0234 155.008 64.7686 153.72 63.7066C152.034 62.6406 150.056 62.133 148.065 62.2558C145.647 62.2558 145.108 65.7061 146.308 66.385C147.507 67.0639 148.168 68.8402 148.902 69.6028C149.637 70.3654 153.106 73.1089 154.24 72.6067C155.375 72.1045 157.03 67.4266 157.03 67.4266Z" fill="#FF8B7B"/>
<path d="M134.58 67.501C134.613 69.0514 134.393 70.5969 133.929 72.0766C133.241 74.1691 130.823 76.1593 129.726 76.3732C128.628 76.5871 128.693 73.8343 129.958 70.849C131.558 67.0546 134.58 67.501 134.58 67.501Z" fill="#FF8B7B"/>
<path d="M154.454 72.2626C154.454 72.2626 151.46 72.9415 149.646 72.2626C147.833 71.5837 146.512 70.9885 147.702 70.5421C149.015 70.257 150.363 70.1693 151.701 70.2817L154.454 72.2626Z" fill="#FF8B7B"/>
</svg>
